<svg viewBox="0 0 44 44" fill="none" xmlns="http://www.w3.org/2000/svg">
<g clip-path="url(#clip0_2688_18033)">
<path d="M7.39302 19.4623C9.18104 19.4623 10.8049 18.5774 11.7749 17.139C12.2466 17.5889 12.8751 17.8757 13.5685 17.9083C14.8681 20.668 17.6185 22.4266 20.6986 22.4266H22.6296C25.7093 22.4266 28.4611 20.667 29.7603 17.9063C30.4429 17.8645 31.0592 17.5738 31.52 17.1242C32.4877 18.5724 34.1135 19.4623 35.9131 19.4623C36.4853 19.4623 36.9506 18.9969 36.9506 18.4248V11.301C36.9506 8.87919 34.9807 6.90923 32.5589 6.90923H31.0385C30.7807 6.30377 30.1799 5.87827 29.4815 5.87827H29.1759C28.8694 5.87827 28.5725 5.96363 28.3151 6.11624C26.879 4.62089 24.8613 3.68848 22.6296 3.68848H20.6986C18.4626 3.68848 16.4416 4.62418 15.0052 6.12415C14.7452 5.9666 14.4433 5.87827 14.1298 5.87827H13.8246C13.1262 5.87827 12.5254 6.30377 12.2677 6.90923H10.7473C8.32576 6.90923 6.35547 8.87952 6.35547 11.301V18.4248C6.35514 18.9969 6.82085 19.4623 7.39302 19.4623ZM29.5899 16.6321C29.5477 16.6321 29.4999 16.6278 29.4393 16.6193C29.1476 16.5764 28.8651 16.7399 28.7551 17.0128C27.7409 19.5246 25.3365 21.1475 22.6293 21.1475H20.6982C17.9883 21.1475 15.583 19.5223 14.5705 17.0069C14.4716 16.7613 14.2346 16.6061 13.9776 16.6061C13.94 16.6061 13.9018 16.6094 13.8639 16.616C13.8045 16.6269 13.7511 16.6321 13.701 16.6321C12.8659 16.6321 12.1869 15.9528 12.1869 15.118V14.4031C12.1869 13.9011 12.5953 13.4928 13.0972 13.4928H13.4538C13.8072 13.4928 14.0936 13.2067 14.0936 12.8531V12.7799C15.3414 11.1965 17.2665 10.2572 19.2846 10.2572H24.0429C26.0613 10.2572 27.9861 11.1965 29.2343 12.7799V12.8531C29.2343 13.2064 29.5207 13.4928 29.874 13.4928H30.0329C30.6083 13.4928 31.0764 13.9608 31.0764 14.5366V15.1453C31.0767 15.965 30.4096 16.6321 29.5899 16.6321ZM35.6715 11.301V18.1759C34.185 18.0886 32.8851 17.1984 32.2662 15.8431C32.3242 15.62 32.3558 15.3863 32.3558 15.1453V14.5363C32.3558 14.0221 32.1861 13.5472 31.902 13.1619C31.902 13.1619 31.8947 11.9707 31.8799 11.8241C31.845 11.4727 31.5309 11.2156 31.1798 11.2516C30.8285 11.2865 30.5721 11.6 30.607 11.9516C30.6176 12.0558 30.6228 12.1622 30.6228 12.2674V12.2918C30.5866 12.2822 30.5507 12.2713 30.5137 12.2637V11.5723C30.5137 11.1613 30.4818 10.7575 30.4211 10.3633C30.8776 10.0555 31.1733 9.53408 31.1733 8.95961V8.18804H32.5589C34.275 8.18804 35.6715 9.58451 35.6715 11.301ZM29.1759 7.15741H29.4815C29.7089 7.15741 29.8938 7.34231 29.8938 7.5694V8.5084C29.6924 8.0328 29.4455 7.58093 29.1591 7.1584C29.1647 7.15807 29.1703 7.15741 29.1759 7.15741ZM20.6986 4.96761H22.6296C26.0458 4.96761 28.8645 7.57467 29.2007 10.9039C27.7801 9.67844 25.9466 8.97806 24.0432 8.97806H19.2849C17.3812 8.97806 15.5477 9.67844 14.1272 10.9039C14.4634 7.57467 17.282 4.96761 20.6986 4.96761ZM13.8243 7.15741H14.1298C14.1427 7.15741 14.1552 7.15873 14.1677 7.15972C13.8708 7.59774 13.6173 8.06741 13.4123 8.56179V7.5694C13.4123 7.34231 13.5972 7.15741 13.8243 7.15741ZM7.63461 11.301C7.63461 9.58451 9.03075 8.18804 10.7473 8.18804H12.1332V8.95961C12.1332 9.54661 12.4364 10.0733 12.9047 10.3775C12.8454 10.7674 12.8144 11.1662 12.8144 11.5723V12.2318C12.7703 12.2374 12.7268 12.245 12.6836 12.2532C12.6839 12.1527 12.6889 12.0521 12.6988 11.9533C12.734 11.6019 12.4776 11.2885 12.1263 11.2532C11.7749 11.218 11.4611 11.4744 11.4259 11.8257C11.4114 11.9714 11.4038 13.0169 11.4038 13.0169C11.094 13.3946 10.9078 13.8774 10.9078 14.4031V15.118C10.9078 15.3863 10.9463 15.6457 11.0175 15.8915C10.389 17.2181 9.0993 18.0892 7.63461 18.1759V11.301Z" fill="#9C5BFA"/>
<path d="M19.5359 13.8343C19.5359 14.36 19.11 14.7859 18.5843 14.7859C18.059 14.7859 17.6328 14.36 17.6328 13.8343C17.6328 13.309 18.059 12.8828 18.5843 12.8828C19.11 12.8828 19.5359 13.309 19.5359 13.8343Z" fill="#9C5BFA"/>
<path d="M25.698 13.8343C25.698 14.36 25.2718 14.7859 24.7464 14.7859C24.2208 14.7859 23.7949 14.36 23.7949 13.8343C23.7949 13.309 24.2208 12.8828 24.7464 12.8828C25.2718 12.8828 25.698 13.309 25.698 13.8343Z" fill="#9C5BFA"/>
<path d="M24.5356 15.4971H18.7925C18.5213 15.4971 18.2619 15.6128 18.0806 15.8151C17.899 16.0172 17.812 16.2881 17.8416 16.558C18.0549 18.5102 19.6982 19.9818 21.6639 19.9818C23.6299 19.9818 25.2732 18.5102 25.4865 16.558C25.5158 16.2881 25.4288 16.0172 25.2475 15.8148C25.0662 15.6128 24.8065 15.4971 24.5356 15.4971ZM21.6639 18.7027C20.4751 18.7027 19.4629 17.8965 19.1778 16.7762H24.1503C23.8652 17.8965 22.8531 18.7027 21.6639 18.7027Z" fill="#9C5BFA"/>
<path d="M41.3576 30.0414V29.3499C41.3576 25.0026 37.8211 21.4658 33.4738 21.4658H31.5427C27.1955 21.4658 23.6586 25.0026 23.6586 29.3499V30.0091C22.5845 30.1485 21.752 31.0691 21.752 32.1808V32.8953C21.752 34.3913 22.9339 35.6161 24.4131 35.6856C25.7123 38.4453 28.4627 40.204 31.5427 40.204H33.4738C36.5535 40.204 39.3053 38.4443 40.6045 35.6837C42.0507 35.5953 43.2 34.391 43.2 32.923V32.3139C43.2 31.1979 42.4087 30.2632 41.3576 30.0414ZM31.5427 22.745H33.4738C36.89 22.745 39.7087 25.3523 40.0448 28.6815C38.6243 27.4558 36.7908 26.7554 34.8874 26.7554H30.1291C28.2258 26.7554 26.3922 27.4558 24.9717 28.6815C25.3076 25.3523 28.1262 22.745 31.5427 22.745ZM41.9209 32.923C41.9209 33.7427 41.2541 34.4095 40.4341 34.4095C40.3919 34.4095 40.3441 34.4055 40.2835 34.3969C39.9918 34.3541 39.7097 34.5172 39.5992 34.7905C38.5851 37.3023 36.1807 38.9249 33.4738 38.9249H31.5427C28.8325 38.9249 26.4272 37.2996 25.4147 34.7845C25.3158 34.539 25.0788 34.3834 24.8218 34.3834C24.7842 34.3834 24.7459 34.3867 24.708 34.3937C24.6487 34.4045 24.5957 34.4095 24.5452 34.4095C23.7104 34.4095 23.0311 33.7305 23.0311 32.8953V32.1808C23.0311 31.6788 23.4395 31.2705 23.9414 31.2705H24.298C24.6514 31.2705 24.9378 30.984 24.9378 30.6307V30.5572C26.1859 28.9742 28.1107 28.0349 30.1291 28.0349H34.8871C36.9055 28.0349 38.8303 28.9742 40.0785 30.5572V30.6307C40.0785 30.984 40.3649 31.2705 40.7182 31.2705H40.8771C41.4525 31.2705 41.9209 31.7385 41.9209 32.3139V32.923Z" fill="#9C5BFA"/>
<path d="M30.378 31.6117C30.378 32.1374 29.9518 32.5632 29.4265 32.5632C28.9008 32.5632 28.4746 32.1374 28.4746 31.6117C28.4746 31.0863 28.9008 30.6602 29.4265 30.6602C29.9518 30.6602 30.378 31.0863 30.378 31.6117Z" fill="#9C5BFA"/>
<path d="M36.5398 31.6117C36.5398 32.1374 36.1139 32.5632 35.5882 32.5632C35.0625 32.5632 34.6367 32.1374 34.6367 31.6117C34.6367 31.0863 35.0625 30.6602 35.5882 30.6602C36.1139 30.6602 36.5398 31.0863 36.5398 31.6117Z" fill="#9C5BFA"/>
<path d="M35.3793 33.2754H29.6362C29.365 33.2754 29.1056 33.3914 28.9243 33.5934C28.7431 33.7958 28.6557 34.0667 28.6854 34.3367C28.8986 36.2885 30.5416 37.7604 32.5076 37.7604C34.4736 37.7604 36.117 36.2885 36.3302 34.337C36.3599 34.0667 36.2729 33.7958 36.0916 33.5938C35.91 33.3914 35.6506 33.2754 35.3793 33.2754ZM32.5076 36.4813C31.3185 36.4813 30.3063 35.6748 30.0215 34.5549H34.9941C34.709 35.6748 33.6968 36.4813 32.5076 36.4813Z" fill="#9C5BFA"/>
<path d="M19.606 30.0411V29.3499C19.606 25.0026 16.0692 21.4658 11.7219 21.4658H9.7908C5.44351 21.4658 1.90668 25.0026 1.90668 29.3499V30.0094C0.832544 30.1485 0 31.0694 0 32.1808V32.8953C0 34.3913 1.18191 35.6164 2.66111 35.6856C3.96035 38.4456 6.71078 40.2043 9.7908 40.2043H11.7219C14.8019 40.2043 17.5533 38.4443 18.8525 35.6837C20.2985 35.5953 21.4481 34.3907 21.4481 32.923V32.3139C21.4481 31.198 20.6567 30.2632 19.606 30.0411ZM20.1689 32.923C20.1689 33.7427 19.5018 34.4095 18.6821 34.4095C18.64 34.4095 18.5922 34.4055 18.5315 34.3969C18.2405 34.3541 17.9574 34.5173 17.8473 34.7905C16.8331 37.3023 14.4288 38.9249 11.7215 38.9249H9.79047C7.08058 38.9249 4.67523 37.2996 3.66273 34.7845C3.56385 34.539 3.32688 34.3834 3.0698 34.3834C3.03223 34.3834 2.99432 34.3867 2.95609 34.3937C2.89677 34.4045 2.84337 34.4095 2.79327 34.4095C1.95842 34.4095 1.27914 33.7305 1.27914 32.8953V32.1808C1.27914 31.6788 1.6875 31.2705 2.18947 31.2705H2.54608C2.8994 31.2705 3.18582 30.984 3.18582 30.6307V30.5572C4.43397 28.9742 6.35878 28.0349 8.37718 28.0349H13.1355C13.5702 28.0349 14.0046 28.0771 14.4268 28.1608C14.7732 28.2297 15.1097 28.0042 15.1786 27.6578C15.2472 27.3114 15.022 26.9746 14.6753 26.906C14.1717 26.8062 13.6533 26.7554 13.1355 26.7554H8.37718C6.4738 26.7554 4.6403 27.4558 3.21943 28.6815C3.55562 25.3523 6.37427 22.745 9.7908 22.745H11.7219C15.1371 22.745 17.9551 25.3507 18.2926 28.6782C17.9979 28.4231 17.6848 28.1888 17.3529 27.9779C17.0546 27.7887 16.6594 27.877 16.4699 28.1753C16.2808 28.4736 16.3691 28.8687 16.6674 29.0579C17.3045 29.4623 17.8608 29.9676 18.3265 30.5595V30.6307C18.3265 30.984 18.6129 31.2701 18.9662 31.2701H19.1251C19.7006 31.2701 20.1689 31.7385 20.1689 32.3139V32.923Z" fill="#9C5BFA"/>
<path d="M8.62604 31.6117C8.62604 32.1374 8.19988 32.5632 7.67451 32.5632C7.14882 32.5632 6.72266 32.1374 6.72266 31.6117C6.72266 31.0863 7.14882 30.6602 7.67451 30.6602C8.19988 30.6602 8.62604 31.0863 8.62604 31.6117Z" fill="#9C5BFA"/>
<path d="M14.7878 31.6117C14.7878 32.1374 14.362 32.5632 13.8363 32.5632C13.3109 32.5632 12.8848 32.1374 12.8848 31.6117C12.8848 31.0863 13.3109 30.6602 13.8363 30.6602C14.362 30.6602 14.7878 31.0863 14.7878 31.6117Z" fill="#9C5BFA"/>
<path d="M13.6274 33.2754H7.8843C7.61305 33.2754 7.35366 33.3914 7.17239 33.5934C6.99079 33.7958 6.90377 34.0667 6.93344 34.3367C7.14668 36.2885 8.79002 37.7604 10.7557 37.7604C12.7217 37.7604 14.365 36.2885 14.5783 34.3367C14.6076 34.0667 14.5206 33.7958 14.3393 33.5934C14.158 33.3914 13.8987 33.2754 13.6274 33.2754ZM10.7557 36.4813C9.56686 36.4813 8.55469 35.6748 8.26959 34.5549H13.2421C12.957 35.6751 11.9448 36.4813 10.7557 36.4813Z" fill="#9C5BFA"/>
</g>
<defs>
<clipPath id="clip0_2688_18033">
<rect width="43.2" height="43.2" fill="white" transform="translate(0 0.313477)"/>
</clipPath>
</defs>
</svg>
