<svg viewBox="0 0 40 40" fill="none" xmlns="http://www.w3.org/2000/svg">
<path d="M12.9528 4.06563L14.7471 3.49228C16.4285 2.95503 18.2249 3.82328 18.945 5.52118L20.3779 8.90009C21.0023 10.3725 20.6558 12.104 19.5212 13.1809L16.364 16.1776C16.5588 17.9701 17.1613 19.7351 18.1716 21.4726C19.1818 23.2101 20.4435 24.6514 21.9567 25.7966L25.7487 24.5321C27.186 24.0528 28.7513 24.6036 29.633 25.8989L31.6869 28.9165C32.7118 30.4222 32.5275 32.4994 31.2558 33.7761L29.8929 35.1443C28.5364 36.5062 26.5988 37.0002 24.8065 36.4411C20.575 35.1212 16.6845 31.2025 13.1349 24.6851C9.5801 18.1581 8.32551 12.6205 9.37114 8.07213C9.81113 6.15827 11.1737 4.63414 12.9528 4.06563Z" fill="#BCC6D6"/>
</svg>
