<svg fill="none" xmlns="http://www.w3.org/2000/svg">
<g filter="url(#filter0_d_2688_18022)">
<path d="M69.0004 65.1885C67.7477 65.187 66.5467 64.6888 65.6609 63.803C64.7751 62.9172 64.2768 61.7162 64.2754 60.4635V59.7885C64.2754 58.5353 64.7732 57.3335 65.6593 56.4474C66.5454 55.5613 67.7472 55.0635 69.0004 55.0635C70.2535 55.0635 71.4554 55.5613 72.3415 56.4474C73.2276 57.3335 73.7254 58.5353 73.7254 59.7885V60.4635C73.724 61.7162 73.2257 62.9172 72.3399 63.803C71.4541 64.6888 70.2531 65.187 69.0004 65.1885ZM69.0004 56.4135C68.1056 56.4145 67.2478 56.7705 66.6151 57.4032C65.9824 58.0359 65.6265 58.8937 65.6254 59.7885V60.4635C65.6254 61.3586 65.981 62.217 66.6139 62.85C67.2468 63.4829 68.1053 63.8385 69.0004 63.8385C69.8955 63.8385 70.7539 63.4829 71.3869 62.85C72.0198 62.217 72.3754 61.3586 72.3754 60.4635V59.7885C72.3743 58.8937 72.0184 58.0359 71.3857 57.4032C70.753 56.7705 69.8952 56.4145 69.0004 56.4135Z" fill="#FF693A"/>
<path d="M77.7746 71.2633H76.4246V69.2383C76.4246 68.7012 76.2113 68.1862 75.8315 67.8064C75.4517 67.4266 74.9367 67.2133 74.3996 67.2133H63.5996C63.0625 67.2133 62.5475 67.4266 62.1677 67.8064C61.788 68.1862 61.5746 68.7012 61.5746 69.2383V71.2633H60.2246V69.2383C60.2257 68.3435 60.5816 67.4857 61.2143 66.853C61.847 66.2203 62.7048 65.8644 63.5996 65.8633H74.3996C75.2944 65.8644 76.1522 66.2203 76.7849 66.853C77.4176 67.4857 77.7735 68.3435 77.7746 69.2383V71.2633Z" fill="#FF693A"/>
<path d="M73.1709 84.7631C73.0615 84.763 72.9538 84.7364 72.857 84.6855L68.9994 82.6605L65.1418 84.6855C65.0303 84.7441 64.9047 84.7704 64.7791 84.7613C64.6534 84.7522 64.5329 84.7082 64.431 84.6342C64.3291 84.5601 64.2499 84.4591 64.2024 84.3424C64.155 84.2258 64.1411 84.0982 64.1624 83.974L64.8988 79.6844L61.7783 76.6469C61.688 76.559 61.6242 76.4476 61.5939 76.3253C61.5637 76.203 61.5683 76.0747 61.6072 75.9549C61.6461 75.8351 61.7178 75.7285 61.8141 75.6473C61.9104 75.5661 62.0275 75.5135 62.1522 75.4954L66.4655 74.869L68.3919 70.9641C68.4541 70.859 68.5425 70.7719 68.6486 70.7114C68.7546 70.651 68.8746 70.6191 68.9967 70.6191C69.1188 70.6191 69.2388 70.651 69.3448 70.7114C69.4509 70.7719 69.5394 70.859 69.6015 70.9641L71.5307 74.8676L75.8439 75.494C75.9686 75.5121 76.0857 75.5648 76.182 75.646C76.2783 75.7272 76.35 75.8337 76.3889 75.9535C76.4278 76.0733 76.4324 76.2017 76.4022 76.324C76.372 76.4463 76.3081 76.5577 76.2179 76.6456L73.0973 79.6831L73.8338 83.9727C73.8506 84.0695 73.846 84.1687 73.8205 84.2636C73.795 84.3584 73.749 84.4466 73.6859 84.5218C73.6228 84.5971 73.544 84.6577 73.4551 84.6994C73.3661 84.741 73.2691 84.7628 73.1709 84.7631ZM68.9994 81.2221C69.1088 81.222 69.2166 81.2486 69.3133 81.2997L72.2745 82.8522L71.7095 79.5656C71.6906 79.4578 71.6984 79.347 71.7322 79.2429C71.766 79.1387 71.8247 79.0445 71.9033 78.9682L74.2982 76.6368L70.9907 76.1562C70.8824 76.1405 70.7795 76.0986 70.691 76.0343C70.6024 75.97 70.5308 75.8851 70.4824 75.787L68.9994 72.7866L67.5185 75.7856C67.47 75.8838 67.3984 75.9686 67.3099 76.033C67.2214 76.0973 67.1185 76.1391 67.0102 76.1548L63.7027 76.6354L66.0969 78.9649C66.1755 79.0411 66.2342 79.1354 66.268 79.2395C66.3017 79.3436 66.3095 79.4544 66.2906 79.5622L65.7257 82.8549L68.6869 81.3024C68.783 81.2506 68.8903 81.223 68.9994 81.2221Z" fill="#FF693A"/>
<path d="M87.3467 81.3881C87.2373 81.388 87.1296 81.3614 87.0328 81.3105L83.1752 79.2855L79.3176 81.3105C79.2061 81.3691 79.0804 81.3954 78.9548 81.3863C78.8292 81.3772 78.7086 81.3332 78.6067 81.2592C78.5049 81.1851 78.4257 81.0841 78.3782 80.9674C78.3308 80.8508 78.3169 80.7232 78.3381 80.599L79.0746 76.3094L75.954 73.2719C75.8638 73.184 75.7999 73.0726 75.7697 72.9503C75.7395 72.828 75.7441 72.6997 75.783 72.5799C75.8219 72.4601 75.8936 72.3535 75.9899 72.2723C76.0862 72.1911 76.2033 72.1385 76.328 72.1204L80.6412 71.494L82.5677 67.5891C82.6298 67.484 82.7183 67.3969 82.8244 67.3364C82.9304 67.276 83.0504 67.2441 83.1725 67.2441C83.2946 67.2441 83.4146 67.276 83.5206 67.3364C83.6267 67.3969 83.7151 67.484 83.7773 67.5891L85.7064 71.4926L90.0197 72.119C90.1444 72.1371 90.2615 72.1898 90.3578 72.271C90.4541 72.3522 90.5258 72.4587 90.5647 72.5785C90.6036 72.6983 90.6082 72.8267 90.578 72.949C90.5477 73.0713 90.4839 73.1827 90.3936 73.2706L87.2731 76.3081L88.0095 80.5977C88.0263 80.6945 88.0218 80.7937 87.9963 80.8886C87.9707 80.9834 87.9248 81.0716 87.8617 81.1468C87.7986 81.2221 87.7198 81.2827 87.6308 81.3244C87.5419 81.366 87.4449 81.3878 87.3467 81.3881ZM83.1752 77.8471C83.2846 77.847 83.3923 77.8736 83.4891 77.9247L86.4503 79.4772L85.8853 76.1906C85.8664 76.0828 85.8742 75.972 85.908 75.8679C85.9417 75.7637 86.0005 75.6695 86.079 75.5932L88.4739 73.2618L85.1664 72.7812C85.0581 72.7655 84.9553 72.7236 84.8667 72.6593C84.7782 72.595 84.7066 72.5101 84.6582 72.412L83.1752 69.4116L81.6942 72.4106C81.6458 72.5088 81.5742 72.5936 81.4857 72.658C81.3971 72.7223 81.2943 72.7641 81.186 72.7798L77.8785 73.2604L80.2727 75.5899C80.3513 75.6661 80.41 75.7604 80.4438 75.8645C80.4775 75.9686 80.4853 76.0794 80.4664 76.1872L79.9014 79.4799L82.8627 77.9274C82.9588 77.8756 83.066 77.848 83.1752 77.8471Z" fill="#FF693A"/>
<path d="M58.9965 81.3881C58.8871 81.388 58.7794 81.3614 58.6826 81.3105L56.5361 80.1832L54.825 79.2848L50.9674 81.3098C50.8559 81.3684 50.7302 81.3947 50.6046 81.3856C50.479 81.3765 50.3584 81.3325 50.2565 81.2585C50.1546 81.1845 50.0755 81.0834 50.028 80.9668C49.9805 80.8501 49.9667 80.7225 49.9879 80.5984L50.7244 76.3087L47.6025 73.2706C47.5122 73.1827 47.4484 73.0713 47.4182 72.949C47.3879 72.8267 47.3925 72.6983 47.4314 72.5785C47.4703 72.4587 47.542 72.3522 47.6383 72.271C47.7346 72.1898 47.8518 72.1371 47.9764 72.119L52.2897 71.4926L54.2175 67.5891C54.2796 67.484 54.3681 67.3969 54.4742 67.3364C54.5802 67.276 54.7002 67.2441 54.8223 67.2441C54.9444 67.2441 55.0644 67.276 55.1704 67.3364C55.2765 67.3969 55.3649 67.484 55.4271 67.5891L57.3562 71.4926L61.6695 72.119C61.7942 72.1371 61.9113 72.1898 62.0076 72.271C62.1039 72.3522 62.1756 72.4587 62.2145 72.5785C62.2534 72.6983 62.258 72.8267 62.2278 72.949C62.1975 73.0713 62.1337 73.1827 62.0434 73.2706L58.9229 76.3081L59.6593 80.5977C59.6761 80.6945 59.6716 80.7937 59.6461 80.8886C59.6205 80.9834 59.5746 81.0716 59.5115 81.1468C59.4484 81.2221 59.3696 81.2827 59.2806 81.3244C59.1917 81.366 59.0947 81.3878 58.9965 81.3881ZM57.1639 78.9885L58.1001 79.4799L57.5351 76.1906C57.5162 76.0828 57.524 75.972 57.5578 75.8679C57.5915 75.7637 57.6503 75.6695 57.7288 75.5932L60.1237 73.2618L56.8162 72.7812C56.7079 72.7655 56.6051 72.7236 56.5165 72.6593C56.428 72.595 56.3564 72.5101 56.308 72.412L54.825 69.4116L53.344 72.4106C53.2956 72.5088 53.224 72.5936 53.1355 72.658C53.0469 72.7223 52.9441 72.7641 52.8358 72.7798L49.5283 73.2604L51.9225 75.5899C52.0011 75.6661 52.0598 75.7604 52.0936 75.8645C52.1273 75.9686 52.1351 76.0794 52.1162 76.1872L51.5512 79.4799L54.5125 77.9274C54.6093 77.8765 54.717 77.85 54.8263 77.85C54.9357 77.85 55.0434 77.8765 55.1402 77.9274L57.1639 78.9885Z" fill="#FF693A"/>
</g>
</svg>

