<svg viewBox="0 0 251 146" fill="none" xmlns="http://www.w3.org/2000/svg">
<g clip-path="url(#clip0_2688_17875)">
<path d="M120.7 26.4396C120.414 28.8504 111.742 26.127 111.149 24.8434C112.465 22.4897 111.92 19.9136 111.492 17.4036C111.248 15.9938 110.612 13.562 110.974 12.3115C111.251 11.3526 112.299 11.2053 113.134 12.5219C113.42 12.9728 113.805 14.1812 113.805 14.1812C115.438 12.1432 115.302 9.22136 116.549 6.99994C117.315 6.14023 118.303 6.90375 118.303 7.90173C118.486 7.41176 118.685 6.66327 119.173 6.41377C119.616 6.18833 120.3 6.20937 120.541 6.71137C120.688 7.01497 120.965 7.70935 120.794 8.04001C120.983 7.67628 121.456 7.51396 121.851 7.62218C122.869 7.90173 122.968 9.43178 122.794 10.2765C123.514 9.90672 124.324 10.1712 124.697 10.8927C125.188 11.8396 124.987 13.1502 124.929 14.1782C124.863 15.3596 124.71 16.5379 124.466 17.6952C123.806 20.8154 122.158 23.647 120.697 26.4366L120.7 26.4396Z" fill="#FFC6BF"/>
<path d="M12.8581 107.036C14.5449 108.786 19.8042 101.385 19.5 100.002C17.0239 98.9231 15.9004 96.5394 14.7196 94.2849C14.0599 93.0134 13.09 90.6928 12.0478 89.9172C11.2466 89.322 10.3218 89.8331 10.4543 91.3871C10.4995 91.9192 10.9243 93.1126 10.9243 93.1126C8.391 92.4753 6.72827 90.0645 4.38779 89.0455C3.25822 88.823 2.9329 90.0284 3.53836 90.822C3.09556 90.5425 2.48409 90.0675 1.94491 90.1637C1.45693 90.2509 0.923772 90.6807 1.03522 91.2278C1.1045 91.5585 1.3003 92.2799 1.63766 92.4392C1.26716 92.2619 0.791236 92.4182 0.541224 92.7428C-0.100373 93.5815 0.746053 94.8591 1.39669 95.4242C0.598455 95.5624 0.113493 96.2659 0.252053 97.0624C0.435797 98.1115 1.39066 99.0374 2.05636 99.8189C2.82447 100.721 3.65884 101.565 4.55648 102.341C6.96924 104.427 9.99951 105.69 12.8551 107.03L12.8581 107.036Z" fill="#FFC6BF"/>
<path d="M87.4661 55.8502C77.9777 50.4034 65.1819 48.9335 55.2537 53.9354C53.9976 54.8192 55.2657 57.8853 55.3441 59.2169C55.9676 63.7109 52.8198 66.9784 49.2835 69.2449C37.1534 78.6145 54.8952 86.1415 63.742 84.9692C70.2604 84.4161 77.4566 83.2798 82.8574 79.3841C84.6165 77.86 85.8244 75.7558 87.689 74.3641C91.7554 72.4162 93.9513 68.9323 93.2706 64.285C93.2013 60.5125 90.7283 57.5606 87.4691 55.8533L87.4661 55.8502Z" fill="#4C3923"/>
<path d="M55.9354 127.206C55.9354 127.206 53.357 137.908 53.7546 145.822H109.188L106.212 119.177L55.9354 127.206Z" fill="#3C5982"/>
<path d="M108.974 111.016C109.187 118.098 109.187 126.533 109.187 126.533L52.4739 128.974L53.7451 109.378C48.9286 114.617 42.5006 118.772 35.5936 119.21C30.2771 119.55 13.1016 107.758 13.1016 107.758L16.2553 98.9562L32.5483 100.88C40.5276 87.281 51.4227 76.5977 64.5317 71.8333C64.7396 71.7551 64.9444 71.683 65.1553 71.6108C65.5679 71.4665 65.9836 71.3283 66.4023 71.196C69.0259 70.3694 71.7399 69.7742 74.5322 69.4435C78.3005 68.9926 82.2525 68.0728 86.0298 65.7311C87.1232 65.0518 88.3672 63.7322 89.7167 61.9556C89.9697 61.625 90.2227 61.2763 90.4788 60.9125C90.6023 60.7412 90.7227 60.5639 90.8462 60.3895C97.8647 50.2233 107.401 30.2786 111.898 22.5713L121.537 25.8478C121.537 25.8478 111.588 62.4997 106.983 90.5034C106.983 90.5034 108.787 104.728 108.977 111.013L108.974 111.016Z" fill="#B7CEDD"/>
<path d="M96.6649 56.7882C95.5654 58.9045 92.7249 60.6119 90.8664 59.7071C89.0079 58.8023 89.3784 55.9736 90.27 53.7492C91.1616 51.5248 93.5171 49.8294 95.3757 50.7342C97.2342 51.639 97.8306 54.5518 96.6679 56.7882H96.6649Z" fill="#FFE5DC"/>
<path d="M93.2324 47.5115C93.2595 48.3652 93.2173 49.3271 93.2986 50.0606C93.7083 53.7129 94.1601 55.4473 94.7625 57.8731C95.1481 59.4242 95.9704 63.8881 93.6269 66.8039C90.4913 70.7087 86.3947 73.4471 81.6143 74.1625C73.62 75.3589 71.4421 73.5493 69.4059 72.7287C58.2397 68.2257 58.0409 49.0476 57.4746 47.2741L69.8638 38.2171L84.6115 37.5527L93.2324 47.5085V47.5115Z" fill="#FFE5DC"/>
<path d="M84.9307 54.8343C85.0451 55.5437 85.6054 56.0337 86.1837 55.9285C86.7621 55.8233 87.1386 55.165 87.0241 54.4556C86.9097 53.7462 86.3494 53.2562 85.7711 53.3614C85.1927 53.4666 84.8162 54.1249 84.9307 54.8343Z" fill="#050505"/>
<path d="M70.6865 57.828C70.801 58.5374 71.3612 59.0274 71.9396 58.9221C72.5179 58.8169 72.8945 58.1586 72.78 57.4492C72.6655 56.7398 72.1053 56.2498 71.5269 56.355C70.9486 56.4602 70.572 57.1186 70.6865 57.828Z" fill="#050505"/>
<path d="M83.6928 62.2648C82.6898 62.1085 78.1956 63.0553 76.6262 63.5423C76.307 63.6415 76.1684 64.0143 76.3341 64.3118C77.0269 65.5533 78.5269 68.397 82.259 67.1916C84.1748 66.5723 84.1296 63.7106 84.0513 62.7247C84.0332 62.5113 83.8977 62.2948 83.6928 62.2618V62.2648Z" fill="#EE9393"/>
<path d="M57.4734 36.2214C61.6874 30.5341 73.1639 27.8648 81.336 29.007C90.6196 30.3056 97.0325 40.3516 93.6046 52.105C93.5534 49.6882 92.1769 46.09 90.4177 44.4006C86.4868 43.7544 82.0649 43.7574 78.4623 41.5179C79.9745 43.6281 82.1734 44.1061 84.6404 44.9147C74.3778 48.9307 68.2299 36.9458 69.6697 41.04C70.7361 44.073 71.0855 48.0108 67.7329 50.3344C67.2781 45.8405 65.4587 44.3886 65.4587 44.3886C67.0913 50.7012 64.543 55.3364 60.7627 59.6229C60.0789 61.2191 61.8923 62.8002 61.3169 64.1559C60.7205 65.5537 59.1964 64.1259 58.6481 63.4976C52.8286 57.0799 51.8466 42.8135 57.4734 36.2214Z" fill="#4C3923"/>
<path d="M80.0627 60.2572C80.2133 60.0167 80.3278 59.7402 80.376 59.4576C80.4211 59.2081 80.4904 58.8444 80.3127 58.631C80.2253 58.5288 80.1019 58.4566 79.9994 58.3755C79.8729 58.2763 79.7494 58.1711 79.632 58.0598C79.385 57.8284 79.159 57.5819 78.9572 57.3144C78.662 56.9236 79.2343 56.4426 79.5295 56.8334C79.7494 57.125 79.9934 57.3925 80.2675 57.627C80.5537 57.8705 80.9031 58.0659 81.0597 58.4296C81.2134 58.7873 81.1832 59.2322 81.1079 59.6049C81.0266 60.0017 80.882 60.3684 80.6712 60.7081C80.4151 61.1199 79.8097 60.669 80.0657 60.2602L80.0627 60.2572Z" fill="black"/>
<path d="M86.6392 50.217C85.7927 49.3513 84.4282 49.1559 83.38 49.712C83.1239 49.8472 82.9402 49.4294 83.1932 49.2941C84.4312 48.6419 85.9976 48.9214 86.9825 49.9284C87.1874 50.1388 86.841 50.4244 86.6392 50.217Z" fill="black"/>
<path d="M68.285 53.8632C68.9718 52.5887 69.9809 51.3082 71.5321 51.2871C71.6526 51.2871 71.74 51.4284 71.7309 51.5396C71.7189 51.6749 71.6044 51.738 71.4839 51.741C70.1194 51.7591 69.2368 53.0366 68.6465 54.1338C68.5079 54.3893 68.1464 54.1187 68.285 53.8632Z" fill="black"/>
<path d="M58.2717 65.0728C59.9796 66.7381 63.2147 67.4746 64.6937 66.0347C66.1757 64.5949 64.9377 62.0248 63.3955 60.1881C61.8502 58.3515 59.085 57.4767 57.603 58.9166C56.121 60.3565 56.4674 63.3083 58.2717 65.0698V65.0728Z" fill="#FFE5DC"/>
<path d="M82.153 100.468C82.153 99.8907 81.6861 99.4248 81.1077 99.4248C80.5294 99.4248 80.0625 99.8907 80.0625 100.468C80.0625 101.045 80.5294 101.511 81.1077 101.511C81.6861 101.511 82.153 101.045 82.153 100.468Z" fill="white"/>
<path d="M81.4202 111.696C81.9975 111.696 82.4655 111.229 82.4655 110.652C82.4655 110.076 81.9975 109.609 81.4202 109.609C80.843 109.609 80.375 110.076 80.375 110.652C80.375 111.229 80.843 111.696 81.4202 111.696Z" fill="white"/>
<path d="M81.4202 121.323C81.9975 121.323 82.4655 120.856 82.4655 120.28C82.4655 119.704 81.9975 119.237 81.4202 119.237C80.843 119.237 80.375 119.704 80.375 120.28C80.375 120.856 80.843 121.323 81.4202 121.323Z" fill="white"/>
<path d="M56.3962 135.797C59.1825 134.171 61.6645 132.061 63.7128 129.572C63.8966 129.35 63.5773 129.028 63.3935 129.253C61.3693 131.715 58.9234 133.802 56.1673 135.41C55.9173 135.557 56.1432 135.945 56.3962 135.8V135.797Z" fill="#2B2B2B"/>
<path d="M70.977 35.0548C73.212 37.2131 76.0224 38.7281 79.0587 39.4015C79.3418 39.4646 79.4623 39.0287 79.1792 38.9656C76.2152 38.3073 73.4801 36.8404 71.2963 34.7332C71.0884 34.5318 70.7661 34.8504 70.977 35.0518V35.0548Z" fill="#2B2B2B"/>
<path d="M75.9308 34.7032C78.7472 35.4397 81.5967 36.0379 84.4734 36.5008C84.7565 36.5459 84.88 36.113 84.5938 36.0649C81.7202 35.605 78.8677 35.0038 76.0513 34.2674C75.7711 34.1952 75.6506 34.6281 75.9308 34.7032Z" fill="#2B2B2B"/>
<path d="M60.4041 42.0169C60.618 45.3896 60.8198 48.9938 59.2264 52.0929C59.0938 52.3514 59.4824 52.5799 59.618 52.3214C61.2536 49.141 61.0759 45.4798 60.859 42.0169C60.8409 41.7283 60.3891 41.7253 60.4072 42.0169H60.4041Z" fill="#2B2B2B"/>
<path d="M80.2908 75.7139C77.9292 75.7771 75.7243 74.6618 73.4531 74.1298L73.9562 80.8211C75.5556 80.268 77.1039 79.1678 78.7456 78.9033C79.0739 79.0145 79.3209 79.2339 79.6944 79.3061C80.4595 79.4624 81.2547 79.27 81.8933 78.8792C83.3331 79.6307 85.1404 80.2019 86.5803 80.9203V74.1147C84.4808 74.5506 82.3752 75.5666 80.2878 75.7139H80.2908Z" fill="#7185A6"/>
<path d="M78.592 76.5467C78.4474 77.0998 78.3962 77.6739 78.4564 78.242C78.4685 78.3623 78.5498 78.4675 78.6823 78.4675C78.7938 78.4675 78.9203 78.3653 78.9083 78.242C78.854 77.713 78.8932 77.1809 79.0287 76.6669C79.0589 76.5497 78.9896 76.4234 78.8721 76.3904C78.7546 76.3573 78.6251 76.4294 78.595 76.5467H78.592Z" fill="#2B2B2B"/>
<path d="M81.3617 76.7781C81.5937 77.3131 81.6178 77.9203 81.4521 78.4764C81.3678 78.756 81.8045 78.8732 81.8889 78.5967C82.0937 77.9173 82.0365 77.1989 81.7533 76.5526C81.7051 76.4414 81.5395 76.4143 81.4431 76.4714C81.3286 76.5376 81.3136 76.6668 81.3617 76.7811V76.7781Z" fill="#2B2B2B"/>
<path d="M236.943 108.027C235.091 109.602 230.584 101.723 231.024 100.377C233.594 99.5441 234.946 97.2836 236.344 95.1523C237.127 93.953 238.317 91.7375 239.431 91.0672C240.287 90.5532 241.157 91.1544 240.871 92.6874C240.775 93.2135 240.235 94.3588 240.235 94.3588C242.82 93.971 244.712 91.7375 247.142 90.953C248.287 90.8418 248.495 92.0712 247.814 92.8047C248.284 92.5672 248.938 92.1584 249.465 92.3057C249.944 92.4379 250.429 92.9189 250.263 93.451C250.164 93.7756 249.896 94.473 249.543 94.5992C249.929 94.461 250.39 94.6624 250.603 95.0111C251.161 95.9068 250.191 97.0972 249.486 97.5962C250.266 97.8126 250.679 98.5581 250.465 99.3397C250.179 100.368 249.139 101.191 248.398 101.907C247.546 102.73 246.63 103.488 245.663 104.173C243.055 106.013 239.919 106.972 236.943 108.03V108.027Z" fill="#FFC6BF"/>
<path d="M129.477 26.5739C129.763 28.9847 138.435 26.2613 139.029 24.9777C137.712 22.624 138.258 20.0479 138.685 17.5379C138.929 16.1281 139.565 13.6963 139.203 12.4458C138.926 11.4869 137.878 11.3396 137.044 12.6562C136.758 13.1071 136.372 14.3155 136.372 14.3155C134.739 12.2774 134.875 9.35563 133.628 7.13422C132.866 6.27451 131.875 7.03803 131.875 8.03601C131.691 7.54604 131.492 6.79755 131.004 6.54805C130.561 6.3226 129.878 6.34364 129.637 6.84564C129.489 7.14925 129.212 7.84363 129.384 8.17429C129.194 7.81056 128.721 7.64824 128.326 7.75645C127.308 8.03601 127.209 9.56605 127.384 10.4107C126.664 10.041 125.853 10.3055 125.48 11.027C124.989 11.9738 125.191 13.2844 125.248 14.3125C125.314 15.4938 125.468 16.6722 125.712 17.8295C126.372 20.9497 128.019 23.7813 129.48 26.5709L129.477 26.5739Z" fill="#FFC6BF"/>
<path d="M194.243 127.34C194.243 127.34 196.821 138.042 196.424 145.957H140.99L143.966 119.312L194.243 127.34Z" fill="#3C5982"/>
<path d="M141.204 111.15C140.991 118.232 140.991 126.667 140.991 126.667L197.704 129.111L196.433 109.515C201.25 114.755 207.678 118.909 214.585 119.348C219.901 119.687 237.077 107.895 237.077 107.895L233.923 99.0934L217.63 101.017C209.651 87.4182 198.755 76.7349 185.646 71.9705C185.439 71.8923 185.234 71.8202 185.023 71.748C184.61 71.6037 184.195 71.4655 183.776 71.3332C181.152 70.5066 178.438 69.9114 175.646 69.5807C171.878 69.1298 167.926 68.21 164.148 65.8683C163.055 65.189 161.811 63.8694 160.461 62.0928C160.208 61.7622 159.955 61.4135 159.699 61.0498C159.576 60.8784 159.455 60.7011 159.332 60.5267C152.313 50.3605 142.777 30.4158 138.28 22.7085L128.641 25.985C128.641 25.985 138.59 62.6369 143.196 90.6406C143.196 90.6406 141.391 104.865 141.201 111.15H141.204Z" fill="#DFCAA5"/>
<path d="M153.513 56.9225C154.612 59.0387 157.453 60.7461 159.311 59.8413C161.17 58.9365 160.799 56.1079 159.908 53.8835C159.016 51.6591 156.661 49.9637 154.802 50.8685C152.943 51.7733 152.347 54.6861 153.51 56.9225H153.513Z" fill="#FFE5DC"/>
<path d="M156.946 47.6458C156.919 48.4995 156.961 49.4614 156.88 50.1949C156.47 53.8472 156.019 55.5816 155.416 58.0074C155.031 59.5585 154.208 64.0224 156.552 66.9382C159.687 70.8429 163.784 73.5814 168.564 74.2968C176.559 75.4932 178.736 73.6836 180.773 72.863C191.939 68.36 192.138 49.1819 192.704 47.4083L180.315 38.3513L165.567 37.687L156.946 47.6428V47.6458Z" fill="#FFE5DC"/>
<path d="M165.247 54.9686C165.132 55.678 164.572 56.168 163.994 56.0628C163.415 55.9576 163.039 55.2993 163.153 54.5898C163.268 53.8804 163.828 53.3905 164.406 53.4957C164.985 53.6009 165.361 54.2592 165.247 54.9686Z" fill="#050505"/>
<path d="M179.493 57.9622C179.378 58.6717 178.818 59.1616 178.24 59.0564C177.661 58.9512 177.285 58.2929 177.399 57.5835C177.514 56.8741 178.074 56.3841 178.652 56.4893C179.231 56.5945 179.607 57.2528 179.493 57.9622Z" fill="#050505"/>
<path d="M166.486 62.399C167.489 62.2427 171.98 63.1896 173.553 63.6766C173.872 63.7758 174.01 64.1485 173.845 64.4461C173.152 65.6876 171.652 68.5312 167.92 67.3258C166.004 66.7066 166.049 63.8449 166.127 62.859C166.146 62.6455 166.281 62.4291 166.486 62.396V62.399Z" fill="#EE9393"/>
<path d="M194.037 37.0949C189.823 31.4076 177.84 28.3399 169.668 29.4822C160.385 30.7808 153.145 40.4854 156.57 52.2418C156.621 49.825 157.997 46.2269 159.757 44.5375C163.687 43.8912 168.109 43.8942 171.712 41.6548C170.2 43.765 168.001 44.2429 165.534 45.0515C175.796 49.0675 181.944 37.0827 180.505 41.1768C179.438 44.2098 179.089 48.1477 182.441 50.4713C182.896 45.9774 184.716 44.5255 184.716 44.5255C183.083 50.838 185.631 55.4733 189.412 59.7598C190.095 61.3559 188.282 62.9371 188.857 64.2928C189.454 65.6906 190.978 64.2627 191.526 63.6345C197.346 57.2167 199.664 43.69 194.037 37.0949Z" fill="#4C3923"/>
<path d="M170.115 60.391C169.964 60.1505 169.85 59.874 169.802 59.5914C169.756 59.3419 169.687 58.9782 169.865 58.7648C169.952 58.6626 170.076 58.5904 170.178 58.5093C170.305 58.4101 170.428 58.3049 170.546 58.1936C170.793 57.9622 171.019 57.7157 171.22 57.4482C171.516 57.0574 170.943 56.5764 170.648 56.9672C170.428 57.2588 170.184 57.5263 169.91 57.7608C169.624 58.0043 169.275 58.1996 169.118 58.5634C168.964 58.9211 168.994 59.366 169.07 59.7387C169.151 60.1355 169.296 60.5022 169.506 60.8419C169.762 61.2537 170.368 60.8028 170.112 60.394L170.115 60.391Z" fill="black"/>
<path d="M163.539 50.3513C164.385 49.4855 165.75 49.2902 166.798 49.8463C167.054 49.9815 167.238 49.5637 166.985 49.4284C165.747 48.7761 164.18 49.0557 163.195 50.0627C162.991 50.2731 163.337 50.5587 163.539 50.3513Z" fill="black"/>
<path d="M181.892 53.9975C181.205 52.723 180.196 51.4424 178.645 51.4214C178.524 51.4214 178.437 51.5627 178.446 51.6739C178.458 51.8092 178.572 51.8723 178.693 51.8753C180.057 51.8933 180.94 53.1709 181.53 54.268C181.669 54.5236 182.03 54.253 181.892 53.9975Z" fill="black"/>
<path d="M191.905 65.2066C190.197 66.8719 186.962 67.6084 185.483 66.1685C184.001 64.7287 185.239 62.1586 186.781 60.3219C188.326 58.4853 191.091 57.6105 192.573 59.0504C194.055 60.4902 193.709 63.4421 191.905 65.2036V65.2066Z" fill="#FFE5DC"/>
<path d="M168.025 100.602C168.025 100.025 168.492 99.5591 169.071 99.5591C169.649 99.5591 170.116 100.025 170.116 100.602C170.116 101.179 169.649 101.645 169.071 101.645C168.492 101.645 168.025 101.179 168.025 100.602Z" fill="white"/>
<path d="M168.756 111.829C169.333 111.829 169.801 111.362 169.801 110.786C169.801 110.21 169.333 109.743 168.756 109.743C168.179 109.743 167.711 110.21 167.711 110.786C167.711 111.362 168.179 111.829 168.756 111.829Z" fill="white"/>
<path d="M168.756 121.458C169.333 121.458 169.801 120.991 169.801 120.415C169.801 119.839 169.333 119.372 168.756 119.372C168.179 119.372 167.711 119.839 167.711 120.415C167.711 120.991 168.179 121.458 168.756 121.458Z" fill="white"/>
<path d="M193.782 135.931C190.996 134.305 188.514 132.195 186.465 129.706C186.282 129.483 186.601 129.162 186.785 129.387C188.809 131.849 191.255 133.935 194.011 135.544C194.261 135.691 194.035 136.079 193.782 135.934V135.931Z" fill="#2B2B2B"/>
<path d="M179.2 35.1891C176.965 37.3474 174.154 38.8624 171.118 39.5357C170.835 39.5989 170.714 39.163 170.997 39.0999C173.961 38.4416 176.696 36.9746 178.88 34.8674C179.088 34.666 179.41 34.9847 179.2 35.1861V35.1891Z" fill="#2B2B2B"/>
<path d="M174.248 34.8375C171.431 35.574 168.582 36.1722 165.705 36.6351C165.422 36.6802 165.298 36.2473 165.585 36.1992C168.458 35.7393 171.311 35.1381 174.127 34.4016C174.407 34.3295 174.528 34.7624 174.248 34.8375Z" fill="#2B2B2B"/>
<path d="M189.773 42.1512C189.559 45.5239 189.357 49.128 190.95 52.2272C191.083 52.4857 190.694 52.7142 190.559 52.4556C188.923 49.2753 189.101 45.614 189.318 42.1512C189.336 41.8626 189.788 41.8596 189.77 42.1512H189.773Z" fill="#2B2B2B"/>
<path d="M158.142 71.1193C158.627 73.6714 159.778 76.0461 161.459 78.0271C161.507 78.0842 161.613 78.1022 161.682 78.0782C163.848 77.2455 165.95 76.2595 167.971 75.1203C168.224 74.976 167.983 74.5972 167.73 74.7385C165.742 75.8567 163.676 76.8277 161.543 77.6453L161.766 77.6964C160.137 75.7756 159.043 73.452 158.57 70.981C158.516 70.6955 158.085 70.8338 158.139 71.1163L158.142 71.1193Z" fill="white"/>
<path d="M167.869 75.1236C169.17 77.1977 170.884 78.9713 172.908 80.351C172.974 80.3961 173.071 80.3811 173.134 80.342C175.836 78.7729 178.339 76.6717 179.96 73.9723C180.11 73.7228 179.71 73.5124 179.562 73.7589C177.981 76.3921 175.526 78.4302 172.893 79.9602C172.968 79.9602 173.044 79.9542 173.119 79.9512C171.161 78.6166 169.507 76.8851 168.248 74.8831C168.095 74.6367 167.712 74.8771 167.866 75.1236H167.869Z" fill="white"/>
</g>
<defs>
<clipPath id="clip0_2688_17875">
<rect width="250.539" height="145.402" fill="white" transform="translate(0.230469 0.554199)"/>
</clipPath>
</defs>
</svg>
