<svg viewBox="0 0 255 201" fill="none" xmlns="http://www.w3.org/2000/svg">
<g clip-path="url(#clip0_2688_16574)">
<path d="M28.1015 169.271C31.1824 167.823 25.3879 161.159 23.4178 160.937C20.8683 163.731 16.528 162.01 12.9994 162.552C11.0158 162.851 7.49931 163.081 5.99539 164.116C4.84212 164.909 5.10961 166.37 7.23025 166.898C7.95668 167.079 9.7349 167.057 9.7349 167.057C7.74517 170.133 3.79785 171.246 1.39368 173.889C0.586812 175.284 2.04082 176.265 3.36861 175.823C2.79795 176.285 1.89001 176.881 1.77381 177.641C1.66964 178.33 1.99996 179.231 2.7744 179.329C3.24359 179.391 4.28997 179.453 4.65399 179.078C4.25397 179.492 4.24709 180.193 4.56554 180.67C5.38763 181.902 7.46727 181.357 8.51384 180.75C8.34022 181.872 9.05043 182.834 10.1754 183.012C11.6523 183.246 13.3068 182.397 14.6493 181.866C16.1917 181.255 17.6916 180.529 19.1235 179.692C22.9831 177.433 25.036 172.45 28.1015 169.271Z" fill="#FFC6BF"/>
<path d="M116.286 48.8833C112.233 55.5631 104.956 69.316 113.74 73.2839C118.32 75.3519 141.652 76.5476 145.064 72.51C149.675 67.0545 142.747 56.0579 142.065 54.97C140.287 52.1503 137.761 48.1412 132.699 46.6092C127.26 44.9662 118.961 44.4746 116.286 48.8802V48.8833Z" fill="#472828"/>
<path d="M137.626 50.7202L117.267 54.206C117.267 54.206 117.137 66.6901 110.32 68.5932L111.031 86.8944L136.026 88.5057L142.288 82.9614L145.706 74.6164C145.706 74.6164 134.357 75.9232 137.619 50.7234L137.626 50.7202Z" fill="#FFE5DC"/>
<path d="M87.332 163.578C87.332 163.578 75.8786 192.207 78.5126 216.807H166.087C166.087 216.807 168.239 186.463 155.611 163.109L97.8745 157.612L87.332 163.578Z" fill="#694848"/>
<path d="M121.339 81.6356C112.685 80.3288 111.285 68.5425 111.285 68.5425C111.285 68.5425 93.9291 71.7143 88.6927 73.4556C83.4595 75.2001 77.5884 77.2617 69.3403 91.687L50.4703 129.853L21.8574 161.869L28.049 169.726C28.049 169.726 56.754 153.175 63.3423 147.171C71.7713 139.486 86.3126 114.993 86.3126 114.993C86.3126 114.993 88.1247 128.756 89.2576 143.219C90.0605 153.47 88.8101 157.613 87.6137 161.346C87.0837 163.005 83.6468 164.993 89.6765 168.003C95.7031 171.016 117.753 171.968 122.828 171.809C122.828 171.809 156.49 170.249 157.724 166.043C158.051 164.933 157.889 163.744 157.616 162.77C156.893 160.21 156.394 157.593 156.267 154.936C155.909 147.469 157.775 130.262 162.145 115.469L169.114 80.9093L142.961 69.1768C142.961 69.1768 140.4 84.5188 121.339 81.6356Z" fill="#DFBEA5"/>
<path d="M169.111 80.9058C169.111 80.9058 180.002 83.9253 178.863 114.511C178.235 131.353 181.478 141.309 182.256 148.163L226.835 170.185C226.835 170.185 218.675 178.536 218.612 179.225C218.612 179.225 199.634 176.164 187.213 172.894C179.745 170.927 174.388 168.701 170.548 166.55C164.487 163.156 163.303 160.213 161.837 153.425C160.025 145.017 157.756 126.345 157.756 126.345L155.395 92.191L169.114 80.8994L169.111 80.9058Z" fill="#DFBEA5"/>
<path d="M115.858 54.5422C119.048 48.9948 116.385 47.5421 115.601 41.6775C114.817 37.6208 117.042 33.4657 116.08 29.5264C113.164 26.5607 107.934 28.6605 104.3 27.3632C103.773 27.1634 102.84 26.288 102.237 26.4688C101.482 37.6715 104.551 50.8471 95.2396 59.8708C91.3868 64.3494 92.1834 68.9294 94.2938 73.8933C95.1507 79.2472 90.0571 83.2405 89.0257 88.2297C88.2418 91.2588 89.7144 94.6621 91.3043 97.1742C93.3354 100.381 96.8708 100.267 100.428 100.565C116.683 100.65 115.284 103.54 111.549 92.1532C109.238 87.126 109.955 83.25 112.643 78.7144C117.664 70.2457 112.021 60.2229 115.861 54.5454L115.858 54.5422Z" fill="#633736"/>
<path d="M137.733 59.4268C134.544 53.8793 136.486 47.5389 137.267 41.6775C138.051 37.6208 135.826 33.4657 136.787 29.5264C139.704 26.5607 144.934 28.6605 148.568 27.3632C149.095 27.1634 150.028 26.288 150.631 26.4688C151.386 37.6715 148.317 50.8471 157.628 59.8708C161.481 64.3494 160.688 68.9294 158.574 73.8901C157.717 79.2441 162.811 83.2374 163.845 88.2266C164.629 91.2556 163.157 94.6589 161.567 97.171C159.536 100.378 156 100.263 152.443 100.562C136.188 100.647 137.587 103.537 141.322 92.1501C143.633 87.1228 142.712 83.3611 140.228 78.7112C137.095 72.5389 141.573 65.1074 137.733 59.4299V59.4268Z" fill="#633736"/>
<path d="M104.544 34.4805L103.329 46.5808L102.301 49.9429L117.489 50.9769L145.074 53.4985L147.238 37.4239L137.397 31.0454L104.544 34.4805Z" fill="#633736"/>
<path d="M148.549 15.5352C148.549 15.5352 151.097 20.6322 148.327 30.7597L146.023 31.4765L140.583 16.4264L148.549 15.5352Z" fill="#704A3C"/>
<path d="M105.838 19.535L125.495 9.76904L144.829 15.3577C144.829 15.3577 147.358 22.4054 147.022 25.2473C145.743 36.1012 145.381 42.3052 144.016 46.7108C142.188 52.6072 134.013 60.0323 127.361 60.3178C121.906 60.5525 115.308 54.8306 112.665 50.7295C110.164 46.8504 109.345 40.0025 105.794 29.6625C104.864 26.9538 105.841 19.5318 105.841 19.5318L105.838 19.535Z" fill="#FFE5DC"/>
<path d="M146.012 34.6234C145.981 35.3117 145.651 35.9968 145.79 36.5994C146.428 36.6184 147.485 36.7992 147.85 36.1585C156.479 24.1755 148.862 4.94502 135.146 0.640905C132.204 -0.247194 130.31 -0.355035 128.015 1.68759C126.092 -0.551685 121.109 -0.231335 118.58 0.745574C105.943 5.28122 99.1547 17.3499 102.052 32.603C103.921 41.1192 105.648 35.3402 105.648 35.3402L107.704 36.6311C106.073 29.8245 114.699 26.4212 118.752 22.4501C122.623 19.5733 126.19 16.2651 129.431 12.681C128.84 13.328 139.129 21.7808 140.132 22.5072C144.251 25.2571 147.383 29.3551 146.012 34.6234Z" fill="#633736"/>
<path d="M104.046 40.1673C105.842 42.9649 109.797 45.0202 112.012 43.5802C114.227 42.1434 113.234 38.2928 111.685 35.324C110.136 32.3552 106.807 30.2682 104.592 31.7082C102.377 33.145 102.145 37.2144 104.046 40.1673Z" fill="#FFE5DC"/>
<path d="M130.133 31.9269C129.787 33.6334 129.828 35.4159 130.32 37.0557C130.514 37.7028 131.098 38.5623 130.669 39.2411C130.45 39.59 130.088 39.7581 129.733 39.8945C129.32 40.053 128.898 40.1863 128.476 40.3004C127.953 40.4368 127.832 39.5583 128.353 39.4219C128.708 39.3267 129.06 39.2189 129.406 39.0857C129.555 39.0286 129.774 38.9683 129.898 38.8541C130.041 38.7209 129.977 38.6004 129.911 38.4386C129.641 37.7599 129.422 37.0652 129.279 36.3389C128.99 34.8767 129.003 33.3352 129.305 31.8572C129.419 31.2958 130.244 31.3624 130.13 31.9269H130.133Z" fill="#050505"/>
<path d="M135.566 35.6222C135.503 36.6023 136.084 37.4016 136.864 37.4079C137.642 37.4142 138.327 36.6245 138.391 35.6412C138.454 34.6611 137.873 33.8619 137.093 33.8555C136.312 33.8492 135.63 34.6389 135.569 35.6222H135.566Z" fill="#050505"/>
<path d="M119.437 34.3442C119.402 35.3306 119.999 36.1521 120.773 36.1775C121.547 36.2029 122.204 35.4258 122.239 34.4394C122.274 33.4529 121.678 32.6314 120.903 32.6061C120.129 32.5807 119.472 33.3578 119.437 34.3442Z" fill="#050505"/>
<path d="M139.736 31.9051C138.61 30.6522 136.817 30.2843 135.357 31.0423C135.068 31.1914 134.884 30.6903 135.173 30.5444C136.772 29.7134 138.81 30.1098 140.047 31.4864C140.266 31.7306 139.958 32.1525 139.736 31.9051Z" fill="black"/>
<path d="M122.869 28.9584C121.248 28.0512 119.47 28.9044 118.061 29.8623C117.792 30.0463 117.493 29.6149 117.766 29.4309C119.321 28.3747 121.286 27.4676 123.072 28.4667C123.355 28.6253 123.158 29.1169 122.873 28.9584H122.869Z" fill="black"/>
<path d="M123.028 42.3623C123.028 42.3623 122.057 48.5631 127.119 49.0643C132.536 49.6003 133.082 43.4978 133.082 43.4978C131.105 43.9958 125.233 43.2916 123.028 42.3623Z" fill="#C93C3C"/>
<path d="M150.764 41.474C149.619 44.2367 146.502 46.7075 144.379 45.813C142.256 44.9218 142.554 41.3694 143.459 38.4989C144.367 35.6284 146.937 33.2337 149.06 34.1282C151.183 35.0195 151.974 38.5592 150.764 41.474Z" fill="#FFE5DC"/>
<path d="M121.862 43.5771C121.703 46.2097 119.44 48.2142 116.806 48.0556C114.172 47.897 112.167 45.6356 112.325 43.003C112.484 40.3704 114.747 38.3658 117.381 38.5244C120.015 38.683 122.02 40.9445 121.862 43.5771Z" fill="#FFE5DC"/>
<path d="M142.673 47.3304C144.106 45.1174 143.474 42.1619 141.259 40.7291C139.045 39.2963 136.088 39.9288 134.654 42.1419C133.221 44.3549 133.854 47.3104 136.068 48.7432C138.282 50.176 141.239 49.5434 142.673 47.3304Z" fill="#FFE5DC"/>
<path d="M127.977 11.6913C129.374 16.1921 125.772 20.0172 122.509 22.542C122.182 22.7957 122.246 23.3508 122.509 23.6204C122.826 23.9439 123.264 23.871 123.588 23.6204C127.304 20.7436 131.014 16.3316 129.45 11.2885C129.161 10.3528 127.688 10.7525 127.977 11.6945V11.6913Z" fill="#633736"/>
<path d="M129.65 13.3026C131.037 16.1984 130.545 19.884 128.454 22.32C127.819 23.0622 128.892 24.1437 129.533 23.3984C132.1 20.4074 132.668 16.0874 130.967 12.535C130.545 11.6501 129.228 12.424 129.65 13.3058V13.3026Z" fill="#633736"/>
<path d="M111.625 21.9708C115.573 19.8648 119.204 17.1878 122.377 14.035C122.596 13.8194 122.26 13.4831 122.041 13.6988C118.893 16.823 115.3 19.4715 111.384 21.5585C111.114 21.7012 111.352 22.1136 111.625 21.9708Z" fill="black"/>
<path d="M139.352 17.1246C141.64 18.8437 143.44 21.1559 144.573 23.7853C144.693 24.0644 145.103 23.8234 144.985 23.5443C143.821 20.8356 141.951 18.4821 139.597 16.7122C139.352 16.5283 139.114 16.9406 139.355 17.1246H139.352Z" fill="black"/>
<path d="M108.718 48.4683C108.045 53.2259 108.689 58.0915 110.578 62.5097C110.698 62.792 111.108 62.5478 110.99 62.2687C109.159 57.9804 108.528 53.2101 109.178 48.5951C109.219 48.297 108.762 48.1669 108.718 48.4683Z" fill="black"/>
<path d="M105.918 62.6459C104.125 67.6542 106.937 72.7956 107.698 77.7182C107.898 79.0123 107.971 80.3445 107.781 81.6417C107.578 83.0278 107.051 84.3314 106.531 85.6192C106.013 86.9006 105.487 88.1947 105.312 89.5744C105.153 90.8082 105.347 92.0135 105.845 93.1458C106.965 95.6959 109.266 97.5387 110.256 100.162C110.364 100.444 110.824 100.324 110.717 100.035C109.853 97.7544 108.063 96.0512 106.823 93.9895C106.182 92.9238 105.734 91.7534 105.728 90.4974C105.721 89.0828 106.204 87.7252 106.718 86.428C107.229 85.1307 107.81 83.8493 108.111 82.4823C108.378 81.2738 108.419 80.0241 108.308 78.7903C108.076 76.2085 107.257 73.7313 106.616 71.2351C105.905 68.4662 105.385 65.5418 106.378 62.7696C106.483 62.481 106.023 62.3573 105.918 62.6428V62.6459Z" fill="black"/>
<path d="M144.871 52.0587C145.081 57.9265 141.507 63.0013 139.644 68.3489C139.543 68.6376 140.003 68.7644 140.105 68.4758C141.593 64.2002 144.072 60.2609 145.008 55.7982C145.265 54.5675 145.392 53.3147 145.347 52.0587C145.338 51.7542 144.862 51.751 144.871 52.0587Z" fill="black"/>
<path d="M150.606 62.3794C150.26 64.8597 150.203 67.3718 150.453 69.8648C150.704 72.3451 151.294 74.7367 152.047 77.1092C152.789 79.4436 153.63 81.8097 153.77 84.2742C153.84 85.5049 153.716 86.7419 153.322 87.9123C152.919 89.1017 152.259 90.1801 151.596 91.2363C150.177 93.5041 148.74 95.8068 146.705 97.583C146.474 97.786 146.813 98.119 147.042 97.9192C148.838 96.3492 150.184 94.3668 151.447 92.3654C152.735 90.3291 154.008 88.3182 154.224 85.8601C154.436 83.4305 153.77 81.0136 153.053 78.7172C152.294 76.2813 151.501 73.8835 151.114 71.3524C150.666 68.428 150.653 65.437 151.06 62.5063C151.101 62.2081 150.644 62.0781 150.599 62.3794H150.606Z" fill="black"/>
<path d="M255 209.696C254.993 222.034 224.584 220.217 224.584 220.217L221.242 213.655L232.667 208.494H200.779L209.926 213.287L205.717 220.287C205.717 220.287 175.077 221.908 176.244 209.696C178.342 187.713 187.907 173.845 199.637 167.391C199.843 167.277 200.053 167.163 200.262 167.055C200.681 166.829 201.1 166.62 201.525 166.42C206.39 164.102 211.566 163.011 216.698 163.09C221.268 163.16 226.006 164.229 230.528 166.303C230.957 166.5 231.382 166.703 231.807 166.918C232.017 167.023 232.229 167.131 232.439 167.245C244.759 173.738 255.012 187.877 254.997 209.699L255 209.696Z" fill="#CD8771"/>
<path d="M217.133 193.047C217.133 192.438 216.641 191.947 216.032 191.947C215.423 191.947 214.931 192.438 214.931 193.047C214.931 193.656 215.423 194.148 216.032 194.148C216.641 194.148 217.133 193.656 217.133 193.047Z" fill="#FFC5AE"/>
<path d="M217.745 201.211C217.745 200.602 217.254 200.111 216.644 200.111C216.035 200.111 215.543 200.602 215.543 201.211C215.543 201.82 216.035 202.312 216.644 202.312C217.254 202.312 217.745 201.82 217.745 201.211Z" fill="#FFC5AE"/>
<path d="M216.611 184.434C216.611 183.825 216.119 183.333 215.509 183.333C214.9 183.333 214.408 183.825 214.408 184.434C214.408 185.043 214.9 185.535 215.509 185.535C216.119 185.535 216.611 185.043 216.611 184.434Z" fill="#FFC5AE"/>
<path d="M196.521 143.714C197.749 150.901 193.233 155.608 197.981 161.704C201.916 166.097 206.007 167.299 210.263 168.089C233.849 171.571 236.702 147.551 234.344 140.142L220.332 131.94L204.655 132.625L196.521 143.714Z" fill="#FFE5DC"/>
<path d="M207.685 146.235C207.635 146.977 207.092 147.539 206.47 147.482C205.848 147.425 205.385 146.781 205.435 146.039C205.486 145.296 206.029 144.735 206.651 144.792C207.273 144.846 207.736 145.493 207.685 146.235Z" fill="black"/>
<path d="M219.481 147.519C219.431 148.262 218.888 148.823 218.266 148.766C217.644 148.709 217.181 148.065 217.231 147.323C217.282 146.581 217.825 146.019 218.447 146.076C219.069 146.13 219.532 146.777 219.481 147.519Z" fill="black"/>
<path d="M208.085 150.999C209.13 150.742 213.982 151.307 215.693 151.662C216.038 151.735 216.223 152.106 216.077 152.429C215.467 153.774 214.163 156.854 210.091 155.957C208 155.497 207.765 152.534 207.749 151.51C207.746 151.288 207.867 151.053 208.085 150.999Z" fill="#C43737"/>
<path d="M208.393 125.806C216.488 123.763 222.655 123.836 229.865 127.842C245.879 136.742 237.082 156.959 230.738 161.095L231.255 156.775C228.675 154.425 227.139 151.129 226.333 147.78C225.926 146.092 225.698 144.364 225.631 142.629C225.565 140.843 225.885 139.317 226.126 137.582C223.515 138.984 220.312 139.238 217.51 138.274C219.23 137.795 220.779 136.732 221.848 135.305C219.5 135.429 217.301 136.431 215.032 137.046C211.363 138.039 207.421 138.011 203.769 136.958C204.749 136.498 205.774 135.854 206.488 135.029C205.517 134.81 203.68 136.342 202.94 136.932C201.896 137.773 201.001 138.778 200.243 139.879C199.462 141.011 198.827 142.235 198.263 143.485C197.951 144.167 197.666 144.862 197.383 145.556C197.253 145.877 196.501 147.209 196.622 147.501C192.76 138.023 198.891 128.089 208.393 125.802V125.806Z" fill="#6B352E"/>
<path d="M211.913 148.547C211.728 148.313 211.582 148.04 211.5 147.751C211.427 147.497 211.319 147.126 211.487 146.892C211.57 146.777 211.694 146.692 211.795 146.597C211.919 146.482 212.039 146.362 212.154 146.235C212.392 145.975 212.604 145.699 212.795 145.401C213.068 144.973 212.414 144.525 212.141 144.957C211.938 145.277 211.706 145.578 211.436 145.845C211.157 146.121 210.808 146.356 210.678 146.746C210.551 147.129 210.627 147.586 210.745 147.964C210.868 148.366 211.059 148.731 211.319 149.064C211.63 149.467 212.227 148.944 211.916 148.544L211.913 148.547Z" fill="black"/>
<path d="M204.689 143.587C205.498 142.613 206.923 142.286 208.088 142.762C208.37 142.876 208.526 142.429 208.243 142.315C206.869 141.753 205.238 142.191 204.296 143.323C204.099 143.558 204.495 143.821 204.689 143.59V143.587Z" fill="black"/>
<path d="M222.275 145.518C221.421 144.265 220.224 143.035 218.58 143.159C218.45 143.168 218.374 143.323 218.396 143.438C218.422 143.577 218.549 143.631 218.676 143.622C220.123 143.514 221.183 144.751 221.916 145.829C222.087 146.08 222.443 145.766 222.275 145.518Z" fill="black"/>
<path d="M235.121 160.753C233.379 162.751 229.821 163.877 228.006 162.443C226.191 161.009 227.308 158.069 228.85 155.903C230.393 153.737 233.407 152.506 235.226 153.936C237.041 155.37 236.968 158.64 235.124 160.749L235.121 160.753Z" fill="#FFE5DC"/>
<path d="M199.974 135.73C204.283 132.692 209.453 130.95 214.724 130.76C215.026 130.75 215.061 130.275 214.756 130.287C209.348 130.481 204.083 132.254 199.659 135.375C199.409 135.549 199.723 135.908 199.97 135.733L199.974 135.73Z" fill="black"/>
<path d="M229.945 137.9C229.732 139.958 229.523 142.013 229.31 144.072C229.278 144.376 229.751 144.408 229.783 144.104C229.996 142.045 230.205 139.99 230.418 137.931C230.449 137.627 229.977 137.595 229.945 137.9Z" fill="black"/>
<path d="M211.757 133.796C215.334 133.104 218.984 132.936 222.608 133.288C222.913 133.317 222.944 132.844 222.64 132.815C218.974 132.457 215.277 132.631 211.662 133.329C211.364 133.386 211.456 133.853 211.757 133.796Z" fill="black"/>
<path d="M203.172 168.127C204.267 170.639 206.003 172.818 208.19 174.464C208.253 174.512 208.367 174.505 208.431 174.464C210.462 173.103 212.395 171.6 214.207 169.96C214.435 169.754 214.096 169.418 213.87 169.624C212.087 171.238 210.192 172.716 208.193 174.055H208.434C206.311 172.456 204.645 170.322 203.585 167.886C203.464 167.607 203.052 167.848 203.172 168.127Z" fill="white"/>
<path d="M215.994 170.217C217.812 172.05 219.989 173.475 222.388 174.423C222.468 174.455 222.563 174.417 222.62 174.363C225.029 172.12 227.114 169.373 228.148 166.221C228.244 165.929 227.783 165.805 227.688 166.094C226.676 169.17 224.629 171.838 222.28 174.026C222.357 174.007 222.436 173.985 222.512 173.966C220.189 173.046 218.085 171.651 216.327 169.881C216.111 169.662 215.775 169.998 215.99 170.217H215.994Z" fill="white"/>
</g>
<defs>
<clipPath id="clip0_2688_16574">
<rect width="255" height="225" fill="white"/>
</clipPath>
</defs>
</svg>
