<svg xmlns="http://www.w3.org/2000/svg" viewBox="0 0 175 201" fill="none">
  <g clip-path="url(#clip0_2557_2491)">
    <path d="M131.253 12.9854H6.92584C3.1008 12.9854 0 16.0801 0 19.8977V187.714C0 191.532 3.1008 194.626 6.92584 194.626H131.253C135.078 194.626 138.179 191.532 138.179 187.714V19.8977C138.179 16.0801 135.078 12.9854 131.253 12.9854Z" fill="#CAB7AF"/>
    <path d="M123.046 24.9766H15.1342C11.8142 24.9766 9.1228 27.6627 9.1228 30.9763V176.635C9.1228 179.948 11.8142 182.635 15.1342 182.635H123.046C126.366 182.635 129.058 179.948 129.058 176.635V30.9763C129.058 27.6627 126.366 24.9766 123.046 24.9766Z" fill="white"/>
    <path d="M82.5532 11.4144H76.1789C76.2388 10.905 76.2706 10.3824 76.2706 9.85043C76.2706 4.41843 73.049 0.905273 69.0896 0.905273C65.1303 0.905273 61.9086 4.41843 61.9086 9.85043C61.9086 10.3824 61.9405 10.905 62.0003 11.4144H55.626C50.8586 11.4144 46.995 16.715 46.995 23.2533V26.9636C46.995 28.3113 48.0888 29.403 49.4392 29.403H88.7401C90.0904 29.403 91.1843 28.3113 91.1843 26.9636V23.2533C91.1843 16.715 87.3193 11.4144 82.5532 11.4144ZM64.5814 9.85043C64.5814 6.44133 66.6029 3.66763 69.0896 3.66763C71.5763 3.66763 73.5979 6.44133 73.5979 9.85043C73.5979 10.3903 73.5474 10.9143 73.4517 11.4144H64.7289C64.6332 10.9143 64.5827 10.3903 64.5827 9.85043H64.5814Z" fill="#8B736B"/>
    <g opacity="0.18">
      <path d="M49.0217 92.3092H81.8421C82.286 92.3092 82.7285 92.3118 83.1725 92.3092C83.1924 92.3092 83.211 92.3092 83.2309 92.3092C83.8171 92.3092 84.4338 92.0545 84.8484 91.6406C85.2445 91.2453 85.5435 90.5953 85.5183 90.0263C85.4917 89.436 85.2977 88.8245 84.8484 88.4119C84.4005 88.002 83.8516 87.7434 83.2309 87.7434H50.4106C49.9667 87.7434 49.5241 87.7407 49.0802 87.7434C49.0603 87.7434 49.0417 87.7434 49.0217 87.7434C48.4356 87.7434 47.8189 87.9981 47.4043 88.4119C47.0082 88.8072 46.7091 89.4572 46.7344 90.0263C46.761 90.6166 46.955 91.2281 47.4043 91.6406C47.8522 92.0505 48.4011 92.3092 49.0217 92.3092Z" fill="#AD7D6E"/>
      <path d="M91.3423 92.3094H111.656C111.931 92.3094 112.206 92.3107 112.481 92.3094C112.493 92.3094 112.505 92.3094 112.517 92.3094C112.832 92.3213 113.126 92.2563 113.398 92.1131C113.682 92.0215 113.927 91.8637 114.135 91.6408C114.358 91.4339 114.515 91.1898 114.608 90.9059C114.751 90.634 114.817 90.3409 114.805 90.0265C114.778 89.4362 114.584 88.8247 114.135 88.4121C113.687 88.0022 113.138 87.7436 112.517 87.7436H92.2036C91.9285 87.7436 91.6533 87.7422 91.3782 87.7436C91.3663 87.7436 91.3543 87.7436 91.3423 87.7436C91.0273 87.7316 90.7336 87.7966 90.4611 87.9399C90.1781 88.0314 89.9322 88.1893 89.7248 88.4121C89.5016 88.6191 89.3447 88.8631 89.2517 89.147C89.1081 89.4189 89.043 89.7121 89.055 90.0265C89.0816 90.6168 89.2756 91.2283 89.7248 91.6408C90.1727 92.0507 90.7217 92.3094 91.3423 92.3094Z" fill="#AD7D6E"/>
    </g>
    <g opacity="0.18">
      <path d="M33.0223 96.5905H27.9891C25.7509 96.5905 23.9301 94.7732 23.9301 92.5394V87.516C23.9301 85.2821 25.7509 83.4648 27.9891 83.4648H33.0223C35.2605 83.4648 37.0813 85.2821 37.0813 87.516V92.5394C37.0813 94.7732 35.2605 96.5905 33.0223 96.5905ZM27.9891 87.187C27.807 87.187 27.6595 87.3342 27.6595 87.516V92.5394C27.6595 92.7211 27.807 92.8684 27.9891 92.8684H33.0223C33.2044 92.8684 33.3519 92.7211 33.3519 92.5394V87.516C33.3519 87.3342 33.2044 87.187 33.0223 87.187H27.9891Z" fill="#AD7D6E"/>
    </g>
    <path d="M40.0811 82.4694L38.7547 79.8469C38.5035 79.3508 37.8163 79.2951 37.488 79.7434C37.488 79.7434 30.2818 89.4335 30.0784 89.4521C29.8751 89.472 26.4208 86.4184 26.4208 86.4184C26.2068 86.2207 25.8985 86.1663 25.6287 86.2777L23.8331 87.0232C23.324 87.2342 23.2124 87.9067 23.6284 88.2688L29.0085 92.9766L29.9588 93.8348C30.2698 94.116 30.7536 94.0855 31.0261 93.7658L39.9841 83.2852C40.1794 83.057 40.218 82.7347 40.0824 82.4667L40.0811 82.4694Z" fill="#AD7D6E"/>
    <g opacity="0.18">
      <path d="M112.519 107.393H79.6982C79.2543 107.393 78.8117 107.39 78.3678 107.393C78.3479 107.393 78.3293 107.393 78.3093 107.393C77.7232 107.393 77.1065 107.647 76.6919 108.061C76.2958 108.457 75.9967 109.107 76.022 109.676C76.0486 110.266 76.2426 110.877 76.6919 111.29C77.1398 111.7 77.6887 111.959 78.3093 111.959H111.13C111.574 111.959 112.016 111.961 112.46 111.959C112.48 111.959 112.499 111.959 112.519 111.959C113.105 111.959 113.721 111.704 114.136 111.29C114.532 110.895 114.831 110.245 114.806 109.676C114.779 109.085 114.585 108.474 114.136 108.061C113.688 107.651 113.139 107.393 112.519 107.393Z" fill="#AD7D6E"/>
      <path d="M70.1967 107.393H49.883C49.6079 107.393 49.3328 107.392 49.0577 107.393C49.0457 107.393 49.0337 107.393 49.0218 107.393C48.7068 107.381 48.4131 107.446 48.1406 107.589C47.8575 107.681 47.6116 107.839 47.4043 108.062C47.181 108.268 47.0242 108.513 46.9311 108.796C46.7876 109.068 46.7225 109.362 46.7344 109.676C46.761 110.266 46.9551 110.878 47.4043 111.29C47.8522 111.7 48.4011 111.959 49.0218 111.959H69.3354C69.6106 111.959 69.8857 111.96 70.1608 111.959C70.1728 111.959 70.1847 111.959 70.1967 111.959C70.5117 111.971 70.8054 111.906 71.0779 111.762C71.3609 111.671 71.6068 111.513 71.8142 111.29C72.0375 111.083 72.1943 110.839 72.2873 110.555C72.4309 110.283 72.496 109.99 72.484 109.676C72.4574 109.086 72.2634 108.474 71.8142 108.062C71.3663 107.652 70.8174 107.393 70.1967 107.393Z" fill="#AD7D6E"/>
    </g>
    <g opacity="0.18">
      <path d="M33.0223 116.271H27.9891C25.7509 116.271 23.9301 114.454 23.9301 112.22V107.197C23.9301 104.963 25.7509 103.146 27.9891 103.146H33.0223C35.2605 103.146 37.0813 104.963 37.0813 107.197V112.22C37.0813 114.454 35.2605 116.271 33.0223 116.271ZM27.9891 106.868C27.807 106.868 27.6595 107.015 27.6595 107.197V112.22C27.6595 112.402 27.807 112.549 27.9891 112.549H33.0223C33.2044 112.549 33.3519 112.402 33.3519 112.22V107.197C33.3519 107.015 33.2044 106.868 33.0223 106.868H27.9891Z" fill="#AD7D6E"/>
    </g>
    <path d="M40.0811 102.299L38.7547 99.677C38.5035 99.1809 37.8163 99.1252 37.488 99.5735C37.488 99.5735 30.2818 109.264 30.0784 109.282C29.8751 109.302 26.4208 106.248 26.4208 106.248C26.2068 106.051 25.8985 105.996 25.6287 106.108L23.8331 106.853C23.324 107.064 23.2124 107.737 23.6284 108.099L29.0085 112.807L29.9588 113.665C30.2698 113.946 30.7536 113.916 31.0261 113.596L39.9841 103.115C40.1794 102.887 40.218 102.565 40.0824 102.297L40.0811 102.299Z" fill="#AD7D6E"/>
    <g opacity="0.18">
      <path d="M49.0217 131.457H81.8421C82.286 131.457 82.7285 131.459 83.1725 131.457C83.1924 131.457 83.211 131.457 83.2309 131.457C83.8171 131.457 84.4338 131.202 84.8484 130.788C85.2445 130.393 85.5435 129.743 85.5183 129.174C85.4917 128.583 85.2977 127.972 84.8484 127.559C84.4005 127.149 83.8516 126.891 83.2309 126.891H50.4106C49.9667 126.891 49.5241 126.888 49.0802 126.891C49.0603 126.891 49.0417 126.891 49.0217 126.891C48.4356 126.891 47.8189 127.146 47.4043 127.559C47.0082 127.955 46.7091 128.605 46.7344 129.174C46.761 129.764 46.955 130.376 47.4043 130.788C47.8522 131.198 48.4011 131.457 49.0217 131.457Z" fill="#AD7D6E"/>
      <path d="M91.3423 131.457H111.656C111.931 131.457 112.206 131.458 112.481 131.457C112.493 131.457 112.505 131.457 112.517 131.457C112.832 131.469 113.126 131.404 113.398 131.261C113.682 131.169 113.927 131.011 114.135 130.788C114.358 130.581 114.515 130.337 114.608 130.053C114.751 129.781 114.817 129.488 114.805 129.174C114.778 128.584 114.584 127.972 114.135 127.56C113.687 127.15 113.138 126.891 112.517 126.891H92.2036C91.9285 126.891 91.6533 126.89 91.3782 126.891C91.3663 126.891 91.3543 126.891 91.3423 126.891C91.0273 126.879 90.7336 126.944 90.4611 127.087C90.1781 127.179 89.9322 127.337 89.7248 127.56C89.5016 127.767 89.3447 128.011 89.2517 128.294C89.1081 128.566 89.043 128.86 89.055 129.174C89.0816 129.764 89.2756 130.376 89.7248 130.788C90.1727 131.198 90.7217 131.457 91.3423 131.457Z" fill="#AD7D6E"/>
    </g>
    <g opacity="0.18">
      <path d="M33.0223 135.804H27.9891C25.7509 135.804 23.9301 133.987 23.9301 131.753V126.73C23.9301 124.496 25.7509 122.679 27.9891 122.679H33.0223C35.2605 122.679 37.0813 124.496 37.0813 126.73V131.753C37.0813 133.987 35.2605 135.804 33.0223 135.804ZM27.9891 126.401C27.807 126.401 27.6595 126.548 27.6595 126.73V131.753C27.6595 131.935 27.807 132.082 27.9891 132.082H33.0223C33.2044 132.082 33.3519 131.935 33.3519 131.753V126.73C33.3519 126.548 33.2044 126.401 33.0223 126.401H27.9891Z" fill="#AD7D6E"/>
    </g>
    <path d="M40.0811 121.982L38.7547 119.36C38.5035 118.863 37.8163 118.808 37.488 119.256C37.488 119.256 30.2818 128.946 30.0784 128.965C29.8751 128.985 26.4208 125.931 26.4208 125.931C26.2068 125.733 25.8985 125.679 25.6287 125.79L23.8331 126.536C23.324 126.747 23.2124 127.419 23.6284 127.782L29.0085 132.489L29.9588 133.347C30.2698 133.629 30.7536 133.598 31.0261 133.279L39.9841 122.798C40.1794 122.57 40.218 122.247 40.0824 121.979L40.0811 121.982Z" fill="#AD7D6E"/>
    <g opacity="0.18">
      <path d="M49.0217 150.988H81.8421C82.286 150.988 82.7285 150.991 83.1725 150.988C83.1924 150.988 83.211 150.988 83.2309 150.988C83.8171 150.988 84.4338 150.733 84.8484 150.319C85.2445 149.924 85.5435 149.274 85.5183 148.705C85.4917 148.115 85.2977 147.503 84.8484 147.091C84.4005 146.681 83.8516 146.422 83.2309 146.422H50.4106C49.9667 146.422 49.5241 146.419 49.0802 146.422C49.0603 146.422 49.0417 146.422 49.0217 146.422C48.4356 146.422 47.8189 146.677 47.4043 147.091C47.0082 147.486 46.7091 148.136 46.7344 148.705C46.761 149.295 46.955 149.907 47.4043 150.319C47.8522 150.729 48.4011 150.988 49.0217 150.988Z" fill="#AD7D6E"/>
      <path d="M91.3423 150.988H111.656C111.931 150.988 112.206 150.989 112.481 150.988C112.493 150.988 112.505 150.988 112.517 150.988C112.832 151 113.126 150.935 113.398 150.792C113.682 150.7 113.927 150.542 114.135 150.32C114.358 150.113 114.515 149.869 114.608 149.585C114.751 149.313 114.817 149.02 114.805 148.705C114.778 148.115 114.584 147.503 114.135 147.091C113.687 146.681 113.138 146.422 112.517 146.422H92.2036C91.9285 146.422 91.6533 146.421 91.3782 146.422C91.3663 146.422 91.3543 146.422 91.3423 146.422C91.0273 146.41 90.7336 146.475 90.4611 146.619C90.1781 146.71 89.9322 146.868 89.7248 147.091C89.5016 147.298 89.3447 147.542 89.2517 147.826C89.1081 148.098 89.043 148.391 89.055 148.705C89.0816 149.295 89.2756 149.907 89.7248 150.32C90.1727 150.729 90.7217 150.988 91.3423 150.988Z" fill="#AD7D6E"/>
    </g>
    <g opacity="0.18">
      <path d="M33.0223 155.337H27.9891C25.7509 155.337 23.9301 153.519 23.9301 151.286V146.262C23.9301 144.028 25.7509 142.211 27.9891 142.211H33.0223C35.2605 142.211 37.0813 144.028 37.0813 146.262V151.286C37.0813 153.519 35.2605 155.337 33.0223 155.337ZM27.9891 145.933C27.807 145.933 27.6595 146.08 27.6595 146.262V151.286C27.6595 151.467 27.807 151.614 27.9891 151.614H33.0223C33.2044 151.614 33.3519 151.467 33.3519 151.286V146.262C33.3519 146.08 33.2044 145.933 33.0223 145.933H27.9891Z" fill="#AD7D6E"/>
    </g>
    <path d="M40.0811 141.513L38.7547 138.891C38.5035 138.395 37.8163 138.339 37.488 138.787C37.488 138.787 30.2818 148.477 30.0784 148.496C29.8751 148.516 26.4208 145.462 26.4208 145.462C26.2068 145.265 25.8985 145.21 25.6287 145.322L23.8331 146.067C23.324 146.278 23.2124 146.951 23.6284 147.313L29.0085 152.021L29.9588 152.879C30.2698 153.16 30.7536 153.129 31.0261 152.81L39.9841 142.329C40.1794 142.101 40.218 141.779 40.0824 141.511L40.0811 141.513Z" fill="#AD7D6E"/>
    <path d="M69.0896 70.5792C77.3071 70.5792 83.9687 63.9305 83.9687 55.729C83.9687 47.5275 77.3071 40.8789 69.0896 40.8789C60.8722 40.8789 54.2106 47.5275 54.2106 55.729C54.2106 63.9305 60.8722 70.5792 69.0896 70.5792Z" fill="#8B736B"/>
    <path d="M71.3876 47.1211H66.7903V64.3377H71.3876V47.1211Z" fill="white"/>
    <path d="M60.4639 53.4351V58.0234H77.714V53.4351H60.4639Z" fill="white"/>
    <path d="M137.496 194.375V152.146C137.496 148.488 140.468 145.521 144.133 145.521H142.146C138.219 145.521 135.035 148.7 135.035 152.62V193.901C135.035 197.821 138.219 201 142.146 201H144.133C140.468 201 137.496 198.033 137.496 194.375Z" fill="#E3D1CC"/>
    <path d="M135.033 193.901V152.62C135.033 148.7 138.218 145.521 142.145 145.521H140.667C136.558 145.521 133.227 148.847 133.227 152.947V193.571C133.227 197.673 136.558 200.997 140.667 200.997H142.145C138.218 200.997 135.033 197.819 135.033 193.899V193.901Z" fill="#A28B84"/>
    <path d="M167.558 145.523H144.132C140.466 145.523 137.495 148.489 137.495 152.148V194.377C137.495 198.035 140.466 201.001 144.132 201.001H167.558C171.668 201.001 174.999 197.677 174.999 193.576V152.952C174.999 148.85 171.668 145.526 167.558 145.526V145.523Z" fill="#BDA097"/>
    <path d="M140.368 143.354V140.6C140.368 139.412 141.334 138.447 142.525 138.447H141.673C140.443 138.447 139.444 139.443 139.444 140.672V143.284C139.444 144.512 140.443 145.508 141.673 145.508H142.525C141.334 145.508 140.368 144.544 140.368 143.355V143.354Z" fill="#E3D1CC"/>
    <path d="M167.527 138.447H142.525C141.334 138.447 140.368 139.411 140.368 140.6V143.353C140.368 144.542 141.334 145.506 142.525 145.506H167.527C168.801 145.506 169.834 144.476 169.834 143.203V140.748C169.834 139.476 168.801 138.445 167.527 138.445V138.447Z" fill="#917972"/>
    <path d="M139.444 143.283V140.671C139.444 139.442 140.443 138.446 141.673 138.446H140.699C139.425 138.446 138.392 139.477 138.392 140.749V143.204C138.392 144.477 139.425 145.507 140.699 145.507H141.673C140.443 145.507 139.444 144.511 139.444 143.283Z" fill="#A28B84"/>
  </g>
  <defs>
    <clipPath id="clip0_2557_2491">
      <rect width="175" height="201" fill="white"/>
    </clipPath>
  </defs>
</svg>