<svg viewBox="0 0 40 40" fill="none" xmlns="http://www.w3.org/2000/svg">
<path d="M22.9167 5.83301H17.0834C16.3931 5.83301 15.8334 6.39265 15.8334 7.08301C15.8334 7.77336 16.3931 8.33301 17.0834 8.33301H22.9167C23.6071 8.33301 24.1667 7.77336 24.1667 7.08301C24.1667 6.39265 23.6071 5.83301 22.9167 5.83301ZM22.9167 3.33301C24.8152 3.33301 26.3842 4.74378 26.6325 6.57416L26.6551 6.79967L26.6438 6.66541L29.5834 6.66634C31.6545 6.66634 33.3334 8.34527 33.3334 10.4163V32.9163C33.3334 34.9874 31.6545 36.6663 29.5834 36.6663H10.4167C8.34568 36.6663 6.66675 34.9874 6.66675 32.9163V10.4163C6.66675 8.34527 8.34568 6.66634 10.4167 6.66634L13.3564 6.66541L13.3434 6.79967L13.3676 6.57416C13.616 4.74378 15.1849 3.33301 17.0834 3.33301H22.9167ZM23.3334 28.333H13.3334C12.6431 28.333 12.0834 28.8927 12.0834 29.583C12.0834 30.2734 12.6431 30.833 13.3334 30.833H23.3334C24.0238 30.833 24.5834 30.2734 24.5834 29.583C24.5834 28.8927 24.0238 28.333 23.3334 28.333ZM20.0001 21.6663H13.3334C12.6431 21.6663 12.0834 22.226 12.0834 22.9163C12.0834 23.6067 12.6431 24.1663 13.3334 24.1663H20.0001C20.6904 24.1663 21.2501 23.6067 21.2501 22.9163C21.2501 22.226 20.6904 21.6663 20.0001 21.6663ZM26.6667 14.9997H13.3334C12.6431 14.9997 12.0834 15.5593 12.0834 16.2497C12.0834 16.94 12.6431 17.4997 13.3334 17.4997H26.6667C27.3571 17.4997 27.9167 16.94 27.9167 16.2497C27.9167 15.5593 27.3571 14.9997 26.6667 14.9997Z" fill="#BCC6D6"/>
</svg>
