<svg viewBox="0 0 40 40" fill="none" xmlns="http://www.w3.org/2000/svg">
<path d="M17.0834 7.08366C17.7738 7.08366 18.3334 7.6433 18.3334 8.33366V21.667H31.6667C32.2996 21.667 32.8226 22.1372 32.9053 22.7474L32.9167 22.917C32.9167 31.2013 26.201 37.0837 17.9167 37.0837C9.63248 37.0837 2.91675 30.3679 2.91675 22.0837C2.91675 13.7994 8.79914 7.08366 17.0834 7.08366ZM22.0834 2.91699C30.3677 2.91699 37.0834 9.63272 37.0834 17.917C37.0834 18.6073 36.5238 19.167 35.8334 19.167H22.0834C21.3931 19.167 20.8334 18.6073 20.8334 17.917V4.16699C20.8334 3.47664 21.3931 2.91699 22.0834 2.91699Z" fill="#BCC6D6"/>
</svg>
