<svg width="198" height="324" viewBox="0 0 198 324" fill="none" xmlns="http://www.w3.org/2000/svg">
<g clip-path="url(#clip0_2711_4874)">
<path d="M39.6882 264.138C22.0882 260.968 9.34821 250.788 9.34821 250.788C-4.40179 236.878 2.97821 210.728 2.97821 210.728C5.80821 193.538 24.5682 140.718 24.5682 140.718C30.0982 125.438 41.9082 118.878 41.9082 118.878C53.0082 111.528 77.3882 103.928 77.3882 103.928L129.208 106.198L152.088 117.048C172.708 126.058 179.138 151.708 179.138 151.708C184.228 166.748 196.278 210.398 196.278 210.398C200.208 228.788 192.508 239.968 192.508 239.968C180.478 255.308 164.908 261.068 164.908 261.068C165.818 272.008 166.498 296.528 167.768 322.638H34.7182C37.7182 291.038 39.6882 264.138 39.6882 264.138Z" fill="white"/>
<path d="M61.7906 44.6386C62.5006 28.2886 69.8906 18.3586 69.8906 18.3586C84.1806 -7.74136 113.971 4.10864 113.971 4.10864C134.321 3.57864 140.981 23.0986 140.981 23.0986C142.681 28.2786 143.221 32.8086 143.131 36.6386H143.141C143.141 36.6386 143.141 36.7286 143.121 36.8586C143.081 38.1386 142.971 39.3386 142.811 40.4586C141.851 51.9386 136.371 86.1486 139.511 90.7986C139.511 90.7986 138.241 92.5186 131.771 93.0286C131.771 93.0286 121.551 94.6886 114.351 93.0286L114.731 75.4286L103.991 86.1686L93.8706 90.1786C85.2506 93.5086 69.5006 94.5286 63.9806 89.9186C67.5206 78.0286 60.9106 53.9786 61.8006 44.6386H61.7906Z" fill="#4E413E"/>
<path d="M130.07 106.608C130.07 106.608 125.21 166.708 119.72 186.048C119.72 186.048 83.9303 119.128 77.1903 103.728L87.1603 100.468L100.25 96.8184L124.84 104.668L130.05 106.608H130.07Z" fill="#FF8F6C"/>
<path d="M120.77 85.5582V102.478L124.85 104.668C124.85 104.668 125.51 116.708 107.66 118.988C107.66 118.988 87.4304 121.588 81.7104 102.248L85.8604 100.468V72.1182L120.77 85.5682V85.5582Z" fill="#FFE5DC"/>
<g style="mix-blend-mode:multiply">
<path d="M87.1606 73.1787C87.1606 73.1787 95.7406 101.239 120.141 99.2487V85.7887L87.1606 73.1787Z" fill="#E5C6C6"/>
</g>
<path d="M138.16 35.6982C138.16 35.6982 142.74 56.1282 135.07 76.0482C135.07 76.0482 128.36 91.1182 116.04 91.8682C116.04 91.8682 100.86 92.3082 89.7299 78.5482C89.7299 78.5482 85.8599 73.9382 83.2899 67.6282C83.2899 67.6282 73.8299 64.6882 73.8999 53.6782C73.8999 53.6782 73.8399 47.5082 78.4599 45.8182C85.7099 43.4782 88.3699 49.6982 88.3699 49.6982C88.3699 49.6982 105.9 43.5082 111.29 31.7982C111.29 31.7982 117.57 16.7482 123.66 20.0482C123.66 20.0482 128.63 18.4882 133.45 24.2482C133.45 24.2482 137.18 28.8182 138.17 35.6982H138.16Z" fill="#FFE5DC"/>
<path d="M106.241 43.9184C106.321 43.9184 106.411 43.8984 106.491 43.8484C111.991 40.7084 116.201 43.4784 116.371 43.5984C116.601 43.7584 116.911 43.6984 117.061 43.4684C117.221 43.2384 117.161 42.9284 116.931 42.7784C116.731 42.6384 112.051 39.5184 105.991 42.9784C105.751 43.1184 105.671 43.4184 105.801 43.6584C105.891 43.8184 106.061 43.9084 106.231 43.9084L106.241 43.9184Z" fill="#272C35"/>
<path d="M127.11 43.749C127.21 43.749 127.3 43.719 127.39 43.669C130.7 41.459 133.64 43.279 133.76 43.359C133.99 43.509 134.3 43.439 134.45 43.209C134.6 42.979 134.53 42.669 134.3 42.519C134.15 42.429 130.7 40.259 126.83 42.839C126.6 42.989 126.54 43.299 126.69 43.529C126.79 43.669 126.94 43.749 127.11 43.749Z" fill="#272C35"/>
<path d="M124.24 63.6082C124.32 63.6082 124.41 63.5883 124.48 63.5483C125.3 63.0983 126.51 61.7083 126.64 61.5583C128 59.6783 127.09 58.0382 126.42 57.4282C123.91 55.2882 123.46 49.1183 123.46 49.0583C123.44 48.7783 123.21 48.5782 122.93 48.5882C122.65 48.6082 122.45 48.8483 122.47 49.1183C122.49 49.3883 122.95 55.7782 125.77 58.1782C125.88 58.2882 126.98 59.3883 125.87 60.9383C125.56 61.2883 124.57 62.3682 124.01 62.6782C123.77 62.8082 123.68 63.1182 123.82 63.3582C123.91 63.5182 124.08 63.6183 124.26 63.6183L124.24 63.6082Z" fill="#D6A490"/>
<path d="M76.5097 43.9184C76.5797 43.9184 76.6597 43.8984 76.7297 43.8684C87.5397 38.6284 94.0597 23.0484 94.3297 22.3884C94.4397 22.1284 94.3097 21.8384 94.0597 21.7384C93.7997 21.6384 93.5097 21.7584 93.4097 22.0084C93.3397 22.1684 86.7597 37.8984 76.2897 42.9684C76.0397 43.0884 75.9397 43.3884 76.0597 43.6384C76.1497 43.8184 76.3197 43.9184 76.5097 43.9184Z" fill="#272C35"/>
<path d="M77.19 101.539C81.2 106.999 118.23 168.419 121.45 188.829C121.45 188.829 122.42 196.019 122.71 202.459C122.71 202.459 87.02 155.409 78.66 145.209L87.16 133.149L70.03 133.389L68.41 106.069C68.41 106.069 70.01 103.739 77.19 101.549V101.539Z" fill="white"/>
<path d="M122.71 202.968C122.77 202.968 122.82 202.968 122.88 202.938C123.09 202.868 123.22 202.668 123.21 202.448C122.92 196.058 121.95 188.838 121.94 188.768C118.66 167.988 80.8704 105.718 77.5904 101.248C77.4604 101.078 77.2404 100.998 77.0404 101.068C69.7804 103.278 68.0704 105.688 68.0004 105.788C67.9404 105.878 67.9104 105.988 67.9104 106.098L69.5304 133.418C69.5504 133.688 69.7704 133.868 70.0404 133.888L86.1904 133.668L78.2604 144.928C78.1304 145.108 78.1404 145.358 78.2804 145.528C86.5404 155.608 121.96 202.298 122.32 202.768C122.42 202.898 122.57 202.968 122.72 202.968H122.71ZM76.9904 102.128C82.4204 109.828 117.85 169.258 120.95 188.918C120.95 188.968 121.77 194.988 122.12 200.878C116.37 193.298 87.1504 154.858 79.2904 145.198L87.5704 133.448C87.6804 133.298 87.6904 133.098 87.6004 132.928C87.5104 132.758 87.3604 132.658 87.1504 132.658L70.5004 132.888L68.9204 106.238C69.3504 105.768 71.3104 103.918 76.9904 102.138V102.128Z" fill="#BCC6D6"/>
<path d="M127.88 104.379C128.13 109.269 117.86 175.929 117.86 175.929C117.86 175.929 120.01 183.159 121.13 186.059L140.18 139.449L129.02 132.529L143.15 124.669L134.89 107.529C134.89 107.529 132.71 104.859 127.88 104.389V104.379Z" fill="white"/>
<path d="M121.12 186.549C121.32 186.549 121.51 186.429 121.58 186.239L140.63 139.629C140.72 139.399 140.63 139.139 140.43 139.019L129.99 132.549L143.38 125.099C143.61 124.969 143.7 124.679 143.59 124.449L135.33 107.309C135.33 107.309 135.29 107.239 135.27 107.209C135.18 107.089 132.9 104.369 127.93 103.889C127.77 103.889 127.64 103.929 127.54 104.029C127.44 104.129 127.38 104.269 127.39 104.419C127.63 109.199 117.47 175.199 117.37 175.869C117.36 175.939 117.37 176.019 117.38 176.089C117.47 176.389 119.55 183.369 120.67 186.259C120.74 186.449 120.93 186.579 121.13 186.579L121.12 186.549ZM139.55 139.639L121.14 184.669C120.08 181.649 118.59 176.679 118.35 175.889C118.95 172.009 128.04 112.889 128.36 104.939C132.22 105.479 134.17 107.489 134.45 107.799L142.48 124.459L128.76 132.089C128.6 132.179 128.51 132.339 128.5 132.519C128.49 132.699 128.59 132.859 128.74 132.959L139.54 139.659L139.55 139.639Z" fill="#BCC6D6"/>
<g style="mix-blend-mode:multiply">
<path d="M164.06 162.498C164.06 162.498 155.42 203.898 155 213.338C155 213.338 139.86 227.708 117.92 224.588C116.18 235.828 121.08 261.688 121.08 261.688C121.08 261.688 138.13 273.958 165.05 265.878L164.06 162.488V162.498Z" fill="#DDE2EC"/>
</g>
<path d="M145.25 227.579C145.25 227.579 141.33 233.159 143.21 245.419C143.21 245.419 144.38 257.969 148.76 263.899C148.76 263.899 152.72 241.129 145.24 227.579H145.25Z" fill="#CEC8C6"/>
<path d="M148.91 229.848C148.91 229.848 141.3 231.768 132.38 228.558C132.38 228.558 120.4 224.588 115.78 226.518C115.78 226.518 113.43 227.368 115.13 229.268C115.13 229.268 99.7103 227.828 93.9003 230.828C93.9003 230.828 90.1903 232.808 92.3903 235.928C92.3903 235.928 89.7303 236.328 87.7003 237.638C87.7003 237.638 84.3003 239.708 86.9403 243.348C86.9403 243.348 88.2903 244.968 90.3603 244.718C90.3603 244.718 85.0903 249.928 92.1603 252.708C92.1603 252.708 91.4003 259.198 98.1003 258.988C98.1003 258.988 109.22 260.058 117.26 261.198C117.26 261.198 138.7 262.158 153.57 255.908L148.93 229.838L148.91 229.848Z" fill="#FFE5DC"/>
<path d="M120.45 261.759C126.61 261.759 142.2 261.229 153.75 256.379C153.96 256.289 154.09 256.059 154.05 255.829L149.41 229.759C149.39 229.619 149.31 229.499 149.19 229.429C149.07 229.359 148.93 229.329 148.8 229.369C148.78 229.369 146.55 229.929 143.16 229.929C139.5 229.929 135.93 229.309 132.56 228.099C132.23 227.989 124.65 225.499 119.19 225.499C117.7 225.499 116.49 225.689 115.59 226.059C115.48 226.099 114.32 226.549 114.06 227.579C113.97 227.939 114 228.309 114.16 228.689C112.75 228.589 110.03 228.419 106.98 228.419C100.67 228.419 96.1904 229.079 93.6704 230.379C93.5904 230.429 91.7104 231.449 91.2804 233.239C91.1004 234.009 91.2004 234.789 91.6004 235.569C90.6404 235.779 88.8904 236.269 87.4404 237.219C87.3904 237.249 85.8704 238.199 85.5204 239.949C85.2804 241.129 85.6304 242.369 86.5404 243.639C86.6104 243.719 87.6404 244.939 89.3104 245.199C88.6204 246.139 87.7104 247.749 88.0604 249.449C88.3704 250.949 89.5704 252.159 91.6504 253.049C91.6204 253.929 91.7104 256.099 93.1304 257.699C94.2004 258.899 95.7604 259.499 97.7904 259.499C97.9004 259.499 98.0104 259.499 98.1304 259.499C98.1804 259.499 109.26 260.579 117.2 261.709C117.26 261.709 118.47 261.769 120.47 261.769L120.45 261.759ZM152.99 255.609C141.64 260.259 126.48 260.759 120.45 260.759C118.47 260.759 117.28 260.709 117.27 260.709C109.36 259.579 98.2504 258.509 98.1404 258.499H97.7704C96.0404 258.499 94.7304 258.009 93.8604 257.029C92.3704 255.359 92.6504 252.799 92.6504 252.769C92.6804 252.549 92.5504 252.329 92.3404 252.249C90.3904 251.479 89.2804 250.469 89.0304 249.249C88.6104 247.199 90.6904 245.099 90.7104 245.079C90.8604 244.929 90.9004 244.699 90.8104 244.509C90.7204 244.319 90.5104 244.199 90.3004 244.229C88.5204 244.439 87.3404 243.039 87.3304 243.029C86.6104 242.029 86.3204 241.049 86.5004 240.159C86.7704 238.829 87.9604 238.079 87.9704 238.079C89.9004 236.829 92.4504 236.439 92.4704 236.429C92.6404 236.399 92.7904 236.289 92.8604 236.129C92.9304 235.969 92.9104 235.789 92.8104 235.649C92.2804 234.899 92.1004 234.179 92.2604 233.489C92.5804 232.129 94.1304 231.289 94.1404 231.279C96.4804 230.069 100.92 229.429 106.98 229.429C111.36 229.429 115.05 229.769 115.08 229.769C115.29 229.789 115.48 229.679 115.57 229.499C115.66 229.319 115.63 229.089 115.5 228.939C115.11 228.509 114.95 228.129 115.03 227.819C115.14 227.369 115.75 227.059 115.95 226.989C116.75 226.659 117.83 226.489 119.18 226.489C124.48 226.489 132.14 229.009 132.22 229.029C135.69 230.279 139.37 230.909 143.15 230.909C145.73 230.909 147.64 230.609 148.51 230.439L152.99 255.599V255.609Z" fill="#DAB5A1"/>
<path d="M127.78 232.268C127.98 232.268 128.17 232.148 128.25 231.948C128.35 231.688 128.22 231.398 127.96 231.308C124.1 229.828 115.55 228.818 115.18 228.778C114.92 228.738 114.66 228.948 114.63 229.218C114.6 229.498 114.79 229.738 115.07 229.768C115.16 229.768 123.86 230.798 127.61 232.238C127.67 232.258 127.73 232.268 127.79 232.268H127.78Z" fill="#DAB5A1"/>
<path d="M91.7899 236.528C91.7899 236.528 91.8699 236.528 91.9099 236.518C91.9699 236.498 98.5099 235.018 116.16 236.328C116.44 236.348 116.67 236.138 116.7 235.868C116.72 235.588 116.51 235.348 116.24 235.328C98.3899 233.998 91.9499 235.478 91.6899 235.538C91.4199 235.598 91.2599 235.868 91.3199 236.138C91.3699 236.368 91.5799 236.518 91.8099 236.518L91.7899 236.528Z" fill="#1C1715"/>
<path d="M90.3501 245.219C90.3501 245.219 90.4201 245.219 90.4501 245.219C90.5801 245.189 103.29 242.649 115.22 244.149C115.49 244.179 115.74 243.989 115.78 243.719C115.81 243.439 115.62 243.189 115.35 243.159C103.25 241.639 90.3901 244.219 90.2601 244.239C89.9901 244.289 89.8101 244.559 89.8701 244.829C89.9201 245.069 90.1301 245.229 90.3601 245.229L90.3501 245.219Z" fill="#1C1715"/>
<path d="M91.6406 253.159C91.6906 253.159 91.7506 253.159 91.8006 253.129C91.8706 253.099 99.5006 250.569 115.461 252.009C115.741 252.029 115.981 251.829 116.001 251.559C116.021 251.279 115.821 251.039 115.551 251.019C99.3306 249.559 91.7806 252.089 91.4706 252.199C91.2106 252.289 91.0706 252.579 91.1606 252.829C91.2306 253.039 91.4306 253.169 91.6306 253.169L91.6406 253.159Z" fill="#1C1715"/>
<path d="M43.9901 243.1C44.1025 245.224 45.8575 246.889 47.9845 246.889H113.64C115.93 246.889 117.752 244.971 117.635 242.684L113.485 161.674C113.376 159.547 111.62 157.879 109.49 157.879H43.6978C41.4057 157.879 39.5823 159.801 39.7034 162.09L43.9901 243.1Z" fill="#8A95A6"/>
<g style="mix-blend-mode:multiply">
<path d="M36.7502 271.628L37.4802 257.238L112.7 264.198C105.68 277.428 65.0302 278.558 65.0302 278.558C63.2102 288.678 68.2202 307.368 73.2102 322.428H33.6202L36.7502 271.618V271.628Z" fill="#BCC6D6"/>
</g>
<path d="M82.7202 233.279C82.7202 233.279 97.1702 237.689 110.98 235.479L123.28 231.039C123.28 231.039 128.29 235.609 123.28 242.259C123.28 242.259 126.39 247.869 119.73 250.979C119.73 250.979 120.68 257.949 116.68 259.619C116.68 259.619 117.62 263.109 115 265.429C115 265.429 98.4102 273.759 81.7002 265.429L71.4302 264.399L67.1102 234.079L82.7302 233.269L82.7202 233.279Z" fill="#FFE5DC"/>
<path d="M97.7299 269.629C107.6 269.629 115.13 265.909 115.2 265.869C115.24 265.849 115.27 265.829 115.31 265.799C117.61 263.769 117.41 260.949 117.23 259.899C120.64 258.109 120.38 252.739 120.25 251.269C122.32 250.229 123.65 248.839 124.21 247.129C124.9 245.009 124.18 243.039 123.85 242.309C128.77 235.499 123.66 230.709 123.6 230.659C123.46 230.539 123.27 230.499 123.09 230.559L110.79 234.999C108.34 235.379 105.58 235.589 102.7 235.589C92.1399 235.589 82.9399 232.819 82.8499 232.789C82.7999 232.769 82.7299 232.769 82.6799 232.769L67.0599 233.579C66.9199 233.579 66.7899 233.649 66.6999 233.759C66.6099 233.869 66.5699 234.009 66.5899 234.149L70.9099 264.469C70.9399 264.699 71.1299 264.869 71.3599 264.899L81.5399 265.919C86.5099 268.379 91.9599 269.629 97.7299 269.629ZM114.7 265.009C113.99 265.349 106.91 268.629 97.7299 268.629C92.0799 268.629 86.7599 267.399 81.8999 264.979C81.8499 264.949 81.7899 264.939 81.7299 264.929L71.8499 263.939L67.6699 234.549L82.6499 233.779C83.6199 234.059 92.5499 236.599 102.71 236.599C105.64 236.599 108.45 236.389 111.04 235.969L123.13 231.609C124 232.549 127 236.459 122.86 241.949C122.74 242.109 122.73 242.319 122.82 242.489C122.83 242.509 123.96 244.609 123.24 246.819C122.74 248.339 121.48 249.589 119.49 250.519C119.29 250.609 119.18 250.819 119.21 251.039C119.21 251.109 120.06 257.649 116.46 259.149C116.23 259.249 116.11 259.499 116.17 259.739C116.2 259.869 116.98 262.929 114.69 264.999L114.7 265.009Z" fill="#DAB5A1"/>
<path d="M105.771 247.389C105.771 247.389 105.861 247.389 105.901 247.369C112.161 245.699 123.211 241.309 123.321 241.269C123.581 241.169 123.701 240.879 123.601 240.619C123.501 240.359 123.201 240.239 122.951 240.339C122.841 240.389 111.841 244.759 105.641 246.409C105.371 246.479 105.211 246.759 105.291 247.019C105.351 247.239 105.551 247.389 105.771 247.389Z" fill="#DAB5A1"/>
<path d="M105.681 255.609C105.681 255.609 105.721 255.609 105.741 255.609C111.811 254.839 119.581 251.579 119.911 251.449C120.161 251.339 120.281 251.049 120.181 250.789C120.071 250.539 119.781 250.419 119.521 250.519C119.441 250.549 111.541 253.859 105.611 254.609C105.341 254.649 105.141 254.899 105.181 255.169C105.211 255.419 105.431 255.609 105.681 255.609Z" fill="#DAB5A1"/>
<path d="M106.62 262.619C110.76 262.619 116.61 260.189 116.86 260.079C117.11 259.969 117.23 259.679 117.13 259.429C117.02 259.179 116.73 259.049 116.48 259.159C116.42 259.189 110.31 261.709 106.39 261.619C106.13 261.639 105.88 261.829 105.88 262.109C105.88 262.389 106.09 262.609 106.37 262.619C106.45 262.619 106.54 262.619 106.63 262.619H106.62Z" fill="#DAB5A1"/>
<path d="M67.0998 234.079L76.2698 233.609C76.2698 233.609 80.6998 228.679 91.8298 227.119C91.8298 227.119 101.91 225.019 106.46 222.879C106.46 222.879 110.28 221.539 110.84 225.929C110.84 225.929 110.61 229.329 104.88 231.939C104.88 231.939 96.7998 236.889 93.4598 238.249" fill="#FFE5DC"/>
<path d="M93.4598 238.748C93.5198 238.748 93.5898 238.738 93.6498 238.708C96.9798 237.338 104.81 232.558 105.14 232.358C111.02 229.688 111.33 226.108 111.34 225.958C111.14 224.338 110.56 223.268 109.6 222.678C108.13 221.768 106.37 222.378 106.29 222.398C101.8 224.518 91.8298 226.608 91.7298 226.628C81.5398 228.058 76.9098 232.238 76.0398 233.118L67.0698 233.578C66.7898 233.588 66.5798 233.828 66.5998 234.108C66.6098 234.388 66.8199 234.598 67.1199 234.578L76.2798 234.108C76.4098 234.108 76.5398 234.038 76.6298 233.948C76.6698 233.898 81.0998 229.138 91.8898 227.618C92.3398 227.528 102.11 225.478 106.66 223.328C106.66 223.328 108.03 222.888 109.07 223.538C109.74 223.958 110.17 224.758 110.32 225.928C110.26 226.308 109.66 229.198 104.65 231.478C104.52 231.558 96.5098 236.448 93.2498 237.778C92.9898 237.888 92.8698 238.178 92.9798 238.428C93.0598 238.618 93.2498 238.738 93.4398 238.738L93.4598 238.748Z" fill="#DAB5A1"/>
<path d="M36.4698 263.588C36.4698 263.588 62.1498 269.218 72.3898 269.578C72.3898 269.578 75.3098 246.698 72.8598 231.758C72.8598 231.758 49.3698 225.538 40.7798 218.368" fill="white"/>
<path d="M165.05 215.259C165.05 215.259 151.7 223.619 145.25 227.579C145.25 227.579 154.33 243.169 148.77 263.899C148.77 263.899 157.59 263.499 165.69 260.469" fill="white"/>
<path d="M129 50.6656C129 51.7695 129.892 52.668 131 52.668C132.108 52.668 133 51.7743 133 50.6656C133 49.5569 132.108 48.668 131 48.668C129.892 48.668 129 49.5616 129 50.6656Z" fill="#272C35"/>
<path d="M109 50.6656C109 51.7695 109.9 52.668 111 52.668C112.1 52.668 113 51.7743 113 50.6656C113 49.5569 112.108 48.668 111 48.668C109.892 48.668 109 49.5616 109 50.6656Z" fill="#272C35"/>
<path d="M183.61 226.768C183.69 226.768 183.78 226.748 183.86 226.708C184.1 226.568 184.18 226.268 184.05 226.028C179.28 217.648 168.65 215.138 168.2 215.038C167.93 214.978 167.66 215.148 167.6 215.418C167.54 215.688 167.71 215.958 167.98 216.018C168.09 216.048 178.64 218.538 183.19 226.528C183.28 226.688 183.45 226.778 183.62 226.778L183.61 226.768Z" fill="#BCC6D6"/>
<path d="M20.0301 221.399C20.1201 221.399 20.2001 221.379 20.2801 221.329C26.9901 217.369 37.3601 217.779 37.4601 217.779C37.7901 217.779 37.9701 217.579 37.9801 217.299C37.9901 217.019 37.7801 216.789 37.5001 216.779C37.0601 216.759 26.7401 216.349 19.7701 220.469C19.5301 220.609 19.4501 220.919 19.5901 221.159C19.6801 221.319 19.8501 221.409 20.0201 221.409L20.0301 221.399Z" fill="#BCC6D6"/>
<path d="M63.1014 160.694C63.1014 161.512 63.7507 161.935 64.5318 161.928L87.5899 161.772C88.3711 161.772 89 161.428 89 160.428L88.8986 153.691C88.8986 153.267 88.2493 152.921 87.4682 152.928L64.4101 153.083C63.6226 153.083 63.1014 153.507 63.1014 154.22V161.171V160.694Z" fill="#B3BFD2"/>
<g style="mix-blend-mode:multiply">
<path d="M44.7206 116.849C44.7206 116.849 29.1706 122.079 20.3606 152.009C20.3606 152.009 0.880615 210.689 1.11062 230.469C1.11062 230.469 2.47062 251.359 26.4406 260.869C26.4406 260.869 58.4906 268.919 72.3906 269.589V260.869C72.3906 260.869 23.3606 249.889 22.7306 224.589C22.7306 224.589 19.5806 193.859 28.7506 157.879C28.7506 157.879 35.2606 128.129 44.7206 116.849Z" fill="#DDE2EC"/>
</g>
<path d="M75.6703 91.0585C75.9003 91.0585 76.1003 90.9085 76.1603 90.6785C77.7403 84.0785 77.0403 72.5785 77.0103 72.0885C76.9903 71.8185 76.7703 71.6085 76.4803 71.6185C76.2003 71.6385 75.9903 71.8685 76.0103 72.1485C76.0103 72.2685 76.7303 83.9885 75.1803 90.4385C75.1203 90.7085 75.2803 90.9785 75.5503 91.0385C75.5903 91.0385 75.6303 91.0485 75.6703 91.0485V91.0585Z" fill="#272C35"/>
<path d="M126.34 69.8683C126.34 69.8683 119.34 69.3883 112.35 68.7783C112.35 68.7783 112.33 76.6283 119.11 77.0983C119.11 77.0983 124.49 77.2783 126.34 69.8683Z" fill="#C93C3C"/>
</g>
<defs>
<clipPath id="clip0_2711_4874">
<rect width="197.96" height="322.52" fill="white" transform="matrix(-1 0 0 1 197.96 0.668945)"/>
</clipPath>
</defs>
</svg>
