<svg width="201" height="183" viewBox="0 0 201 183" fill="none" xmlns="http://www.w3.org/2000/svg">
<path d="M27 70.4182L48.0526 78.7091L69.1053 87M62.0877 47.7273L67.3509 55.5818L76.5614 69.1091M102 39V48.6V57.7636" stroke="url(#paint0_linear_2828_5750)" stroke-width="2" stroke-linecap="round" stroke-linejoin="round" stroke-dasharray="4 6"/>
<path d="M141.729 43.5713L129.77 55.3356L116.664 68.4422" stroke="url(#paint1_linear_2828_5750)" stroke-width="2" stroke-linecap="round" stroke-linejoin="round" stroke-dasharray="4 6"/>
<path d="M166.334 73.2002L144.548 81.043L116.134 91.4449" stroke="url(#paint2_linear_2828_5750)" stroke-width="2" stroke-linecap="round" stroke-linejoin="round" stroke-dasharray="4 6"/>
<g clip-path="url(#clip0_2828_5750)">
<path d="M143.988 149.318C143.579 162.154 142.212 173.554 137.734 178.181L116.652 170.805H78.7138L64.7059 179.63C57.2809 173.516 55.8092 166.44 55.0671 154.765C54.6377 148.093 56.2637 133.149 61.9127 124.457C66.1942 117.876 71.1679 113.711 76.5042 111.366C76.771 111.245 77.0337 111.137 77.3005 111.033C77.8341 110.816 78.3761 110.612 78.9139 110.433C83.9167 108.759 89.1947 108.542 94.5018 109.325H104.403C110.136 108.509 115.218 108.651 120.1 110.387C120.633 110.579 121.171 110.791 121.7 111.021C121.967 111.133 122.23 111.258 122.497 111.379C126.624 113.332 130.647 116.527 134.849 121.379C141.841 129.438 144.18 143.17 143.984 149.318H143.988Z" fill="#DDAA9A"/>
<path d="M74.9752 114.605C79.2668 111.916 81.0144 106.978 78.8787 103.576C76.743 100.173 71.5327 99.5941 67.2412 102.283C62.9497 104.971 61.202 109.909 63.3377 113.311C65.4734 116.714 70.6837 117.293 74.9752 114.605Z" fill="#4C3923"/>
<path d="M136.909 111.162C138.1 107.326 135.143 103.001 130.305 101.502C125.467 100.003 120.579 101.898 119.389 105.734C118.198 109.57 121.155 113.895 125.993 115.394C130.831 116.893 135.718 114.998 136.909 111.162Z" fill="#4C3923"/>
<path d="M85.6716 67.9002C89.3821 68.904 93.2092 69.4371 97.053 69.4871C97.4574 69.4912 97.4574 68.8665 97.053 68.8623C93.2592 68.8123 89.4988 68.2875 85.8384 67.2963C85.4507 67.1921 85.2839 67.7919 85.6716 67.9002Z" fill="black"/>
<path d="M96.9271 65.0559C101.242 65.2683 105.515 66.0055 109.651 67.255C110.039 67.3717 110.201 66.7677 109.818 66.6511C105.628 65.3891 101.296 64.6436 96.9271 64.4312C96.5269 64.4103 96.5269 65.0351 96.9271 65.0559Z" fill="black"/>
<path d="M126.724 100.163C124.79 102.774 120.604 104.457 118.303 102.841C116.002 101.225 117.111 97.5014 118.787 94.6983C120.463 91.8953 123.994 90.1252 126.295 91.7412C128.596 93.3572 128.771 97.4056 126.724 100.163Z" fill="#FFE5DC"/>
<path d="M122.567 85.8937C122.421 87.0474 122.154 88.3302 122.104 89.3382C121.866 94.3403 122.096 96.7727 122.383 100.163C122.567 102.333 122.709 108.514 118.931 111.933C113.874 116.511 107.779 119.314 101.201 119.247C90.1986 119.134 87.6638 116.231 85.1082 114.69C71.0754 106.231 74.9484 80.3876 74.569 77.8803L93.1711 68.3633L113.132 70.6457L122.567 85.8937Z" fill="#FFE5DC"/>
<path d="M109.836 93.957C109.836 94.9358 110.482 95.7146 111.283 95.698C112.083 95.6813 112.729 94.8733 112.729 93.8945C112.729 92.9158 112.083 92.1369 111.283 92.1536C110.482 92.1702 109.836 92.9782 109.836 93.957Z" fill="#050505"/>
<path d="M90.0449 94.9189C90.0449 95.8977 90.6911 96.6766 91.4916 96.6599C92.292 96.6432 92.9382 95.8352 92.9382 94.8565C92.9382 93.8777 92.292 93.0988 91.4916 93.1155C90.6911 93.1322 90.0449 93.9402 90.0449 94.9189Z" fill="#050505"/>
<path d="M106.566 103.686C105.253 103.257 99.012 103.57 96.7941 103.882C96.3438 103.945 96.077 104.419 96.2354 104.857C96.8983 106.673 98.2991 110.825 103.577 110.009C106.287 109.588 106.841 105.727 106.95 104.386C106.975 104.095 106.837 103.774 106.566 103.686Z" fill="#C93C3C"/>
<path d="M122.08 92.153C127.829 80.0704 122.626 66.3264 110.686 62.4904C97.908 57.8298 84.7715 59.9873 77.2006 66.6179C66.6738 75.8309 65.3939 94.5146 77.3715 105.656L77.0838 99.9457C82.0991 95.6516 85.0008 88.9002 85.6261 82.4195C85.7804 80.8201 85.7929 80.9488 85.6261 79.3494C85.4844 77.9875 85.2634 77.3104 84.5047 76.1442C89.2198 76.4274 93.8391 74.0057 98.5417 73.5809C102.356 73.2352 106.263 73.6434 109.831 75.0303C112.541 76.0841 114.963 77.4991 116.952 79.6274C119.003 81.8265 120.006 83.4667 120.878 86.17C121.249 87.3195 122.08 90.9678 122.084 92.1489L122.08 92.153Z" fill="#4C3923"/>
<path d="M102.122 100.205C102.376 99.913 102.589 99.5673 102.718 99.1966C102.831 98.8676 103.006 98.3928 102.81 98.0721C102.714 97.9138 102.564 97.793 102.443 97.6597C102.293 97.4973 102.151 97.3307 102.018 97.1558C101.738 96.7934 101.488 96.4144 101.272 96.0062C100.959 95.419 101.834 94.8942 102.147 95.4814C102.38 95.9188 102.647 96.3353 102.968 96.7101C103.298 97.0974 103.727 97.4348 103.86 97.9596C103.99 98.4719 103.852 99.0675 103.669 99.5506C103.477 100.067 103.202 100.525 102.843 100.942C102.41 101.442 101.697 100.704 102.126 100.209L102.122 100.205Z" fill="#D6A490"/>
<path d="M112.15 85.0017C111.199 83.6523 109.411 83.0983 107.88 83.6189C107.509 83.7439 107.351 83.1441 107.718 83.0192C109.523 82.4069 111.566 83.1192 112.671 84.6894C112.9 85.0142 112.375 85.3266 112.145 85.0017H112.15Z" fill="black"/>
<path d="M89.5191 85.9846C90.7156 84.4186 92.3498 82.9109 94.4385 83.2191C94.6011 83.2441 94.6887 83.4565 94.6511 83.6023C94.6053 83.7814 94.4385 83.8438 94.2759 83.8188C92.4374 83.5481 90.9782 85.0767 89.9485 86.4261C89.7067 86.7427 89.2815 86.297 89.5191 85.9846Z" fill="black"/>
<path d="M71.8005 101.991C73.7349 104.602 77.9206 106.285 80.226 104.669C82.5273 103.053 81.4184 99.3295 79.7424 96.5264C78.0665 93.7234 74.5353 91.9533 72.234 93.5693C69.9327 95.1853 69.7577 99.2337 71.8046 101.991H71.8005Z" fill="#FFE5DC"/>
<path d="M80.3764 75.3262C80.4682 78.0418 80.5599 80.7574 80.6558 83.473C80.6683 83.8728 80.0638 83.8728 80.0471 83.473C79.9554 80.7574 79.8637 78.0418 79.7678 75.3262C79.7553 74.9264 80.3598 74.9264 80.3764 75.3262Z" fill="black"/>
<path d="M107.387 121.241C108.342 114.694 115.842 113.753 118.206 108.417C119.19 106.951 122.75 98.7961 122.366 102.64C122.671 99.6124 124.901 96.8927 126.073 100.874C126.898 97.0551 128.857 98.7711 129.312 101.516C130.008 105.477 129.233 109.725 127.603 113.374C125.418 117.439 122.275 121.137 119.398 124.573C119.398 124.573 118.368 123.12 122.229 131.345C118.527 133.545 113.736 134.19 106.953 133.724C106.066 122.495 107.029 123.715 107.391 121.241H107.387Z" fill="#FFE5DC"/>
<path d="M80.2151 129.101C84.1256 120.775 82.2538 124.578 82.2538 124.578C79.3771 121.142 76.2337 117.443 74.0492 113.378C72.4191 109.73 71.6436 105.482 72.3399 101.521C72.7943 98.776 74.7495 97.06 75.5792 100.879C76.7465 96.8976 78.9811 99.6173 79.2854 102.645C78.9019 98.7968 82.4622 106.956 83.4461 108.422C85.8099 113.757 93.31 114.703 94.2647 121.246C94.619 123.687 94.7316 123.416 93.8811 134.441C89.4703 135.078 86.7021 134.632 80.2193 129.101H80.2151Z" fill="#FFE5DC"/>
<path d="M121.992 112.524C122.796 110.463 123.443 108.326 123.218 106.085C123.122 105.14 122.901 104.186 122.43 103.353C122.067 102.712 121.371 101.804 120.554 101.791C119.561 101.775 119.24 102.874 119.257 103.665C119.278 104.765 119.249 105.802 118.944 106.868C118.34 109.001 117.01 110.688 115.234 111.975C113.295 113.374 111.202 114.678 109.727 116.598C109.481 116.914 110.023 117.227 110.269 116.914C112.62 113.857 116.676 112.649 118.627 109.234C119.511 107.685 119.97 105.906 119.907 104.124C119.891 103.624 119.761 102.874 120.245 102.541C120.749 102.191 121.321 102.857 121.604 103.228C122.15 103.945 122.421 104.84 122.555 105.719C122.901 108.018 122.225 110.242 121.396 112.362C121.25 112.737 121.854 112.899 122 112.529L121.992 112.524Z" fill="#D6A490"/>
<path d="M126.541 110.383C127.058 107.197 127.575 103.811 126.282 100.733C125.899 99.8169 125.132 98.2134 123.869 98.4883C122.468 98.7923 122.359 100.946 122.184 102.049C122.122 102.441 122.726 102.612 122.789 102.216C122.905 101.475 123.118 98.6132 124.423 99.163C124.948 99.3838 125.244 100.017 125.486 100.492C125.77 101.05 125.978 101.641 126.132 102.245C126.799 104.865 126.366 107.593 125.94 110.217C125.878 110.608 126.478 110.779 126.545 110.383H126.541Z" fill="#D6A490"/>
<path d="M80.2603 112.358C79.5099 110.438 78.8929 108.476 79.0305 106.385C79.0888 105.502 79.2723 104.586 79.6892 103.795C79.8893 103.416 80.1353 103.07 80.4563 102.783C80.6647 102.595 80.8857 102.404 81.1817 102.449C81.5777 102.512 81.7153 102.903 81.757 103.257C81.8154 103.753 81.732 104.261 81.7487 104.757C81.7612 105.207 81.8154 105.661 81.8904 106.102C82.0405 106.964 82.3198 107.806 82.695 108.593C83.4955 110.275 84.7378 111.529 86.2345 112.604C88.0397 113.899 90.0158 115.123 91.3874 116.906C91.6292 117.218 92.1712 116.906 91.9294 116.589C90.6245 114.89 88.8235 113.674 87.0933 112.445C86.1928 111.808 85.3048 111.175 84.5794 110.338C83.8874 109.538 83.3371 108.605 82.9618 107.618C82.5866 106.627 82.3782 105.573 82.374 104.511C82.3698 103.624 82.5825 102.458 81.6569 101.929C80.8523 101.466 80.031 102.233 79.5683 102.837C79.0013 103.574 78.6886 104.482 78.5302 105.39C78.1091 107.86 78.772 110.23 79.6642 112.516C79.8101 112.887 80.4146 112.724 80.2687 112.35L80.2603 112.358Z" fill="#D6A490"/>
<path d="M75.7113 110.217C75.2861 107.593 74.8483 104.869 75.5195 102.245C75.6738 101.641 75.8822 101.05 76.1657 100.492C76.4034 100.021 76.6827 99.4507 77.1705 99.1924C78.5046 98.4969 78.7505 101.479 78.8673 102.212C78.9298 102.608 79.5343 102.441 79.4718 102.045C79.2967 100.942 79.1883 98.7884 77.7875 98.4844C76.5243 98.2095 75.7572 99.813 75.3736 100.729C74.0812 103.803 74.5982 107.193 75.1152 110.38C75.1777 110.775 75.7822 110.609 75.7197 110.213L75.7113 110.217Z" fill="#D6A490"/>
<path d="M76.358 99.413C76.1954 98.7382 75.5826 98.2426 74.8947 98.1885C74.1359 98.126 73.5439 98.6758 73.1812 99.288C72.264 100.85 71.9514 102.841 72.0806 104.628C72.1098 105.027 72.7351 105.027 72.7059 104.628C72.5975 103.124 72.8268 101.6 73.423 100.208C73.644 99.692 73.9566 99.0006 74.5528 98.8382C75.0781 98.6924 75.6284 99.0673 75.7493 99.5796C75.8452 99.9711 76.4455 99.8045 76.3538 99.413H76.358Z" fill="#D6A490"/>
<path d="M101.351 147.905C101.351 147.139 100.73 146.519 99.9625 146.519C99.1954 146.519 98.5742 147.139 98.5742 147.905C98.5742 148.672 99.1954 149.292 99.9625 149.292C100.73 149.292 101.351 148.672 101.351 147.905Z" fill="white"/>
<path d="M101.351 160.268C101.351 159.501 100.73 158.881 99.9625 158.881C99.1954 158.881 98.5742 159.501 98.5742 160.268C98.5742 161.034 99.1954 161.655 99.9625 161.655C100.73 161.655 101.351 161.034 101.351 160.268Z" fill="white"/>
<path d="M122.186 129.787C125.588 137.03 133.669 144.042 137.767 152.056C146.035 167.812 137.225 196.467 118.982 176.063C112.245 168.524 107.735 149.243 106.48 133.416C113.263 133.878 118.48 131.99 122.186 129.787Z" fill="#CD9584"/>
<path d="M63.8837 151.921C67.9444 143.978 75.6094 134.816 78.9946 127.606C85.4775 133.138 90.2897 133.474 94.7005 132.84C93.4707 148.755 89.4731 168.314 82.6693 175.924C64.4257 196.332 55.6166 167.677 63.8837 151.917V151.921Z" fill="#CD9584"/>
</g>
<circle cx="17.5" cy="63.5" r="17.5" fill="#F5F1EF"/>
<ellipse cx="52" cy="30.5" rx="17" ry="17.5" fill="#F5F1EF"/>
<ellipse cx="101" cy="17.5" rx="17" ry="17.5" fill="#F5F1EF"/>
<circle cx="151.5" cy="30.5" r="17.5" fill="#F5F1EF"/>
<ellipse cx="183.5" cy="68" rx="17.5" ry="17" fill="#F5F1EF"/>
<defs>
<linearGradient id="paint0_linear_2828_5750" x1="48.0526" y1="35.5091" x2="99.0399" y2="102.088" gradientUnits="userSpaceOnUse">
<stop stop-color="#BDABA4" stop-opacity="0"/>
<stop offset="1" stop-color="#BDABA4"/>
</linearGradient>
<linearGradient id="paint1_linear_2828_5750" x1="143.477" y1="45.9691" x2="111.44" y2="69.3255" gradientUnits="userSpaceOnUse">
<stop stop-color="#BDABA4" stop-opacity="0"/>
<stop offset="1" stop-color="#BDABA4"/>
</linearGradient>
<linearGradient id="paint2_linear_2828_5750" x1="195.451" y1="93.986" x2="137.672" y2="112.627" gradientUnits="userSpaceOnUse">
<stop stop-color="#BDABA4" stop-opacity="0"/>
<stop offset="1" stop-color="#BDABA4"/>
</linearGradient>
<clipPath id="clip0_2828_5750">
<rect width="89" height="123" fill="white" transform="translate(55 60)"/>
</clipPath>
</defs>
</svg>
