<svg viewBox="0 0 40 40" fill="none" xmlns="http://www.w3.org/2000/svg">
<path fill-rule="evenodd" clip-rule="evenodd" d="M7.86473 19.9694L19.9945 7.79077L32.1728 19.9694H31.7988C32.325 20.3958 32.6614 21.0472 32.6614 21.7773V32.2244C32.6614 33.5088 31.6202 34.55 30.3359 34.55H9.40565C8.12127 34.55 7.08008 33.5088 7.08008 32.2244V21.7773C7.08008 21.0472 7.41649 20.3958 7.94274 19.9694H7.86473Z" fill="url(#paint0_linear_2688_19347)"/>
<path fill-rule="evenodd" clip-rule="evenodd" d="M19.9939 5.45007C20.3024 5.44984 20.5984 5.57223 20.8166 5.79028L34.6591 19.6203C35.1134 20.0742 35.1137 20.8105 34.6598 21.2648C34.2059 21.7191 33.4697 21.7194 33.0154 21.2655L19.996 8.25778L6.98586 21.295C6.53223 21.7496 5.796 21.7503 5.34143 21.2967C4.88686 20.8431 4.88609 20.1068 5.33972 19.6523L19.1717 5.7915C19.3896 5.57313 19.6854 5.4503 19.9939 5.45007Z" fill="#FF8514"/>
<path d="M19.4159 18.7421C19.6638 18.286 20.3369 18.286 20.5849 18.7421L21.8687 21.1035C21.9644 21.2794 22.1387 21.4023 22.3406 21.4362L25.0515 21.8914C25.5751 21.9794 25.7831 22.6006 25.4128 22.9704L23.4953 24.8851C23.3525 25.0277 23.2859 25.2265 23.3151 25.4234L23.7067 28.0661C23.7823 28.5766 23.2378 28.9605 22.7609 28.733L20.292 27.5549C20.1081 27.4671 19.8927 27.4671 19.7088 27.5549L17.2399 28.733C16.763 28.9605 16.2184 28.5766 16.2941 28.0661L16.6857 25.4234C16.7149 25.2265 16.6483 25.0277 16.5055 24.8851L14.588 22.9704C14.2176 22.6006 14.4256 21.9794 14.9492 21.8914L17.6602 21.4362C17.8621 21.4023 18.0364 21.2794 18.132 21.1035L19.4159 18.7421Z" fill="white"/>
<defs>
<linearGradient id="paint0_linear_2688_19347" x1="17.0961" y1="9.33843" x2="31.6198" y2="34.55" gradientUnits="userSpaceOnUse">
<stop offset="0.0001" stop-color="#FFB36C"/>
<stop offset="1" stop-color="#FFA959"/>
</linearGradient>
</defs>
</svg>
