<svg viewBox="0 0 40 40" fill="none" xmlns="http://www.w3.org/2000/svg">
<path d="M27.6386 24.9977C27.6386 18.5551 22.1976 13.3323 15.4858 13.3323C8.77399 13.3323 3.33301 18.5551 3.33301 24.9977C3.33301 26.9141 3.81572 28.7649 4.72438 30.4224L3.3677 35.425C3.32326 35.5888 3.32327 35.7609 3.36774 35.9248C3.51154 36.4547 4.07566 36.7724 4.62774 36.6344L9.84176 35.3313C11.5667 36.2011 13.4922 36.6632 15.4858 36.6632C22.1976 36.6632 27.6386 31.4404 27.6386 24.9977Z" fill="url(#paint0_radial_2688_19340)"/>
<path d="M7.49935 17.3298C7.49935 9.5998 14.0285 3.33337 22.0827 3.33337C30.1368 3.33337 36.666 9.5998 36.666 17.3298C36.666 19.6291 36.0868 21.8498 34.9964 23.8385L36.6244 29.8407C36.6777 30.0373 36.6777 30.2437 36.6243 30.4403C36.4518 31.0762 35.7748 31.4574 35.1123 31.2917L28.8555 29.7283C26.7856 30.7719 24.475 31.3263 22.0827 31.3263C14.0285 31.3263 7.49935 25.0599 7.49935 17.3298Z" fill="url(#paint1_radial_2688_19340)"/>
<path fill-rule="evenodd" clip-rule="evenodd" d="M21.2322 24.7896C21.4593 24.9268 21.7263 25 21.9994 25C22.3656 25 22.7169 24.8685 22.9759 24.6343C23.2348 24.4002 23.3803 24.0826 23.3803 23.7515C23.3803 23.5045 23.2993 23.2631 23.1476 23.0578C22.9959 22.8525 22.7802 22.6925 22.5279 22.598C22.2755 22.5035 21.9979 22.4788 21.73 22.5269C21.4621 22.5751 21.216 22.694 21.0229 22.8686C20.8298 23.0432 20.6983 23.2657 20.645 23.5079C20.5917 23.7501 20.619 24.0011 20.7236 24.2293C20.8281 24.4574 21.0051 24.6524 21.2322 24.7896ZM23.3803 20.0059V18.5576C24.2401 18.3258 25.0116 17.8822 25.6084 17.2765C26.2052 16.6708 26.6037 15.9269 26.7594 15.128C26.915 14.3291 26.8217 13.5068 26.4898 12.7532C26.1578 11.9996 25.6004 11.3444 24.88 10.8609C24.1595 10.3775 23.3045 10.0848 22.4105 10.0158C21.5166 9.94684 20.619 10.1042 19.8183 10.4702C19.0177 10.8362 18.3455 11.3965 17.8771 12.0884C17.4086 12.7802 17.1624 13.5763 17.1661 14.3875C17.1661 14.7186 17.3115 15.0362 17.5705 15.2703C17.8295 15.5045 18.1808 15.636 18.547 15.636C18.9133 15.636 19.2645 15.5045 19.5235 15.2703C19.7825 15.0362 19.928 14.7186 19.928 14.3875C19.928 14.0171 20.0494 13.655 20.2771 13.347C20.5047 13.039 20.8282 12.799 21.2067 12.6572C21.5852 12.5155 22.0017 12.4784 22.4035 12.5507C22.8053 12.6229 23.1744 12.8013 23.4641 13.0632C23.7538 13.3251 23.9511 13.6588 24.031 14.0221C24.1109 14.3854 24.0699 14.7619 23.9131 15.1042C23.7564 15.4464 23.4909 15.7389 23.1502 15.9446C22.8096 16.1504 22.4091 16.2603 21.9994 16.2603C21.6331 16.2603 21.2819 16.3918 21.0229 16.626C20.7639 16.8601 20.6184 17.1777 20.6184 17.5088V20.0059C20.6184 20.337 20.7639 20.6546 21.0229 20.8887C21.2819 21.1229 21.6331 21.2544 21.9994 21.2544C22.3656 21.2544 22.7169 21.1229 22.9759 20.8887C23.2348 20.6546 23.3803 20.337 23.3803 20.0059Z" fill="url(#paint2_linear_2688_19340)"/>
<defs>
<radialGradient id="paint0_radial_2688_19340" cx="0" cy="0" r="1" gradientUnits="userSpaceOnUse" gradientTransform="translate(18.333 23.3333) rotate(137.49) scale(13.5657 14.1303)">
<stop stop-color="#FFB4C4"/>
<stop offset="1" stop-color="#FF94A8"/>
</radialGradient>
<radialGradient id="paint1_radial_2688_19340" cx="0" cy="0" r="1" gradientUnits="userSpaceOnUse" gradientTransform="translate(26.666 25.8334) rotate(-123.024) scale(19.8781 20.7085)">
<stop stop-color="#FF507A"/>
<stop offset="1" stop-color="#FF6782"/>
</radialGradient>
<linearGradient id="paint2_linear_2688_19340" x1="19.166" y1="11.6667" x2="23.3327" y2="23.3333" gradientUnits="userSpaceOnUse">
<stop stop-color="white"/>
<stop offset="1" stop-color="#DFF1F0"/>
</linearGradient>
</defs>
</svg>
