<svg viewBox="0 0 44 44" fill="none" xmlns="http://www.w3.org/2000/svg">
<g clip-path="url(#clip0_2688_18063)">
<path d="M18.2246 3.68848C17.7589 3.68848 17.3809 4.06648 17.3809 4.53223C17.3809 4.99798 17.7589 5.37598 18.2246 5.37598C18.6904 5.37598 19.0684 4.99798 19.0684 4.53223C19.0684 4.06648 18.6904 3.68848 18.2246 3.68848Z" fill="#2AC1BC"/>
<path d="M8.09961 14.8262C7.63386 14.8262 7.25586 15.2042 7.25586 15.6699C7.25586 16.1357 7.63386 16.5137 8.09961 16.5137C8.56536 16.5137 8.94336 16.1357 8.94336 15.6699C8.94336 15.2042 8.56536 14.8262 8.09961 14.8262Z" fill="#2AC1BC"/>
<path d="M8.09961 19.8887C7.63386 19.8887 7.25586 20.2667 7.25586 20.7324C7.25586 21.1982 7.63386 21.5762 8.09961 21.5762C8.56536 21.5762 8.94336 21.1982 8.94336 20.7324C8.94336 20.2667 8.56536 19.8887 8.09961 19.8887Z" fill="#2AC1BC"/>
<path d="M8.09961 24.9512C7.63386 24.9512 7.25586 25.3292 7.25586 25.7949C7.25586 26.2607 7.63386 26.6387 8.09961 26.6387C8.56536 26.6387 8.94336 26.2607 8.94336 25.7949C8.94336 25.3292 8.56536 24.9512 8.09961 24.9512Z" fill="#2AC1BC"/>
<path d="M8.09961 30.0137C7.63386 30.0137 7.25586 30.3917 7.25586 30.8574C7.25586 31.3232 7.63386 31.7012 8.09961 31.7012C8.56536 31.7012 8.94336 31.3232 8.94336 30.8574C8.94336 30.3917 8.56536 30.0137 8.09961 30.0137Z" fill="#2AC1BC"/>
<path d="M8.09961 35.0762C7.63386 35.0762 7.25586 35.4542 7.25586 35.9199C7.25586 36.3857 7.63386 36.7637 8.09961 36.7637C8.56536 36.7637 8.94336 36.3857 8.94336 35.9199C8.94336 35.4542 8.56536 35.0762 8.09961 35.0762Z" fill="#2AC1BC"/>
<path d="M28.3496 14.8262H11.4746C11.0087 14.8262 10.6309 15.204 10.6309 15.6699C10.6309 16.1358 11.0087 16.5137 11.4746 16.5137H28.3496C28.8155 16.5137 29.1934 16.1358 29.1934 15.6699C29.1934 15.204 28.8155 14.8262 28.3496 14.8262Z" fill="#2AC1BC"/>
<path d="M28.3496 19.8887H11.4746C11.0087 19.8887 10.6309 20.2665 10.6309 20.7324C10.6309 21.1983 11.0087 21.5762 11.4746 21.5762H28.3496C28.8155 21.5762 29.1934 21.1983 29.1934 20.7324C29.1934 20.2665 28.8155 19.8887 28.3496 19.8887Z" fill="#2AC1BC"/>
<path d="M28.3496 24.9512H11.4746C11.0087 24.9512 10.6309 25.329 10.6309 25.7949C10.6309 26.2608 11.0087 26.6387 11.4746 26.6387H28.3496C28.8155 26.6387 29.1934 26.2608 29.1934 25.7949C29.1934 25.329 28.8155 24.9512 28.3496 24.9512Z" fill="#2AC1BC"/>
<path d="M35.6963 32.792C35.3667 32.4626 34.8326 32.4626 34.5031 32.792L31.7247 35.5703L30.6338 34.4795C30.3042 34.1501 29.7701 34.1501 29.4405 34.4795C29.111 34.8089 29.111 35.3432 29.4405 35.6728L31.128 37.3603C31.2928 37.525 31.5087 37.6074 31.7247 37.6074C31.9407 37.6074 32.1565 37.525 32.3213 37.3603L35.6963 33.9853C36.0258 33.6558 36.0258 33.1215 35.6963 32.792Z" fill="#2AC1BC"/>
<path d="M34.2559 26.8077V7.90723C34.2559 6.5115 33.1203 5.37598 31.7246 5.37598H25.6732C25.3249 4.39394 24.3871 3.68848 23.2871 3.68848H22.3586C21.9666 1.76523 20.2619 0.313477 18.2246 0.313477C16.1873 0.313477 14.4826 1.76523 14.0907 3.68848H13.1621C12.0622 3.68848 11.1243 4.39394 10.776 5.37598H4.72461C3.32888 5.37598 2.19336 6.5115 2.19336 7.90723V40.9822C2.19336 42.378 3.32888 43.5135 4.72461 43.5135H32.5684C37.2209 43.5135 41.0059 39.7285 41.0059 35.076C41.0059 31.0237 38.153 27.5944 34.2559 26.8077ZM12.3184 6.21973C12.3184 5.75448 12.6969 5.37598 13.1621 5.37598H14.8496C15.3155 5.37598 15.6934 4.99815 15.6934 4.53223C15.6934 3.1365 16.8289 2.00098 18.2246 2.00098C19.6203 2.00098 20.7559 3.1365 20.7559 4.53223C20.7559 4.99815 21.1337 5.37598 21.5996 5.37598H23.2871C23.7524 5.37598 24.1309 5.75448 24.1309 6.21973V7.06348H12.3184V6.21973ZM4.72461 41.826C4.25937 41.826 3.88086 41.4475 3.88086 40.9822V7.90723C3.88086 7.44198 4.25937 7.06348 4.72461 7.06348H10.6309V7.90723C10.6309 8.37315 11.0087 8.75098 11.4746 8.75098H24.9746C25.4405 8.75098 25.8184 8.37315 25.8184 7.90723V7.06348H31.7246C32.1899 7.06348 32.5684 7.44198 32.5684 7.90723V26.6385C29.8998 26.6385 27.4101 27.8923 25.8189 30.0135H11.4746C11.0087 30.0135 10.6309 30.3913 10.6309 30.8572C10.6309 31.3231 11.0087 31.6925 11.4746 31.6925H24.8339C24.3717 32.7497 24.1309 33.9028 24.1309 35.076H11.4746C11.0087 35.076 10.6309 35.4538 10.6309 35.9197C10.6309 36.3856 11.0087 36.7635 11.4746 36.7635H24.3001C24.7189 38.8378 25.8861 40.6161 27.4979 41.826H4.72461ZM32.5684 41.826C29.1214 41.826 26.2374 39.2471 25.8597 35.8278C25.8323 35.5773 25.8184 35.3243 25.8184 35.076C25.8184 33.7341 26.2107 32.4388 26.9531 31.3293C26.9535 31.3289 26.9537 31.3284 26.954 31.328C26.9543 31.3274 26.9546 31.3269 26.9549 31.3265C28.2122 29.4477 30.3106 28.326 32.5684 28.326C32.8167 28.326 33.0696 28.3399 33.3202 28.3673C36.7398 28.7453 39.3184 31.6293 39.3184 35.076C39.3184 38.7979 36.2903 41.826 32.5684 41.826Z" fill="#2AC1BC"/>
</g>
<defs>
<clipPath id="clip0_2688_18063">
<rect width="43.2" height="43.2" fill="white" transform="translate(0 0.313477)"/>
</clipPath>
</defs>
</svg>
