<svg width="260" height="41" viewBox="0 0 260 41" fill="none" xmlns="http://www.w3.org/2000/svg">
<g clip-path="url(#clip0_3099_15918)">
<path d="M207.469 13.5253C207.148 13.2492 206.766 13.1101 206.33 13.1101H203.867V9.69242C203.867 9.14028 203.677 8.71654 203.305 8.43405C202.951 8.1644 202.551 8.02744 202.117 8.02744C201.643 8.02744 201.236 8.16654 200.907 8.44047C200.597 8.69942 200.396 9.11246 200.396 9.49339V19.5475C200.396 20.2666 200.55 20.7031 200.907 21.0006C201.234 21.2745 201.643 21.4136 202.117 21.4136C202.551 21.4136 202.948 21.2767 203.305 21.007C203.679 20.7245 203.867 20.3008 203.867 19.7487V16.3845H206.33C206.768 16.3845 207.15 16.2454 207.469 15.9693C207.796 15.6846 207.963 15.2738 207.963 14.7473C207.963 14.2208 207.796 13.8099 207.469 13.5253Z" fill="#FF8F6C"/>
<path d="M110.102 9.95351C109.522 9.40351 108.817 8.97122 108.007 8.66732C107.201 8.36557 106.265 8.21149 105.226 8.21149C104.188 8.21149 103.256 8.36557 102.461 8.66732C101.661 8.97122 100.962 9.40351 100.383 9.95351C99.8019 10.5035 99.3531 11.1562 99.0474 11.8924C98.7418 12.6243 98.5879 13.4097 98.5879 14.223V28.0993C98.5879 28.9125 98.7418 29.6958 99.0474 30.4298C99.3531 31.166 99.804 31.8166 100.383 32.3687C100.962 32.9187 101.661 33.351 102.461 33.6549C103.258 33.9588 104.188 34.1108 105.226 34.1108C106.265 34.1108 107.201 33.9567 108.007 33.6549C108.817 33.351 109.522 32.9166 110.102 32.3687C110.681 31.8187 111.136 31.1681 111.45 30.4341C111.767 29.7001 111.925 28.9146 111.925 28.1014V14.2251C111.925 13.4119 111.764 12.6265 111.45 11.8924C111.134 11.1584 110.681 10.5078 110.099 9.95779L110.102 9.95351ZM108.242 15.0341V27.286C108.242 28.5423 107.988 29.4218 107.488 29.8991C106.981 30.3806 106.22 30.6246 105.229 30.6246C104.237 30.6246 103.512 30.3806 103.016 29.9012C102.523 29.424 102.273 28.5444 102.273 27.286V15.0341C102.273 13.7757 102.523 12.8961 103.016 12.421C103.512 11.9417 104.256 11.6977 105.229 11.6977C106.201 11.6977 106.981 11.9416 107.488 12.4232C107.988 12.9004 108.242 13.7778 108.242 15.0362V15.0341Z" fill="#FF8F6C"/>
<path d="M124.248 18.8691C123.909 18.5759 123.503 18.4282 123.039 18.4282H119.792V9.69243C119.792 9.10605 119.589 8.65235 119.187 8.34846C118.813 8.06383 118.392 7.92044 117.935 7.92044C117.435 7.92044 117.005 8.06811 116.657 8.35702C116.291 8.66305 116.107 9.11033 116.107 9.69243V32.8888C116.107 33.4687 116.293 33.9182 116.657 34.2242C117.005 34.5131 117.435 34.6608 117.935 34.6608C118.39 34.6608 118.811 34.5174 119.187 34.2328C119.589 33.9289 119.792 33.4752 119.792 32.8888V21.9166H123.039C123.503 21.9166 123.911 21.7689 124.248 21.4757C124.601 21.1718 124.781 20.7331 124.781 20.1724C124.781 19.6117 124.601 19.1751 124.248 18.8691Z" fill="#FF8F6C"/>
<path d="M148.635 25.5611C147.534 24.8742 145.931 24.5253 143.871 24.5253H133.781C131.72 24.5253 130.117 24.8742 129.014 25.5611C127.867 26.2781 127.283 27.5514 127.283 29.3469C127.283 31.1425 127.865 32.4137 129.014 33.1327C130.115 33.8197 131.718 34.1685 133.781 34.1685H143.871C145.931 34.1685 147.536 33.8197 148.637 33.1327C149.787 32.4158 150.368 31.1425 150.368 29.3469C150.368 27.5514 149.787 26.2802 148.637 25.5611H148.635ZM131.081 30.0746C131.03 29.974 130.97 29.7643 130.97 29.3469C130.97 28.9296 131.03 28.722 131.081 28.6193C131.145 28.493 131.256 28.3946 131.421 28.3176C131.56 28.2534 131.844 28.1656 132.413 28.0971C132.892 28.0415 133.488 28.0115 134.187 28.0115H143.465C144.164 28.0115 144.762 28.0393 145.239 28.0971C145.807 28.1635 146.092 28.2534 146.23 28.3176C146.395 28.3925 146.506 28.493 146.57 28.6193C146.622 28.722 146.681 28.9296 146.681 29.3469C146.681 29.7643 146.622 29.9718 146.57 30.0746C146.506 30.203 146.395 30.3014 146.23 30.3763C146.094 30.4384 145.809 30.5283 145.239 30.5967C144.76 30.6524 144.164 30.6823 143.465 30.6823H134.187C133.488 30.6823 132.889 30.6545 132.413 30.5967C131.844 30.5304 131.56 30.4405 131.421 30.3763C131.256 30.3014 131.145 30.2008 131.081 30.0746Z" fill="#FF8F6C"/>
<path d="M151.605 20.2067C151.267 19.9135 150.859 19.7658 150.395 19.7658H140.655V18.3448C140.655 17.9275 140.553 17.5786 140.348 17.3004H148.219C148.683 17.3004 149.091 17.1528 149.429 16.8596C149.782 16.5557 149.961 16.117 149.961 15.5563C149.961 14.9956 149.782 14.559 149.429 14.2529C149.089 13.9598 148.683 13.8121 148.219 13.8121H131.405V11.6955H147.901C148.365 11.6955 148.773 11.5479 149.111 11.2547C149.463 10.9508 149.643 10.5121 149.643 9.95138C149.643 9.39068 149.463 8.9541 149.111 8.64807C148.771 8.35488 148.365 8.20721 147.901 8.20721H130.708C130.123 8.20721 129.614 8.30566 129.197 8.49827C128.77 8.69515 128.434 8.96694 128.199 9.30294C127.966 9.63679 127.825 9.99846 127.78 10.3773C127.739 10.7154 127.72 11.0492 127.72 11.3724V14.131C127.72 14.4541 127.739 14.7901 127.78 15.1261C127.825 15.507 127.966 15.8687 128.199 16.2026C128.434 16.5386 128.77 16.8103 129.197 17.0072C129.614 17.1998 130.123 17.2983 130.708 17.2983H137.255C137.067 17.5744 136.971 17.9253 136.971 18.3426V19.7637H127.201C126.737 19.7637 126.329 19.9113 125.991 20.2045C125.639 20.5084 125.459 20.9471 125.459 21.5078C125.459 22.0685 125.639 22.5072 125.991 22.8111C126.329 23.1043 126.737 23.252 127.201 23.252H150.395C150.859 23.252 151.267 23.1043 151.605 22.8111C151.957 22.5072 152.137 22.0685 152.137 21.5078C152.137 20.9471 151.957 20.5105 151.605 20.2045V20.2067Z" fill="#FF8F6C"/>
<path d="M155.624 20.9193C156.027 21.1055 156.521 21.1997 157.09 21.1997H163.961C164.532 21.1997 165.023 21.1055 165.427 20.9193C165.838 20.7288 166.158 20.472 166.383 20.151C166.605 19.8321 166.74 19.4876 166.782 19.1238C166.821 18.7856 166.842 18.4561 166.842 18.1415V9.95353C166.842 9.40139 166.652 8.97765 166.28 8.69516C165.925 8.42551 165.526 8.28854 165.092 8.28854C164.617 8.28854 164.211 8.42765 163.882 8.70158C163.542 8.98621 163.371 9.40567 163.371 9.95353V12.3526H157.682V9.95353C157.682 9.40139 157.492 8.97765 157.12 8.69516C156.765 8.42551 156.365 8.28854 155.933 8.28854C155.459 8.28854 155.053 8.42765 154.724 8.70158C154.384 8.98621 154.213 9.40567 154.213 9.95353V18.1415C154.213 18.4604 154.232 18.7921 154.273 19.1238C154.315 19.4876 154.45 19.8321 154.672 20.151C154.897 20.472 155.217 20.7288 155.628 20.9193H155.624ZM157.682 17.9275V15.6269H163.371V17.9275H157.682Z" fill="#FF8F6C"/>
<path d="M179.926 13.5253C179.605 13.2492 179.223 13.1101 178.787 13.1101H176.325V9.69242C176.325 9.14028 176.134 8.71654 175.762 8.43405C175.408 8.1644 175.008 8.02744 174.574 8.02744C174.1 8.02744 173.693 8.16654 173.364 8.44047C173.054 8.69942 172.854 9.11246 172.854 9.49339V19.5475C172.854 20.2666 173.007 20.7031 173.364 21.0006C173.691 21.2745 174.1 21.4136 174.574 21.4136C175.008 21.4136 175.408 21.2767 175.762 21.007C176.136 20.7245 176.325 20.3008 176.325 19.7487V16.3845H178.787C179.225 16.3845 179.607 16.2454 179.926 15.9693C180.255 15.6846 180.42 15.2738 180.42 14.7473C180.42 14.2208 180.253 13.8099 179.926 13.5253Z" fill="#FF8F6C"/>
<path d="M176.729 31.2024C176.41 30.9263 176.028 30.7872 175.59 30.7872H157.944V29.8499H173.474C174.034 29.8499 174.497 29.7921 174.856 29.6808C175.228 29.5652 175.54 29.3748 175.788 29.1158C176.038 28.8547 176.199 28.5487 176.265 28.2106C176.325 27.9003 176.355 27.5771 176.355 27.2561V25.1374C176.355 24.8143 176.325 24.5018 176.263 24.2086C176.199 23.8962 176.053 23.5944 175.831 23.3076C175.6 23.0123 175.277 22.8004 174.867 22.6827C174.48 22.5715 174.012 22.5137 173.474 22.5137H156.106C155.668 22.5137 155.285 22.6528 154.967 22.9288C154.637 23.2113 154.473 23.6244 154.473 24.1508C154.473 24.6773 154.64 25.0903 154.967 25.3728C155.285 25.6489 155.668 25.788 156.106 25.788H172.882V26.5798H157.352C156.785 26.5798 156.305 26.659 155.924 26.8131C155.535 26.9715 155.223 27.1919 154.996 27.4722C154.772 27.7505 154.627 28.0608 154.56 28.3946C154.501 28.7071 154.471 29.0281 154.471 29.3491V31.4678C154.471 31.7888 154.501 32.1098 154.56 32.4223C154.627 32.7625 154.787 33.0664 155.037 33.3275C155.283 33.5843 155.597 33.7748 155.969 33.8925C156.328 34.0059 156.792 34.0616 157.352 34.0616H175.59C176.028 34.0616 176.41 33.9225 176.729 33.6464C177.058 33.3617 177.222 32.9509 177.222 32.4244C177.222 31.8979 177.056 31.487 176.729 31.2024Z" fill="#FF8F6C"/>
<path d="M183.167 20.7395C183.571 20.9257 184.065 21.0199 184.633 21.0199H193.418C193.856 21.0199 194.239 20.8808 194.557 20.6047C194.886 20.3222 195.051 19.9113 195.051 19.3827C195.051 18.8541 194.884 18.4454 194.557 18.1607C194.239 17.8847 193.854 17.7456 193.418 17.7456H185.223V11.6463H192.257C192.695 11.6463 193.078 11.5072 193.396 11.2312C193.726 10.9465 193.89 10.5356 193.89 10.0092C193.89 9.48271 193.723 9.07182 193.394 8.78719C193.076 8.51112 192.691 8.37201 192.255 8.37201H184.629C184.058 8.37201 183.565 8.46617 183.163 8.65236C182.753 8.84283 182.432 9.09964 182.208 9.42065C181.985 9.73952 181.851 10.0841 181.808 10.4479C181.769 10.7817 181.748 11.1113 181.748 11.4302V17.9574C181.748 18.2763 181.767 18.608 181.808 18.9397C181.851 19.3014 181.985 19.6481 182.208 19.967C182.432 20.288 182.753 20.5448 183.163 20.7353L183.167 20.7395Z" fill="#FF8F6C"/>
<path d="M204.272 31.2024C203.953 30.9263 203.569 30.7872 203.133 30.7872H185.487V29.7065H201.017C201.577 29.7065 202.04 29.6487 202.4 29.5374C202.771 29.4219 203.084 29.2314 203.331 28.9724C203.581 28.7113 203.742 28.4053 203.808 28.0672C203.868 27.7547 203.898 27.4337 203.898 27.1127V24.8485C203.898 24.5275 203.868 24.2129 203.806 23.9197C203.742 23.6072 203.596 23.3055 203.374 23.0187C203.143 22.7234 202.818 22.5115 202.408 22.3938C202.021 22.2825 201.553 22.2269 201.015 22.2269H183.647C183.209 22.2269 182.826 22.366 182.508 22.6421C182.178 22.9267 182.014 23.3376 182.014 23.8641C182.014 24.3905 182.181 24.8036 182.508 25.086C182.826 25.3621 183.209 25.5012 183.647 25.5012H200.423V26.4386H184.893C184.326 26.4386 183.846 26.5178 183.465 26.6718C183.076 26.8302 182.764 27.0506 182.537 27.331C182.313 27.6092 182.168 27.9195 182.101 28.2512C182.042 28.5637 182.012 28.8847 182.012 29.2057V31.4699C182.012 31.7909 182.042 32.1119 182.101 32.4244C182.168 32.7647 182.328 33.0686 182.578 33.3296C182.824 33.5865 183.138 33.7769 183.51 33.8946C183.869 34.008 184.333 34.0637 184.893 34.0637H203.131C203.569 34.0637 203.951 33.9246 204.27 33.6485C204.599 33.3639 204.763 32.953 204.763 32.4265C204.763 31.9001 204.597 31.4892 204.27 31.2045L204.272 31.2024Z" fill="#FF8F6C"/>
<path d="M219.591 16.6905C219.91 16.9666 220.292 17.1057 220.731 17.1057H224.199V24.2065C224.199 24.7543 224.373 25.1759 224.71 25.4584C225.037 25.7323 225.445 25.8714 225.92 25.8714C226.354 25.8714 226.751 25.7345 227.108 25.4648C227.482 25.1823 227.67 24.7586 227.67 24.2065V9.69242C227.67 9.14028 227.48 8.71654 227.108 8.43405C226.754 8.1644 226.354 8.02744 225.92 8.02744C225.445 8.02744 225.039 8.16654 224.71 8.44047C224.37 8.72296 224.199 9.14456 224.199 9.69242V13.8335H220.731C220.292 13.8335 219.91 13.9726 219.591 14.2487C219.262 14.5311 219.098 14.9442 219.098 15.4706C219.098 15.9971 219.264 16.4101 219.591 16.6926V16.6905Z" fill="#FF8F6C"/>
<path d="M232.948 31.2024C232.629 30.9263 232.244 30.7872 231.808 30.7872H213.93V26.3551C213.93 25.803 213.74 25.3792 213.368 25.0967C213.013 24.8271 212.613 24.6901 212.181 24.6901C211.707 24.6901 211.301 24.8292 210.972 25.1032C210.632 25.3878 210.461 25.8072 210.461 26.3551V31.0012C210.461 31.3201 210.48 31.6518 210.521 31.9835C210.564 32.3473 210.698 32.6919 210.92 33.0108C211.145 33.3318 211.465 33.5907 211.876 33.7791C212.28 33.9652 212.774 34.0594 213.342 34.0594H231.811C232.249 34.0594 232.631 33.9203 232.95 33.6442C233.279 33.3596 233.443 32.9487 233.443 32.4222C233.443 31.8958 233.277 31.4849 232.95 31.2003L232.948 31.2024Z" fill="#FF8F6C"/>
<path d="M229.989 25.4605C230.317 25.7345 230.725 25.8736 231.199 25.8736C231.633 25.8736 232.031 25.7366 232.385 25.467C232.759 25.1845 232.95 24.7607 232.95 24.2086V9.69242C232.95 9.14028 232.759 8.71654 232.385 8.43405C232.031 8.1644 231.631 8.02744 231.199 8.02744C230.725 8.02744 230.319 8.16654 229.989 8.44047C229.65 8.7251 229.477 9.14456 229.477 9.69242V24.2086C229.477 24.7565 229.65 25.1781 229.989 25.4605Z" fill="#FF8F6C"/>
<path d="M213.59 20.9493C214.071 20.4677 214.494 19.9584 214.849 19.4384C214.902 19.3592 214.949 19.2928 214.988 19.2372L215.073 19.3977L215.127 19.2672C215.144 19.2907 215.161 19.3142 215.18 19.3399C215.541 19.8471 215.962 20.35 216.435 20.8316C216.907 21.3152 217.426 21.7432 217.978 22.1092C218.529 22.4751 219.121 22.7705 219.743 22.9909C220.299 23.1621 220.793 23.1386 221.212 22.9181C221.624 22.6998 221.923 22.3489 222.101 21.8567C222.231 21.3773 222.18 20.9257 221.949 20.5191C221.72 20.1146 221.361 19.8321 220.897 19.6845C218.023 18.5673 216.627 16.2496 216.627 12.5965V10.129C216.627 9.57686 216.437 9.15313 216.065 8.87064C215.71 8.60099 215.31 8.46402 214.877 8.46402C214.402 8.46402 213.996 8.60313 213.667 8.87706C213.327 9.15955 213.156 9.58114 213.156 10.129V12.8876C213.156 14.7559 212.816 16.2668 212.143 17.3775C211.476 18.4817 210.369 19.3356 208.869 19.9113C208.392 20.0633 208.035 20.3458 207.806 20.7502C207.575 21.1568 207.524 21.6084 207.661 22.1049C207.834 22.58 208.131 22.9331 208.546 23.1493C208.762 23.2627 208.997 23.3205 209.249 23.3183C209.491 23.3183 209.749 23.267 210.018 23.1621C210.728 22.9246 211.386 22.6164 211.978 22.2397C212.568 21.8652 213.111 21.4308 213.594 20.9471L213.59 20.9493Z" fill="#FF8F6C"/>
<path d="M240.1 30.5946C240.1 30.6524 240.081 30.6674 240.042 30.6374C240.004 30.6075 239.993 30.5946 240.013 30.5946H247.638C248.025 30.5946 248.359 30.7145 248.639 30.9584C248.919 31.2003 249.06 31.5534 249.06 32.0178C249.06 32.4822 248.919 32.8353 248.639 33.0771C248.359 33.3189 248.025 33.4409 247.638 33.4409H239.724C239.183 33.4409 238.724 33.3532 238.348 33.1798C237.971 33.0065 237.681 32.7732 237.478 32.4822C237.275 32.1911 237.153 31.8829 237.114 31.5534C237.076 31.2238 237.057 30.9049 237.057 30.5946V11.4345C237.057 11.1242 237.076 10.8053 237.114 10.4757C237.153 10.1461 237.275 9.83796 237.478 9.54691C237.681 9.25586 237.971 9.02473 238.348 8.84925C238.724 8.6759 239.183 8.58816 239.724 8.58816H247.059C247.446 8.58816 247.78 8.71014 248.06 8.94983C248.34 9.19166 248.481 9.54477 248.481 10.0092C248.481 10.4736 248.34 10.8267 248.06 11.0685C247.78 11.3103 247.446 11.4323 247.059 11.4323H240.015C239.995 11.4323 240.004 11.4173 240.045 11.3895C240.083 11.3596 240.102 11.3745 240.102 11.4323V19.4748H246.886C247.273 19.4748 247.606 19.5967 247.886 19.8364C248.166 20.0783 248.307 20.4314 248.307 20.8958C248.307 21.3602 248.166 21.7133 247.886 21.9551C247.606 22.1969 247.273 22.3189 246.886 22.3189H240.102V30.5925L240.1 30.5946ZM250.872 19.693C251.152 19.4512 251.486 19.3292 251.872 19.3292H256.743V9.6903C256.743 9.20664 256.889 8.84497 257.177 8.601C257.468 8.35917 257.825 8.23718 258.25 8.23718C258.637 8.23718 258.99 8.35917 259.308 8.601C259.627 8.84283 259.787 9.20664 259.787 9.6903V32.8866C259.787 33.3703 259.627 33.7341 259.308 33.9759C258.99 34.2178 258.637 34.3398 258.25 34.3398C257.825 34.3398 257.468 34.2178 257.177 33.9759C256.887 33.7341 256.743 33.3703 256.743 32.8866V22.1734H251.872C251.486 22.1734 251.152 22.0536 250.872 21.8096C250.592 21.5678 250.451 21.2146 250.451 20.7502C250.451 20.2858 250.59 19.9327 250.872 19.6909V19.693Z" fill="#FF8F6C"/>
<path d="M258.249 34.5538C257.775 34.5538 257.369 34.4147 257.039 34.1407C256.7 33.8561 256.526 33.4345 256.526 32.8866V22.3874H251.869C251.431 22.3874 251.049 22.2483 250.73 21.9722C250.401 21.6897 250.236 21.2788 250.236 20.7502C250.236 20.2216 250.403 19.8129 250.73 19.5282C251.049 19.2522 251.433 19.1131 251.869 19.1131H256.526V9.68815C256.526 9.14029 256.7 8.71869 257.037 8.4362C257.366 8.16227 257.773 8.02316 258.247 8.02316C258.679 8.02316 259.078 8.16013 259.433 8.42978C259.807 8.71441 259.995 9.13815 259.995 9.68815V32.8845C259.995 33.4366 259.805 33.8604 259.433 34.1429C259.076 34.4125 258.679 34.5495 258.245 34.5495L258.249 34.5538ZM251.01 19.8557C250.777 20.0568 250.664 20.35 250.664 20.7524C250.664 21.1547 250.777 21.4479 251.01 21.6491C251.252 21.8588 251.534 21.9594 251.871 21.9594H256.956V32.8866C256.956 33.3082 257.074 33.61 257.315 33.8112C257.567 34.0209 257.873 34.1236 258.251 34.1236C258.593 34.1236 258.897 34.0187 259.181 33.8047C259.446 33.6036 259.574 33.304 259.574 32.8866V9.69243C259.574 9.27511 259.446 8.9755 259.181 8.77433C258.897 8.56032 258.593 8.45546 258.251 8.45546C257.875 8.45546 257.567 8.55818 257.315 8.76791C257.074 8.96908 256.958 9.27083 256.958 9.69243V19.5454H251.874C251.536 19.5454 251.256 19.6481 251.012 19.8557H251.01ZM247.637 33.6528H239.723C239.152 33.6528 238.659 33.5586 238.257 33.3724C237.846 33.182 237.526 32.9252 237.301 32.6041C237.079 32.2853 236.944 31.9407 236.902 31.5769C236.863 31.2431 236.842 30.9135 236.842 30.5946V11.4345C236.842 11.1156 236.861 10.7839 236.902 10.4522C236.944 10.0883 237.079 9.74379 237.301 9.42492C237.526 9.1039 237.846 8.84709 238.257 8.65663C238.661 8.47044 239.154 8.37628 239.723 8.37628H247.058C247.494 8.37628 247.879 8.51538 248.197 8.79145C248.526 9.07608 248.691 9.48698 248.691 10.0134C248.691 10.5399 248.524 10.9508 248.197 11.2354C247.879 11.5115 247.496 11.6506 247.058 11.6506H240.313V19.265H246.883C247.319 19.265 247.704 19.4041 248.022 19.6802C248.351 19.9648 248.516 20.3757 248.516 20.9022C248.516 21.4286 248.349 21.8395 248.022 22.1242C247.704 22.4002 247.319 22.5393 246.883 22.5393H240.313V30.3849H247.637C248.076 30.3849 248.458 30.524 248.777 30.8001C249.106 31.0825 249.27 31.4934 249.27 32.022C249.27 32.5506 249.104 32.9594 248.777 33.244C248.456 33.5201 248.073 33.6592 247.637 33.6592V33.6528ZM239.723 8.80215C239.214 8.80215 238.782 8.88348 238.434 9.04398C238.094 9.20235 237.829 9.41208 237.65 9.66889C237.468 9.92784 237.359 10.2082 237.325 10.4992C237.286 10.816 237.269 11.1306 237.269 11.4323V30.5925C237.269 30.8942 237.288 31.2088 237.325 31.5255C237.359 31.8187 237.468 32.0969 237.65 32.3559C237.829 32.6127 238.094 32.8246 238.434 32.9808C238.78 33.1413 239.214 33.2226 239.723 33.2226H247.637C247.975 33.2226 248.255 33.1199 248.499 32.9123C248.732 32.7111 248.845 32.418 248.845 32.0156C248.845 31.6133 248.732 31.3201 248.499 31.1189C248.257 30.9092 247.975 30.8086 247.637 30.8086H240.227C240.21 30.8236 240.193 30.8343 240.178 30.8429C240.138 30.8621 240.033 30.8985 239.913 30.8108C239.776 30.708 239.776 30.6032 239.8 30.5325L239.849 30.387H239.885V22.1092H246.883C247.221 22.1092 247.501 22.0065 247.744 21.7989C247.977 21.5977 248.09 21.3045 248.09 20.9022C248.09 20.4998 247.977 20.2067 247.744 20.0055C247.503 19.7958 247.221 19.6952 246.883 19.6952H239.885V11.6527H239.858L239.8 11.5029C239.776 11.4323 239.776 11.3253 239.913 11.2247C240.033 11.1348 240.138 11.1712 240.178 11.1926C240.193 11.199 240.21 11.2097 240.227 11.2269H247.058C247.396 11.2269 247.676 11.1263 247.919 10.9166C248.152 10.7154 248.266 10.4222 248.266 10.0199C248.266 9.61752 248.152 9.32433 247.919 9.12102C247.678 8.9113 247.396 8.81071 247.058 8.81071H239.723V8.80215ZM239.885 30.5946H240.011H240.099H239.885Z" fill="#FF8F6C"/>
<path d="M29.6531 24.4205C28.5887 23.4275 26.5818 22.2098 26.6822 20.7096C26.7763 19.3121 28.6785 18.2035 29.7429 17.264C29.7429 17.264 31.3865 15.8131 31.3886 15.8109C34.0731 13.4397 33.8422 9.66461 31.3608 7.24846C28.7832 4.74028 24.4039 4.26518 21.4693 6.60643C21.3817 6.67705 21.2962 6.74768 21.2128 6.82258L18.958 8.815C18.1629 9.44204 16.1025 10.7197 12.5503 10.694V5.86382C12.5482 2.62374 9.92782 0 6.69407 0H5.8541C2.62035 0 0 2.62374 0 5.86168V34.4853C0 37.7232 2.62035 40.347 5.8541 40.347H6.69407C8.48941 40.347 10.2719 39.5359 11.347 38.0763C12.2682 36.8265 12.3964 35.4098 12.467 33.9117C12.5054 33.0964 12.3686 32.2724 12.0523 31.5213C11.4389 30.0617 9.95347 29.4497 8.72879 28.6129C7.1942 27.5643 5.95028 26.0148 5.42878 24.2129C4.94147 22.5265 4.9778 20.3993 5.5506 18.5695C5.83914 17.6514 6.34782 16.7996 6.85864 15.9907C7.36946 15.1817 7.98073 14.4391 8.72452 13.8206C8.90833 13.6666 9.08572 13.5189 9.29732 13.3819C9.14129 14.3813 9.0558 15.3187 9.0558 15.3187C12.296 12.986 14.7945 13.0759 14.7945 13.0759C13.3069 13.8527 13.4736 14.6403 13.4736 14.6403C15.737 14.6403 17.5687 12.2092 17.5687 12.2092C17.4811 13.9426 16.7587 14.4648 16.7587 14.4648C16.8271 14.4156 17.3956 14.8029 17.4768 14.8543C17.6948 14.9934 17.9021 15.1496 18.0988 15.3187C18.4258 15.6033 18.7165 15.9308 18.958 16.2903C19.5329 17.1399 19.8343 18.1971 19.9112 19.2137C19.9369 19.5539 19.9305 19.9006 19.9176 20.2409C19.9134 20.3693 19.8535 20.5854 19.8898 20.7096C20.0352 21.2061 21.6147 22.1306 21.6147 22.1306C21.6147 22.1306 22.0571 22.4537 21.5484 22.8646C21.3112 23.0679 20.608 23.4724 20.608 23.4724C21.0739 24.2728 21.1637 25.8265 21.1637 25.8265C21.1188 28.2683 18.2377 28.981 18.2334 28.981C17.6542 29.1329 17.8102 30.2051 17.8679 30.6224C17.9769 31.4014 18.4236 32.1076 18.8725 32.7454C19.9262 34.2456 21.4907 35.5275 23.2219 36.1588C25.1412 36.8586 27.3277 36.7345 29.1808 35.8913C33.278 34.0252 34.6523 29.0773 31.3779 26.0234L29.6552 24.4162L29.6531 24.4205ZM24.2521 14.3706L23.7733 14.8778L24.1025 15.4921C24.297 15.8537 23.9165 16.2539 23.5468 16.0763L22.9184 15.7767L22.4354 16.2796C22.1511 16.5749 21.6553 16.3374 21.7087 15.9308L21.7985 15.2395L21.1722 14.9356C20.8025 14.758 20.8751 14.2101 21.2791 14.1352L21.963 14.0068L22.0571 13.3156C22.1127 12.909 22.6534 12.8084 22.85 13.1701L23.1834 13.7821L23.8695 13.658C24.2735 13.5852 24.5342 14.071 24.2542 14.3685L24.2521 14.3706Z" fill="#FF8F6C"/>
<path d="M64.0936 8.4897C63.6982 8.19009 63.2536 8.03815 62.7706 8.03815C62.2427 8.03815 61.7874 8.19437 61.4177 8.50254C61.0287 8.82784 60.832 9.30507 60.832 9.91928V32.5399C60.832 33.1563 61.0287 33.6314 61.4177 33.9567C61.7853 34.2649 62.2405 34.4189 62.7684 34.4189C63.2515 34.4189 63.696 34.267 64.0914 33.9674C64.5189 33.6421 64.7369 33.1627 64.7369 32.5378V9.91928C64.7369 9.29651 64.521 8.815 64.0914 8.4897H64.0936Z" fill="#FF8F6C"/>
<path d="M55.9974 10.0028C55.7794 9.63038 55.4502 9.31793 55.0185 9.07396C54.5975 8.83641 54.076 8.69302 53.4668 8.6438H53.4497L45.4669 8.70586C44.9838 8.67162 44.5478 8.7936 44.1695 9.06968C43.7677 9.36287 43.5411 9.81228 43.4941 10.4029C43.4471 10.9957 43.5988 11.4751 43.9472 11.8261C44.2806 12.1642 44.6974 12.3547 45.1869 12.3954H45.204L52.396 12.3098L51.913 18.2014L44.8705 18.2849C44.3896 18.2485 43.9515 18.3726 43.5732 18.6487C43.1885 18.929 42.947 19.357 42.9085 19.8236C42.8657 20.35 42.9512 21.052 43.3231 21.4436C43.6181 21.7561 44.0349 21.9294 44.5927 21.9744H44.6098L51.5603 21.8909C51.4941 22.3104 51.415 22.7191 51.3979 22.8004C51.2483 23.5174 51.2098 23.7506 51.1863 23.8897C51.1542 24.0888 51.1521 24.1016 50.8251 25.3814L50.8208 25.4006C50.5836 26.3316 50.3592 27.209 50.077 28.0586C49.7971 28.8954 49.4508 29.6744 49.0511 30.3742C48.7498 30.8343 48.645 31.3287 48.7391 31.8401C48.8353 32.3623 49.1195 32.7818 49.5897 33.0921C49.9167 33.3082 50.2673 33.4152 50.6413 33.4152C50.808 33.4152 50.9768 33.3938 51.1521 33.351C51.7142 33.2119 52.1652 32.8545 52.5008 32.281C53.1569 31.1232 53.6934 29.8392 54.0973 28.4631C54.1935 28.1378 54.279 27.8468 54.3581 27.5814C54.7214 26.3573 54.9202 25.6831 55.1083 24.6002C55.1724 24.2279 55.2258 23.9411 55.2707 23.6929C55.3819 23.0829 55.4567 22.6806 55.5571 21.8139C55.7003 20.594 55.7858 19.524 55.8478 18.7428L56.3287 12.2006C56.3543 11.871 56.3629 11.5222 56.3501 11.1648C56.3351 10.7603 56.2175 10.3687 56.0017 10.0006L55.9974 10.0028Z" fill="#FF8F6C"/>
<path d="M92.541 32.3259L92.5261 32.3131C92.1798 32.0135 91.7609 31.8615 91.2864 31.8615H73.7947V30.6331H89.4013C89.9869 30.6331 90.4785 30.5732 90.859 30.4534C91.2586 30.3271 91.5942 30.1238 91.8614 29.8456L91.8742 29.8306C92.1136 29.5824 92.3017 29.3855 92.3765 28.9896C92.4406 28.6621 92.4726 28.324 92.4726 27.9859V25.8479C92.4726 25.5076 92.4406 25.1781 92.3765 24.8699C92.3081 24.5339 92.1499 24.2065 91.9127 23.9004C91.6626 23.5794 91.3099 23.3504 90.8675 23.2199C90.4614 23.1022 89.9677 23.0423 89.4035 23.0423H71.7728C71.2983 23.0423 70.8794 23.1942 70.5331 23.4938C70.1569 23.8191 69.9902 24.2086 69.9902 24.7565C69.9902 25.3043 70.1655 25.5975 70.4284 25.8479C70.7618 26.1646 71.2897 26.368 71.7749 26.368H88.6981V27.4423H73.0915C72.493 27.4423 71.9865 27.5257 71.5804 27.6905C71.1636 27.8596 70.8281 28.0993 70.5844 28.401L70.5609 28.431C70.345 28.6985 70.1398 28.951 70.0736 29.3298C70.033 29.5567 70.0202 29.6872 70.0202 30.0147V32.6598C70.0202 32.9487 70.0437 33.0664 70.0843 33.2612C70.0928 33.3061 70.1035 33.3575 70.1163 33.4152C70.1933 33.8133 70.3835 34.0123 70.625 34.2627L70.6336 34.2713C70.8986 34.5495 71.2363 34.7528 71.636 34.8791C72.0143 34.9989 72.5059 35.0588 73.0936 35.0588H91.2929C91.7673 35.0588 92.1862 34.9069 92.5325 34.6073C92.8595 34.3248 93.0775 34.0123 93.0775 33.4003C93.0775 32.7882 92.8445 32.5806 92.5475 32.3259H92.541Z" fill="#FF8F6C"/>
<path d="M93.8537 19.4127C93.5652 19.1623 93.2211 19.0382 92.8214 19.0382H69.7299C69.3302 19.0382 68.9861 19.1623 68.6975 19.4127C68.409 19.6631 68.2637 20.0269 68.2637 20.5063C68.2637 20.9857 68.409 21.2296 68.6975 21.48C68.9861 21.7304 69.3302 21.8545 69.7299 21.8545H92.8214C93.2211 21.8545 93.5652 21.7304 93.8537 21.48C94.1423 21.2296 94.2876 20.9857 94.2876 20.5063C94.2876 20.0269 94.1423 19.6631 93.8537 19.4127Z" fill="#FF8F6C"/>
<path d="M91.2626 8.32492C90.8779 8.03387 90.4462 7.8862 89.9781 7.8862C89.4651 7.8862 89.0248 8.03601 88.6658 8.33562C88.2917 8.64807 88.1037 9.10819 88.1037 9.70313V10.5827H74.3821V9.70313C74.3821 9.10177 74.1726 8.63737 73.7623 8.32492C73.3776 8.03387 72.9458 7.8862 72.4778 7.8862C71.9648 7.8862 71.5245 8.03601 71.1654 8.33562C70.9667 8.50254 70.8299 8.70371 70.7487 8.82356C70.7337 8.84496 70.723 8.86208 70.7145 8.87492L70.7102 8.8792C70.7102 8.8792 70.7081 8.88562 70.7059 8.8899C70.6974 8.90488 70.691 8.922 70.6824 8.93912C70.6781 8.94554 70.6739 8.94982 70.6696 8.95624C70.6632 8.97336 70.6546 8.98834 70.6461 9.00332C70.6397 9.03328 70.6311 9.06111 70.6162 9.08893C70.6119 9.11889 70.6097 9.14671 70.6055 9.17667V14.1716C70.6055 15.2352 70.6439 15.4471 70.6632 15.5605L70.6675 15.5798C70.7123 15.9714 70.8577 16.3417 71.097 16.6841C71.3386 17.0286 71.6827 17.3068 72.123 17.5101C72.5526 17.7092 73.0762 17.8098 73.6768 17.8098H88.8133C89.416 17.8098 89.9375 17.7092 90.3671 17.5101C90.8052 17.3068 91.1515 17.0286 91.393 16.6841C91.6324 16.3417 91.7756 15.9714 91.8226 15.5798L91.8418 15.415C91.8696 15.1967 91.8846 15.0747 91.8846 14.7944V9.70313C91.8846 9.10177 91.6751 8.63737 91.2648 8.32492H91.2626ZM88.1037 14.7302H74.3821V13.5317H88.1037V14.7302Z" fill="#FF8F6C"/>
</g>
<defs>
<clipPath id="clip0_3099_15918">
<rect width="260" height="40.3448" fill="white"/>
</clipPath>
</defs>
</svg>
