<svg width="155" height="24" viewBox="0 0 155 24" fill="none" xmlns="http://www.w3.org/2000/svg">
<g clip-path="url(#clip0_2711_2421)">
<path d="M123.513 8.04592C123.322 7.88169 123.095 7.79894 122.835 7.79894H121.369V5.76584C121.369 5.43739 121.256 5.18532 121.034 5.01727C120.823 4.85687 120.585 4.77539 120.327 4.77539C120.045 4.77539 119.803 4.85814 119.607 5.02109C119.422 5.17514 119.303 5.42084 119.303 5.64745V11.6284C119.303 12.0561 119.394 12.3158 119.607 12.4928C119.802 12.6557 120.045 12.7385 120.327 12.7385C120.585 12.7385 120.822 12.657 121.034 12.4966C121.257 12.3285 121.369 12.0765 121.369 11.748V9.74675H122.835C123.096 9.74675 123.324 9.664 123.513 9.49977C123.708 9.33045 123.807 9.08602 123.807 8.77285C123.807 8.45967 123.708 8.21524 123.513 8.04592Z" fill="#3D424C"/>
<path d="M65.5479 5.92105C65.203 5.59387 64.7831 5.33671 64.3009 5.15593C63.8212 4.97643 63.2639 4.88477 62.6455 4.88477C62.0271 4.88477 61.4723 4.97643 60.999 5.15593C60.5231 5.33671 60.107 5.59387 59.7622 5.92105C59.4161 6.24823 59.1489 6.63652 58.9669 7.07445C58.785 7.50985 58.6934 7.97706 58.6934 8.46083V16.7154C58.6934 17.1992 58.785 17.6652 58.9669 18.1018C59.1489 18.5398 59.4174 18.9268 59.7622 19.2552C60.107 19.5824 60.5231 19.8396 60.999 20.0203C61.4736 20.2011 62.0271 20.2915 62.6455 20.2915C63.2639 20.2915 63.8212 20.1999 64.3009 20.0203C64.7831 19.8396 65.203 19.5811 65.5479 19.2552C65.8927 18.9281 66.1637 18.541 66.3507 18.1044C66.5391 17.6677 66.6332 17.2005 66.6332 16.7167V8.46211C66.6332 7.97834 66.5378 7.51112 66.3507 7.07445C66.1624 6.63779 65.8927 6.25077 65.5466 5.92359L65.5479 5.92105ZM64.4409 8.94333V16.2317C64.4409 16.979 64.2894 17.5022 63.9917 17.7861C63.6901 18.0725 63.2371 18.2177 62.6467 18.2177C62.0563 18.2177 61.625 18.0725 61.3298 17.7874C61.0359 17.5035 60.887 16.9802 60.887 16.2317V8.94333C60.887 8.19476 61.0359 7.67153 61.3298 7.3889C61.625 7.10373 62.0678 6.9586 62.6467 6.9586C63.2257 6.9586 63.6901 7.10373 63.9917 7.39018C64.2894 7.67407 64.4409 8.19603 64.4409 8.9446V8.94333Z" fill="#3D424C"/>
<path d="M73.9697 11.225C73.7674 11.0506 73.5256 10.9627 73.2495 10.9627H71.3167V5.76602C71.3167 5.4172 71.1958 5.14731 70.9566 4.96653C70.7339 4.79721 70.4833 4.71191 70.211 4.71191C69.9132 4.71191 69.6575 4.79976 69.4501 4.97162C69.2325 5.15367 69.123 5.41974 69.123 5.76602V19.5649C69.123 19.9099 69.2337 20.1772 69.4501 20.3593C69.6575 20.5311 69.9132 20.619 70.211 20.619C70.482 20.619 70.7327 20.5337 70.9566 20.3644C71.1958 20.1836 71.3167 19.9137 71.3167 19.5649V13.0378H73.2495C73.5256 13.0378 73.7686 12.95 73.9697 12.7756C74.1796 12.5948 74.2865 12.3338 74.2865 12.0003C74.2865 11.6667 74.1796 11.407 73.9697 11.225Z" fill="#3D424C"/>
<path d="M88.4868 15.206C87.8315 14.7974 86.8772 14.5898 85.6506 14.5898H79.6435C78.4169 14.5898 77.4626 14.7974 76.806 15.206C76.1228 15.6325 75.7754 16.39 75.7754 17.4581C75.7754 18.5262 76.1215 19.2824 76.806 19.7102C77.4613 20.1188 78.4156 20.3263 79.6435 20.3263H85.6506C86.8772 20.3263 87.8328 20.1188 88.4881 19.7102C89.1726 19.2837 89.5187 18.5262 89.5187 17.4581C89.5187 16.39 89.1726 15.6338 88.4881 15.206H88.4868ZM78.0365 17.8909C78.0059 17.8311 77.9703 17.7063 77.9703 17.4581C77.9703 17.2098 78.0059 17.0863 78.0365 17.0252C78.0746 16.9501 78.1408 16.8916 78.2388 16.8457C78.3215 16.8075 78.4907 16.7553 78.8292 16.7146C79.1142 16.6815 79.4692 16.6637 79.8853 16.6637H85.4088C85.8249 16.6637 86.1812 16.6802 86.4649 16.7146C86.8034 16.7541 86.9726 16.8075 87.0553 16.8457C87.1533 16.8903 87.2195 16.9501 87.2576 17.0252C87.2882 17.0863 87.3238 17.2098 87.3238 17.4581C87.3238 17.7063 87.2882 17.8298 87.2576 17.8909C87.2195 17.9673 87.1533 18.0259 87.0553 18.0704C86.9739 18.1073 86.8047 18.1608 86.4649 18.2016C86.1799 18.2347 85.8249 18.2525 85.4088 18.2525H79.8853C79.4692 18.2525 79.1129 18.2359 78.8292 18.2016C78.4907 18.1621 78.3215 18.1086 78.2388 18.0704C78.1408 18.0259 78.0746 17.966 78.0365 17.8909Z" fill="#3D424C"/>
<path d="M90.2549 12.02C90.0538 11.8456 89.8108 11.7577 89.5347 11.7577H83.7363V10.9124C83.7363 10.6641 83.6752 10.4566 83.5531 10.2911H88.2394C88.5155 10.2911 88.7585 10.2033 88.9596 10.0289C89.1695 9.8481 89.2764 9.58712 89.2764 9.25357C89.2764 8.92003 89.1695 8.66032 88.9596 8.47827C88.7573 8.30386 88.5155 8.21602 88.2394 8.21602H78.2293V6.95695H88.0498C88.3259 6.95695 88.5689 6.86911 88.77 6.69469C88.9799 6.51392 89.0868 6.25294 89.0868 5.91939C89.0868 5.58585 88.9799 5.32614 88.77 5.14409C88.5677 4.96968 88.3259 4.88184 88.0498 4.88184H77.8145C77.4659 4.88184 77.163 4.9404 76.9149 5.05497C76.6604 5.1721 76.4607 5.33378 76.3207 5.53365C76.182 5.73225 76.098 5.9474 76.0713 6.17273C76.0471 6.37388 76.0357 6.57248 76.0357 6.76471V8.40571C76.0357 8.59794 76.0471 8.79781 76.0713 8.99769C76.098 9.22429 76.182 9.43944 76.3207 9.63804C76.4607 9.83791 76.6604 9.9996 76.9149 10.1167C77.163 10.2313 77.4659 10.2899 77.8145 10.2899H81.7119C81.5999 10.4541 81.5427 10.6629 81.5427 10.9111V11.7564H75.7265C75.4504 11.7564 75.2073 11.8443 75.0063 12.0187C74.7963 12.1995 74.6895 12.4604 74.6895 12.794C74.6895 13.1275 74.7963 13.3885 75.0063 13.5693C75.2073 13.7437 75.4504 13.8315 75.7265 13.8315H89.5347C89.8108 13.8315 90.0538 13.7437 90.2549 13.5693C90.4648 13.3885 90.5717 13.1275 90.5717 12.794C90.5717 12.4604 90.4648 12.2007 90.2549 12.0187V12.02Z" fill="#3D424C"/>
<path d="M92.6484 12.4443C92.8889 12.5551 93.1828 12.6111 93.5213 12.6111H97.6121C97.9518 12.6111 98.2445 12.5551 98.4849 12.4443C98.7292 12.331 98.9201 12.1783 99.0537 11.9873C99.186 11.7976 99.2662 11.5927 99.2917 11.3762C99.3146 11.1751 99.3273 10.979 99.3273 10.7919V5.92112C99.3273 5.59266 99.214 5.34059 98.9926 5.17255C98.7814 5.01214 98.5435 4.93066 98.2852 4.93066C98.0027 4.93066 97.7609 5.01341 97.565 5.17637C97.3627 5.34569 97.2609 5.59521 97.2609 5.92112V7.34823H93.8737V5.92112C93.8737 5.59266 93.7605 5.34059 93.5391 5.17255C93.3279 5.01214 93.0899 4.93066 92.8329 4.93066C92.5504 4.93066 92.3086 5.01341 92.1127 5.17637C91.9104 5.34569 91.8086 5.59521 91.8086 5.92112V10.7919C91.8086 10.9816 91.82 11.1789 91.8442 11.3762C91.8697 11.5927 91.9498 11.7976 92.0822 11.9873C92.2158 12.1783 92.4066 12.331 92.6509 12.4443H92.6484ZM93.8737 10.6646V9.29604H97.2609V10.6646H93.8737Z" fill="#3D424C"/>
<path d="M107.115 8.04592C106.924 7.88169 106.696 7.79894 106.437 7.79894H104.971V5.76584C104.971 5.43739 104.857 5.18532 104.636 5.01727C104.425 4.85687 104.187 4.77539 103.929 4.77539C103.646 4.77539 103.404 4.85814 103.208 5.02109C103.024 5.17514 102.904 5.42084 102.904 5.64745V11.6284C102.904 12.0561 102.996 12.3158 103.208 12.4928C103.403 12.6557 103.646 12.7385 103.929 12.7385C104.187 12.7385 104.425 12.657 104.636 12.4966C104.859 12.3285 104.971 12.0765 104.971 11.748V9.74675H106.437C106.697 9.74675 106.925 9.664 107.115 9.49977C107.311 9.33045 107.409 9.08602 107.409 8.77285C107.409 8.45967 107.309 8.21524 107.115 8.04592Z" fill="#3D424C"/>
<path d="M105.212 18.5613C105.022 18.397 104.794 18.3143 104.534 18.3143H94.0286V17.7567H103.274C103.607 17.7567 103.883 17.7223 104.097 17.6561C104.319 17.5874 104.504 17.4741 104.652 17.32C104.801 17.1647 104.896 16.9826 104.936 16.7815C104.971 16.5969 104.989 16.4047 104.989 16.2137V14.9534C104.989 14.7611 104.971 14.5753 104.934 14.4009C104.896 14.215 104.81 14.0355 104.677 13.8649C104.54 13.6892 104.348 13.5632 104.104 13.4932C103.873 13.427 103.595 13.3926 103.274 13.3926H92.9343C92.6735 13.3926 92.4457 13.4753 92.2561 13.6396C92.0602 13.8076 91.9622 14.0533 91.9622 14.3665C91.9622 14.6797 92.0615 14.9254 92.2561 15.0934C92.4457 15.2576 92.6735 15.3404 92.9343 15.3404H102.922V15.8114H93.6762C93.339 15.8114 93.0527 15.8585 92.8262 15.9502C92.5946 16.0444 92.4088 16.1755 92.274 16.3423C92.1404 16.5078 92.0538 16.6924 92.0144 16.891C91.9788 17.0769 91.9609 17.2678 91.9609 17.4588V18.7191C91.9609 18.9101 91.9788 19.101 92.0144 19.2869C92.0538 19.4893 92.1493 19.6701 92.2981 19.8254C92.4445 19.9782 92.6315 20.0915 92.8529 20.1615C93.0667 20.229 93.3428 20.2621 93.6762 20.2621H104.534C104.794 20.2621 105.022 20.1793 105.212 20.0151C105.408 19.8458 105.506 19.6014 105.506 19.2882C105.506 18.975 105.407 18.7306 105.212 18.5613Z" fill="#3D424C"/>
<path d="M109.046 12.3376C109.287 12.4483 109.58 12.5043 109.919 12.5043H115.149C115.409 12.5043 115.637 12.4216 115.827 12.2574C116.023 12.0893 116.121 11.8449 116.121 11.5304C116.121 11.216 116.021 10.9728 115.827 10.8035C115.637 10.6393 115.408 10.5565 115.149 10.5565H110.27V6.92827H114.458C114.718 6.92827 114.946 6.84552 115.136 6.6813C115.332 6.51198 115.43 6.26755 115.43 5.95437C115.43 5.64119 115.331 5.39676 115.135 5.22745C114.945 5.06322 114.716 4.98047 114.456 4.98047H109.916C109.577 4.98047 109.283 5.03648 109.044 5.14724C108.799 5.26055 108.608 5.41331 108.475 5.60428C108.342 5.79396 108.262 5.99893 108.237 6.21535C108.214 6.41395 108.201 6.61 108.201 6.79969V10.6826C108.201 10.8723 108.213 11.0696 108.237 11.2669C108.262 11.4821 108.342 11.6883 108.475 11.878C108.608 12.0689 108.799 12.2217 109.044 12.335L109.046 12.3376Z" fill="#3D424C"/>
<path d="M121.61 18.561C121.42 18.3967 121.191 18.314 120.931 18.314H110.426V17.6711H119.672C120.005 17.6711 120.281 17.6367 120.495 17.5705C120.716 17.5018 120.902 17.3885 121.05 17.2344C121.199 17.0791 121.294 16.897 121.333 16.6959C121.369 16.51 121.387 16.3191 121.387 16.1281V14.7812C121.387 14.5902 121.369 14.4031 121.332 14.2287C121.294 14.0428 121.208 13.8633 121.075 13.6927C120.938 13.517 120.744 13.391 120.5 13.321C120.27 13.2548 119.991 13.2217 119.67 13.2217H109.331C109.07 13.2217 108.842 13.3044 108.653 13.4687C108.457 13.638 108.359 13.8824 108.359 14.1956C108.359 14.5088 108.458 14.7545 108.653 14.9225C108.842 15.0867 109.07 15.1695 109.331 15.1695H119.318V15.7271H110.073C109.735 15.7271 109.449 15.7742 109.223 15.8659C108.991 15.9601 108.805 16.0912 108.67 16.258C108.537 16.4235 108.45 16.6081 108.411 16.8054C108.375 16.9913 108.357 17.1822 108.357 17.3732V18.7201C108.357 18.911 108.375 19.102 108.411 19.2879C108.45 19.4903 108.546 19.6711 108.695 19.8264C108.841 19.9792 109.028 20.0925 109.249 20.1625C109.463 20.23 109.739 20.2631 110.073 20.2631H120.93C121.191 20.2631 121.419 20.1803 121.608 20.0161C121.804 19.8468 121.902 19.6023 121.902 19.2892C121.902 18.976 121.803 18.7315 121.608 18.5622L121.61 18.561Z" fill="#3D424C"/>
<path d="M130.729 9.9288C130.919 10.093 131.147 10.1758 131.408 10.1758H133.473V14.3998C133.473 14.7257 133.576 14.9765 133.777 15.1446C133.972 15.3075 134.215 15.3903 134.497 15.3903C134.755 15.3903 134.992 15.3088 135.205 15.1484C135.427 14.9804 135.539 14.7283 135.539 14.3998V5.76584C135.539 5.43739 135.426 5.18532 135.205 5.01727C134.993 4.85687 134.755 4.77539 134.497 4.77539C134.215 4.77539 133.973 4.85814 133.777 5.02109C133.575 5.18914 133.473 5.43994 133.473 5.76584V8.22924H131.408C131.147 8.22924 130.919 8.31199 130.729 8.47622C130.534 8.64426 130.436 8.88997 130.436 9.20314C130.436 9.51632 130.535 9.76202 130.729 9.93007V9.9288Z" fill="#3D424C"/>
<path d="M138.682 18.5615C138.492 18.3972 138.263 18.3145 138.004 18.3145H127.36V15.678C127.36 15.3495 127.247 15.0974 127.025 14.9294C126.814 14.769 126.576 14.6875 126.319 14.6875C126.037 14.6875 125.795 14.7702 125.599 14.9332C125.397 15.1025 125.295 15.352 125.295 15.678V18.4418C125.295 18.6315 125.306 18.8288 125.331 19.0261C125.356 19.2426 125.436 19.4475 125.568 19.6372C125.702 19.8282 125.893 19.9822 126.137 20.0942C126.378 20.205 126.672 20.261 127.01 20.261H138.005C138.266 20.261 138.494 20.1783 138.683 20.014C138.879 19.8447 138.977 19.6003 138.977 19.2871C138.977 18.9739 138.878 18.7295 138.683 18.5602L138.682 18.5615Z" fill="#3D424C"/>
<path d="M136.921 15.1459C137.115 15.3088 137.358 15.3916 137.641 15.3916C137.899 15.3916 138.136 15.3101 138.347 15.1497C138.57 14.9816 138.683 14.7296 138.683 14.4011V5.76584C138.683 5.43739 138.57 5.18532 138.347 5.01727C138.136 4.85687 137.898 4.77539 137.641 4.77539C137.358 4.77539 137.117 4.85814 136.921 5.02109C136.718 5.19041 136.615 5.43994 136.615 5.76584V14.4011C136.615 14.727 136.718 14.9778 136.921 15.1459Z" fill="#3D424C"/>
<path d="M127.156 12.4623C127.443 12.1758 127.695 11.8728 127.906 11.5635C127.938 11.5164 127.966 11.4769 127.989 11.4438L128.039 11.5393L128.071 11.4616C128.081 11.4756 128.092 11.4896 128.103 11.5049C128.318 11.8066 128.569 12.1058 128.85 12.3923C129.131 12.68 129.44 12.9346 129.769 13.1523C130.097 13.37 130.449 13.5457 130.82 13.6768C131.15 13.7786 131.444 13.7646 131.694 13.6335C131.939 13.5036 132.118 13.2949 132.223 13.0021C132.301 12.7169 132.27 12.4483 132.133 12.2064C131.997 11.9658 131.783 11.7977 131.507 11.7099C129.795 11.0453 128.964 9.6666 128.964 7.49346V6.02561C128.964 5.69716 128.851 5.44509 128.63 5.27704C128.419 5.11663 128.181 5.03516 127.922 5.03516C127.64 5.03516 127.398 5.11791 127.202 5.28086C127 5.44891 126.898 5.6997 126.898 6.02561V7.6666C126.898 8.778 126.696 9.67679 126.295 10.3375C125.898 10.9944 125.239 11.5024 124.346 11.8448C124.062 11.9352 123.849 12.1033 123.713 12.3439C123.576 12.5858 123.545 12.8544 123.627 13.1497C123.73 13.4324 123.907 13.6424 124.153 13.771C124.282 13.8385 124.422 13.8728 124.572 13.8716C124.716 13.8716 124.87 13.841 125.03 13.7786C125.453 13.6373 125.845 13.454 126.197 13.2299C126.548 13.0071 126.871 12.7487 127.159 12.461L127.156 12.4623Z" fill="#3D424C"/>
<path d="M142.939 18.2002C142.939 18.2346 142.927 18.2435 142.905 18.2257C142.882 18.2078 142.875 18.2002 142.887 18.2002H147.427C147.657 18.2002 147.855 18.2715 148.022 18.4166C148.189 18.5605 148.273 18.7705 148.273 19.0468C148.273 19.3231 148.189 19.5331 148.022 19.677C147.855 19.8208 147.657 19.8934 147.427 19.8934H142.715C142.393 19.8934 142.119 19.8412 141.895 19.7381C141.672 19.635 141.498 19.4962 141.378 19.3231C141.257 19.1499 141.184 18.9666 141.161 18.7705C141.138 18.5745 141.127 18.3848 141.127 18.2002V6.80236C141.127 6.61777 141.138 6.42808 141.161 6.23203C141.184 6.03597 141.257 5.85265 141.378 5.67951C141.498 5.50637 141.672 5.36888 141.895 5.26449C142.119 5.16137 142.393 5.10917 142.715 5.10917H147.082C147.312 5.10917 147.511 5.18174 147.677 5.32432C147.844 5.46818 147.928 5.67824 147.928 5.9545C147.928 6.23075 147.844 6.44081 147.677 6.58467C147.511 6.72853 147.312 6.80109 147.082 6.80109H142.888C142.877 6.80109 142.882 6.79218 142.906 6.77563C142.929 6.75781 142.94 6.76672 142.94 6.80109V11.5853H146.979C147.209 11.5853 147.408 11.6579 147.574 11.8005C147.741 11.9443 147.825 12.1544 147.825 12.4306C147.825 12.7069 147.741 12.9169 147.574 13.0608C147.408 13.2047 147.209 13.2772 146.979 13.2772H142.94V18.1989L142.939 18.2002ZM149.352 11.7152C149.519 11.5713 149.717 11.4987 149.947 11.4987H152.847V5.76481C152.847 5.47709 152.934 5.26194 153.105 5.11681C153.279 4.97296 153.491 4.90039 153.744 4.90039C153.975 4.90039 154.184 4.97296 154.374 5.11681C154.564 5.26067 154.659 5.47709 154.659 5.76481V19.5637C154.659 19.8514 154.564 20.0678 154.374 20.2117C154.184 20.3555 153.975 20.4281 153.744 20.4281C153.491 20.4281 153.279 20.3555 153.105 20.2117C152.932 20.0678 152.847 19.8514 152.847 19.5637V13.1907H149.947C149.717 13.1907 149.519 13.1194 149.352 12.9742C149.185 12.8304 149.101 12.6203 149.101 12.3441C149.101 12.0678 149.184 11.8577 149.352 11.7139V11.7152Z" fill="#3D424C"/>
<path d="M153.744 20.5548C153.462 20.5548 153.22 20.472 153.024 20.3091C152.822 20.1397 152.719 19.8889 152.719 19.563V13.3173H149.946C149.685 13.3173 149.458 13.2346 149.268 13.0704C149.072 12.9023 148.974 12.6579 148.974 12.3434C148.974 12.029 149.073 11.7858 149.268 11.6165C149.458 11.4523 149.687 11.3695 149.946 11.3695H152.719V5.76291C152.719 5.43701 152.822 5.18621 153.023 5.01816C153.219 4.85521 153.461 4.77246 153.743 4.77246C154 4.77246 154.238 4.85394 154.449 5.01434C154.672 5.18366 154.784 5.43573 154.784 5.76291V19.5618C154.784 19.8902 154.671 20.1423 154.449 20.3103C154.237 20.4707 154 20.5522 153.742 20.5522L153.744 20.5548ZM149.435 11.8113C149.296 11.931 149.229 12.1054 149.229 12.3447C149.229 12.584 149.296 12.7585 149.435 12.8781C149.579 13.0029 149.747 13.0627 149.948 13.0627H152.975V19.563C152.975 19.8138 153.045 19.9933 153.188 20.113C153.339 20.2378 153.521 20.2989 153.746 20.2989C153.949 20.2989 154.13 20.2365 154.299 20.1092C154.457 19.9895 154.533 19.8113 154.533 19.563V5.76546C154.533 5.51721 154.457 5.33898 154.299 5.21931C154.13 5.092 153.949 5.02962 153.746 5.02962C153.522 5.02962 153.339 5.09073 153.188 5.21549C153.045 5.33516 152.976 5.51466 152.976 5.76546V11.6267H149.949C149.748 11.6267 149.581 11.6878 149.436 11.8113H149.435ZM147.427 20.0188H142.715C142.375 20.0188 142.082 19.9628 141.842 19.852C141.598 19.7387 141.407 19.586 141.274 19.395C141.141 19.2053 141.061 19.0003 141.036 18.7839C141.013 18.5853 141 18.3893 141 18.1996V6.80174C141 6.61205 141.011 6.41473 141.036 6.2174C141.061 6.00098 141.141 5.79601 141.274 5.60632C141.407 5.41536 141.598 5.26259 141.842 5.14929C142.083 5.03853 142.377 4.98252 142.715 4.98252H147.082C147.342 4.98252 147.571 5.06527 147.76 5.22949C147.956 5.39881 148.054 5.64324 148.054 5.95642C148.054 6.2696 147.955 6.51403 147.76 6.68335C147.571 6.84757 147.343 6.93032 147.082 6.93032H143.066V11.4599H146.978C147.237 11.4599 147.466 11.5427 147.656 11.7069C147.852 11.8762 147.95 12.1206 147.95 12.4338C147.95 12.747 147.851 12.9914 147.656 13.1607C147.466 13.325 147.237 13.4077 146.978 13.4077H143.066V18.0748H147.427C147.688 18.0748 147.916 18.1576 148.105 18.3218C148.301 18.4898 148.399 18.7343 148.399 19.0487C148.399 19.3632 148.3 19.6063 148.105 19.7756C147.914 19.9399 147.687 20.0226 147.427 20.0226V20.0188ZM142.715 5.23586C142.412 5.23586 142.155 5.28424 141.948 5.37972C141.746 5.47392 141.588 5.59869 141.481 5.75146C141.373 5.9055 141.308 6.07227 141.288 6.24541C141.265 6.43382 141.254 6.62096 141.254 6.80047V18.1983C141.254 18.3778 141.266 18.5649 141.288 18.7534C141.308 18.9278 141.373 19.0933 141.481 19.2473C141.588 19.4001 141.746 19.5261 141.948 19.6191C142.154 19.7145 142.412 19.7629 142.715 19.7629H147.427C147.628 19.7629 147.795 19.7018 147.94 19.5783C148.078 19.4586 148.146 19.2842 148.146 19.0449C148.146 18.8056 148.078 18.6311 147.94 18.5115C147.796 18.3867 147.628 18.3269 147.427 18.3269H143.015C143.005 18.3358 142.995 18.3422 142.986 18.3473C142.962 18.3587 142.9 18.3804 142.828 18.3282C142.747 18.267 142.747 18.2047 142.761 18.1627L142.79 18.0761H142.812V13.1518H146.978C147.179 13.1518 147.346 13.0907 147.491 12.9672C147.629 12.8476 147.697 12.6732 147.697 12.4338C147.697 12.1945 147.629 12.0201 147.491 11.9004C147.347 11.7756 147.179 11.7158 146.978 11.7158H142.812V6.9316H142.795L142.761 6.84248C142.747 6.80047 142.747 6.73681 142.828 6.67698C142.9 6.62351 142.962 6.64515 142.986 6.65788C142.995 6.6617 143.005 6.66807 143.015 6.67825H147.082C147.283 6.67825 147.45 6.61842 147.595 6.49366C147.734 6.37399 147.801 6.19958 147.801 5.96024C147.801 5.7209 147.734 5.54649 147.595 5.42555C147.451 5.30079 147.283 5.24095 147.082 5.24095H142.715V5.23586ZM142.812 18.1996H142.887H142.939H142.812Z" fill="#3D424C"/>
<path d="M17.6535 14.5271C17.0198 13.9363 15.825 13.212 15.8848 12.3195C15.9408 11.4882 17.0732 10.8288 17.7069 10.2699C17.7069 10.2699 18.6854 9.40675 18.6867 9.40547C20.2848 7.99491 20.1474 5.7492 18.6701 4.3119C17.1356 2.81986 14.5284 2.53724 12.7814 3.92998C12.7292 3.97199 12.6783 4.014 12.6287 4.05856L11.2863 5.24379C10.813 5.6168 9.58636 6.37683 7.47161 6.36155V3.48822C7.47034 1.56079 5.91036 0 3.9852 0H3.48514C1.55998 0 0 1.56079 0 3.48695V20.5143C0 22.4405 1.55998 24.0013 3.48514 24.0013H3.9852C5.05402 24.0013 6.11522 23.5188 6.75524 22.6505C7.30365 21.9071 7.38 21.0643 7.42199 20.1731C7.44489 19.6881 7.36345 19.198 7.17514 18.7511C6.80996 17.8829 5.92563 17.5188 5.19654 17.021C4.28294 16.3972 3.5424 15.4755 3.23193 14.4036C2.94182 13.4004 2.96345 12.1349 3.30446 11.0465C3.47623 10.5003 3.77907 9.99363 4.08317 9.51241C4.38728 9.03119 4.75119 8.58943 5.19399 8.22151C5.30342 8.12985 5.40903 8.04201 5.535 7.96053C5.44211 8.55506 5.39121 9.11267 5.39121 9.11267C7.32019 7.72502 8.80764 7.77848 8.80764 7.77848C7.92204 8.24061 8.02129 8.7091 8.02129 8.7091C9.36878 8.7091 10.4592 7.26289 10.4592 7.26289C10.4071 8.29408 9.97699 8.60471 9.97699 8.60471C10.0177 8.57543 10.3562 8.80586 10.4045 8.83641C10.5343 8.91916 10.6577 9.01209 10.7748 9.11267C10.9695 9.28199 11.1425 9.47677 11.2863 9.69064C11.6286 10.1961 11.808 10.825 11.8538 11.4297C11.8691 11.6321 11.8653 11.8383 11.8576 12.0407C11.8551 12.1171 11.8194 12.2457 11.8411 12.3195C11.9276 12.6149 12.8679 13.1649 12.8679 13.1649C12.8679 13.1649 13.1313 13.3571 12.8285 13.6015C12.6872 13.7225 12.2686 13.9631 12.2686 13.9631C12.546 14.4392 12.5994 15.3635 12.5994 15.3635C12.5727 16.816 10.8575 17.24 10.855 17.24C10.5101 17.3304 10.603 17.9682 10.6374 18.2164C10.7023 18.6798 10.9682 19.0999 11.2354 19.4793C11.8627 20.3717 12.7941 21.1343 13.8248 21.5099C14.9674 21.9262 16.2691 21.8523 17.3723 21.3507C19.8115 20.2406 20.6296 17.2973 18.6803 15.4806L17.6547 14.5245L17.6535 14.5271ZM14.4381 8.54869L14.1531 8.85041L14.349 9.21579C14.4648 9.43093 14.2383 9.669 14.0182 9.56333L13.6441 9.3851L13.3565 9.68428C13.1873 9.85996 12.8921 9.71865 12.9239 9.47677L12.9773 9.06556L12.6045 8.88479C12.3844 8.77912 12.4277 8.45321 12.6681 8.40866L13.0753 8.33227L13.1313 7.92107C13.1644 7.67918 13.4863 7.61935 13.6034 7.8345L13.8019 8.1986L14.2103 8.12476C14.4508 8.08148 14.606 8.37046 14.4393 8.54742L14.4381 8.54869Z" fill="#FF693A"/>
<path d="M38.1565 5.04987C37.9212 4.87164 37.6565 4.78125 37.3689 4.78125C37.0546 4.78125 36.7836 4.87418 36.5635 5.05751C36.3319 5.25101 36.2148 5.53491 36.2148 5.90028V19.3567C36.2148 19.7233 36.3319 20.0059 36.5635 20.1995C36.7823 20.3828 37.0534 20.4744 37.3676 20.4744C37.6552 20.4744 37.9199 20.3841 38.1553 20.2058C38.4098 20.0123 38.5395 19.7271 38.5395 19.3554V5.90028C38.5395 5.52982 38.411 5.24338 38.1553 5.04987H38.1565Z" fill="#FF693A"/>
<path d="M33.3373 5.95C33.2075 5.72849 33.0116 5.54262 32.7545 5.39749C32.5039 5.25618 32.1934 5.17088 31.8308 5.1416H31.8206L27.0681 5.17852C26.7806 5.15815 26.521 5.23072 26.2958 5.39494C26.0566 5.56935 25.9217 5.8367 25.8937 6.18807C25.8657 6.54071 25.956 6.82588 26.1634 7.03466C26.3619 7.23581 26.6101 7.34911 26.9014 7.3733H26.9116L31.1933 7.32238L30.9057 10.8272L26.7131 10.8768C26.4268 10.8552 26.166 10.929 25.9408 11.0932C25.7117 11.26 25.5679 11.5146 25.545 11.7921C25.5196 12.1053 25.5705 12.5229 25.7919 12.7559C25.9675 12.9417 26.2156 13.0448 26.5477 13.0716H26.5579L30.6958 13.0219C30.6563 13.2715 30.6092 13.5146 30.5991 13.563C30.51 13.9895 30.4871 14.1282 30.4731 14.211C30.454 14.3294 30.4527 14.337 30.2581 15.0983L30.2555 15.1098C30.1143 15.6636 29.9807 16.1855 29.8127 16.6909C29.646 17.1887 29.4399 17.6521 29.202 18.0684C29.0226 18.3421 28.9602 18.6362 29.0162 18.9405C29.0734 19.2511 29.2427 19.5006 29.5226 19.6852C29.7173 19.8138 29.926 19.8774 30.1486 19.8774C30.2479 19.8774 30.3484 19.8647 30.4527 19.8392C30.7874 19.7565 31.0559 19.5439 31.2556 19.2027C31.6463 18.514 31.9656 17.7501 32.2061 16.9315C32.2634 16.738 32.3143 16.5649 32.3614 16.407C32.5777 15.6788 32.696 15.2778 32.808 14.6336C32.8462 14.4121 32.878 14.2415 32.9047 14.0939C32.9708 13.731 33.0154 13.4917 33.0752 12.9761C33.1604 12.2504 33.2113 11.6139 33.2482 11.1492L33.5345 7.25745C33.5498 7.0614 33.5549 6.85389 33.5473 6.64128C33.5383 6.40067 33.4684 6.1677 33.3398 5.94873L33.3373 5.95Z" fill="#FF693A"/>
<path d="M55.0932 19.2296L55.0843 19.222C54.8782 19.0438 54.6288 18.9534 54.3463 18.9534H43.9329V18.2226H53.224C53.5727 18.2226 53.8653 18.187 54.0918 18.1157C54.3298 18.0406 54.5295 17.9196 54.6886 17.7541L54.6962 17.7452C54.8387 17.5975 54.9507 17.4804 54.9952 17.2449C55.0334 17.0501 55.0525 16.849 55.0525 16.6478V15.376C55.0525 15.1736 55.0334 14.9776 54.9952 14.7942C54.9545 14.5944 54.8604 14.3996 54.7191 14.2175C54.5702 14.0266 54.3603 13.8904 54.0969 13.8127C53.8551 13.7427 53.5612 13.707 53.2253 13.707H42.7292C42.4467 13.707 42.1973 13.7974 41.9912 13.9757C41.7672 14.1692 41.668 14.4009 41.668 14.7268C41.668 15.0527 41.7723 15.2271 41.9288 15.376C42.1273 15.5644 42.4416 15.6854 42.7304 15.6854H52.8054V16.3245H43.5142C43.158 16.3245 42.8564 16.3741 42.6146 16.4721C42.3665 16.5727 42.1668 16.7153 42.0217 16.8948L42.0077 16.9126C41.8792 17.0718 41.757 17.222 41.7176 17.4473C41.6934 17.5823 41.6858 17.6599 41.6858 17.8547V19.4282C41.6858 19.6001 41.6998 19.6701 41.724 19.786C41.729 19.8127 41.7354 19.8433 41.743 19.8776C41.7888 20.1144 41.9021 20.2328 42.0459 20.3818L42.051 20.3869C42.2087 20.5524 42.4098 20.6733 42.6477 20.7484C42.8729 20.8197 43.1656 20.8553 43.5155 20.8553H54.3501C54.6326 20.8553 54.882 20.765 55.0881 20.5867C55.2828 20.4187 55.4126 20.2328 55.4126 19.8687C55.4126 19.5046 55.2739 19.3811 55.097 19.2296H55.0932Z" fill="#FF693A"/>
<path d="M55.8733 11.548C55.7015 11.399 55.4966 11.3252 55.2587 11.3252H41.5115C41.2736 11.3252 41.0687 11.399 40.897 11.548C40.7252 11.6969 40.6387 11.9134 40.6387 12.1985C40.6387 12.4837 40.7252 12.6288 40.897 12.7778C41.0687 12.9267 41.2736 13.0006 41.5115 13.0006H55.2587C55.4966 13.0006 55.7015 12.9267 55.8733 12.7778C56.045 12.6288 56.1316 12.4837 56.1316 12.1985C56.1316 11.9134 56.045 11.6969 55.8733 11.548Z" fill="#FF693A"/>
<path d="M54.3311 4.95239C54.102 4.77925 53.845 4.69141 53.5664 4.69141C53.261 4.69141 52.9989 4.78052 52.7851 4.95875C52.5624 5.14462 52.4504 5.41833 52.4504 5.77225V6.29548H44.2816V5.77225C44.2816 5.41451 44.1569 5.13826 43.9126 4.95239C43.6835 4.77925 43.4265 4.69141 43.1478 4.69141C42.8425 4.69141 42.5803 4.78052 42.3666 4.95875C42.2482 5.05805 42.1668 5.17772 42.1185 5.24901C42.1095 5.26174 42.1032 5.27193 42.0981 5.27957L42.0956 5.28211C42.0956 5.28211 42.0943 5.28593 42.093 5.28848C42.0879 5.29739 42.0841 5.30757 42.079 5.31776C42.0765 5.32158 42.0739 5.32412 42.0714 5.32794C42.0676 5.33813 42.0625 5.34704 42.0574 5.35595C42.0536 5.37377 42.0485 5.39032 42.0396 5.40687C42.037 5.4247 42.0357 5.44125 42.0332 5.45907V8.43043C42.0332 9.06314 42.0561 9.18918 42.0676 9.25665L42.0701 9.26811C42.0968 9.50108 42.1833 9.72132 42.3259 9.92502C42.4696 10.13 42.6745 10.2955 42.9366 10.4164C43.1924 10.5348 43.5041 10.5947 43.8617 10.5947H52.8729C53.2317 10.5947 53.5422 10.5348 53.7979 10.4164C54.0588 10.2955 54.2649 10.13 54.4087 9.92502C54.5512 9.72132 54.6365 9.50108 54.6644 9.26811L54.6759 9.17008C54.6924 9.04023 54.7013 8.96766 54.7013 8.80089V5.77225C54.7013 5.41451 54.5767 5.13826 54.3323 4.95239H54.3311ZM52.4504 8.7627H44.2816V8.04978H52.4504V8.7627Z" fill="#FF693A"/>
</g>
<defs>
<clipPath id="clip0_2711_2421">
<rect width="154.787" height="24" fill="white"/>
</clipPath>
</defs>
</svg>
