<svg viewBox="0 0 64 64" fill="none" xmlns="http://www.w3.org/2000/svg">
<rect x="0.5" y="0.5" width="63" height="63" rx="31.5" fill="#F3F6FC"/>
<path d="M39.6721 34.6666C41.3281 34.6666 42.6706 36.0091 42.6706 37.6651V38.8897C42.6706 39.6542 42.4316 40.3995 41.9871 41.0215C39.9259 43.9059 36.5602 45.3348 31.9998 45.3348C27.4385 45.3348 24.0746 43.9052 22.0184 41.0194C21.5758 40.3982 21.3379 39.6545 21.3379 38.8917V37.6651C21.3379 36.0091 22.6804 34.6666 24.3364 34.6666H39.6721ZM31.9998 18.6729C35.6817 18.6729 38.6665 21.6576 38.6665 25.3395C38.6665 29.0214 35.6817 32.0062 31.9998 32.0062C28.3179 32.0062 25.3332 29.0214 25.3332 25.3395C25.3332 21.6576 28.3179 18.6729 31.9998 18.6729Z" fill="#BCC6D6"/>
<rect x="0.5" y="0.5" width="63" height="63" rx="31.5" stroke="#DDE2EC"/>
</svg>
