<svg viewBox="0 0 40 40" fill="none" xmlns="http://www.w3.org/2000/svg">
<path d="M5.97266 8.64428C5.97266 6.5331 7.70548 4.82166 9.84303 4.82166H29.1949C31.3324 4.82166 33.0653 6.5331 33.0653 8.64428V31.58C33.0653 33.6912 31.3324 35.4026 29.1949 35.4026H9.84303C7.70548 35.4026 5.97266 33.6912 5.97266 31.58V8.64428Z" fill="url(#paint0_linear_2688_19333)"/>
<path d="M13.3613 4.51763C13.3613 3.46205 14.2277 2.60632 15.2965 2.60632H23.0373C24.106 2.60632 24.9724 3.46205 24.9724 4.51763C24.9724 5.57322 24.106 6.42895 23.0373 6.42895H15.2965C14.2277 6.42895 13.3613 5.57322 13.3613 4.51763Z" fill="url(#paint1_linear_2688_19333)"/>
<path d="M26.9073 19.8081C26.9073 24.0304 23.4416 27.4533 19.1665 27.4533C14.8914 27.4533 11.4258 24.0304 11.4258 19.8081C11.4258 15.5857 14.8914 12.1628 19.1665 12.1628C23.4416 12.1628 26.9073 15.5857 26.9073 19.8081Z" fill="url(#paint2_linear_2688_19333)"/>
<path d="M18.4112 23.6308C18.242 23.6308 18.078 23.5736 17.9507 23.4674L14.565 20.6775C14.2755 20.439 14.2476 20.0257 14.5022 19.7546C14.7569 19.4834 15.1982 19.4573 15.4877 19.6958L18.3414 22.0463L22.7754 17.1705C23.0248 16.8961 23.4661 16.8634 23.7592 17.097C24.0522 17.3306 24.0871 17.7438 23.8377 18.0182L18.9432 23.3988C18.8228 23.5327 18.6484 23.6144 18.4618 23.6275C18.4443 23.6275 18.4286 23.6291 18.4112 23.6291V23.6308Z" fill="#FF693A"/>
<defs>
<linearGradient id="paint0_linear_2688_19333" x1="12.262" y1="9.59993" x2="26.5212" y2="32.2184" gradientUnits="userSpaceOnUse">
<stop stop-color="#FF8661"/>
<stop offset="1" stop-color="#FF693A"/>
</linearGradient>
<linearGradient id="paint1_linear_2688_19333" x1="19.1669" y1="2.60632" x2="19.1669" y2="6.42895" gradientUnits="userSpaceOnUse">
<stop stop-color="#FFB39B"/>
<stop offset="1" stop-color="#FFBEAA"/>
</linearGradient>
<linearGradient id="paint2_linear_2688_19333" x1="15.2962" y1="12.1628" x2="21.4635" y2="24.1712" gradientUnits="userSpaceOnUse">
<stop stop-color="white"/>
<stop offset="1" stop-color="#FFF0EB"/>
</linearGradient>
</defs>
</svg>
