<svg viewBox="0 0 44 44" fill="none" xmlns="http://www.w3.org/2000/svg">
<path d="M14.8434 20.5634C17.821 20.5634 20.2434 18.5952 20.2434 16.1759C20.2434 15.9969 20.1722 15.8252 20.0457 15.6986C19.9191 15.572 19.7474 15.5009 19.5684 15.5009C19.3893 15.5009 19.2176 15.572 19.0911 15.6986C18.9645 15.8252 18.8934 15.9969 18.8934 16.1759C18.8934 17.6783 17.4312 18.9287 15.5184 19.1704V17.0281C15.5898 16.9925 15.6583 16.9513 15.7232 16.905L16.8688 16.0875C17.079 15.9349 17.2498 15.7345 17.3671 15.5027C17.4844 15.271 17.5448 15.0146 17.5433 14.7549C17.5433 13.8637 16.846 13.1387 15.9889 13.1387H13.6977C12.8406 13.1387 12.1434 13.8637 12.1434 14.7549C12.1418 15.0146 12.2022 15.271 12.3195 15.5027C12.4368 15.7345 12.6076 15.9349 12.8179 16.0875L13.9634 16.905C14.0284 16.9514 14.0969 16.9925 14.1684 17.0281V19.1704C12.2555 18.9287 10.7934 17.6783 10.7934 16.1759C10.7934 15.9969 10.7222 15.8252 10.5957 15.6986C10.4691 15.572 10.2974 15.5009 10.1184 15.5009C9.93934 15.5009 9.76765 15.572 9.64106 15.6986C9.51447 15.8252 9.44336 15.9969 9.44336 16.1759C9.44336 18.5952 11.8658 20.5634 14.8434 20.5634ZM13.6022 14.9884C13.5671 14.9606 13.5391 14.925 13.5202 14.8844C13.5013 14.8438 13.4922 14.7994 13.4935 14.7546C13.4935 14.6103 13.5872 14.4884 13.6979 14.4884H15.9892C16.1 14.4884 16.1935 14.6103 16.1935 14.7546C16.1949 14.7994 16.1857 14.8438 16.1668 14.8844C16.1479 14.925 16.1198 14.9606 16.0848 14.9884L14.9392 15.8058C14.9118 15.827 14.8781 15.8384 14.8435 15.8384C14.8089 15.8384 14.7752 15.827 14.7478 15.8058L13.6022 14.9884Z" fill="#F2A000"/>
<path d="M18.8918 13.1381C19.2646 13.1381 19.5668 12.8359 19.5668 12.4631C19.5668 12.0903 19.2646 11.7881 18.8918 11.7881C18.519 11.7881 18.2168 12.0903 18.2168 12.4631C18.2168 12.8359 18.519 13.1381 18.8918 13.1381Z" fill="#F2A000"/>
<path d="M10.7922 13.1381C11.165 13.1381 11.4672 12.8359 11.4672 12.4631C11.4672 12.0903 11.165 11.7881 10.7922 11.7881C10.4194 11.7881 10.1172 12.0903 10.1172 12.4631C10.1172 12.8359 10.4194 13.1381 10.7922 13.1381Z" fill="#F2A000"/>
<path d="M32.3992 26.6383C32.9332 26.6383 33.4552 26.4799 33.8993 26.1833C34.3433 25.8866 34.6893 25.4649 34.8937 24.9715C35.0981 24.4782 35.1515 23.9353 35.0473 23.4115C34.9432 22.8878 34.686 22.4067 34.3084 22.0291C33.9308 21.6515 33.4497 21.3943 32.926 21.2902C32.4022 21.186 31.8593 21.2395 31.366 21.4438C30.8726 21.6482 30.4509 21.9942 30.1543 22.4382C29.8576 22.8823 29.6992 23.4043 29.6992 23.9383C29.7 24.6541 29.9847 25.3404 30.4909 25.8466C30.9971 26.3528 31.6834 26.6375 32.3992 26.6383ZM32.3992 22.5883C32.6662 22.5883 32.9272 22.6675 33.1492 22.8158C33.3712 22.9641 33.5443 23.175 33.6465 23.4217C33.7486 23.6683 33.7754 23.9398 33.7233 24.2017C33.6712 24.4635 33.5426 24.7041 33.3538 24.8929C33.165 25.0817 32.9245 25.2103 32.6626 25.2623C32.4007 25.3144 32.1293 25.2877 31.8826 25.1855C31.6359 25.0833 31.4251 24.9103 31.2767 24.6883C31.1284 24.4663 31.0492 24.2053 31.0492 23.9383C31.0496 23.5804 31.192 23.2372 31.4451 22.9842C31.6982 22.7311 32.0413 22.5887 32.3992 22.5883Z" fill="#F2A000"/>
<path d="M41.8507 27.9884H37.8007V19.2134C37.8008 19.0749 37.7581 18.9398 37.6784 18.8265L32.9534 12.0765C32.8911 11.9876 32.8084 11.915 32.7121 11.8649C32.6158 11.8148 32.5089 11.7886 32.4004 11.7886C32.2918 11.7886 32.1849 11.8148 32.0886 11.8649C31.9924 11.915 31.9096 11.9876 31.8474 12.0765L27.1224 18.8265C27.0429 18.9399 27.0004 19.075 27.0007 19.2134V23.4375C26.0764 22.1948 24.8432 21.1637 23.3204 20.3684C24.8238 18.6013 25.6431 16.3051 25.6431 13.8134C25.6467 12.7124 25.4797 11.6175 25.1481 10.5677C25.8055 10.2206 26.3718 9.72336 26.8009 9.11627C27.23 8.50918 27.5098 7.80941 27.6175 7.07384C27.7253 6.33827 27.6579 5.58765 27.421 4.883C27.184 4.17836 26.7841 3.53957 26.2538 3.01856C25.7235 2.49755 25.0778 2.10903 24.369 1.88457C23.6603 1.66011 22.9086 1.60606 22.1751 1.72679C21.4415 1.84753 20.7468 2.13966 20.1474 2.57942C19.548 3.01919 19.0608 3.59419 18.7255 4.25768C17.4681 3.87027 16.1587 3.67827 14.8431 3.6884C13.5276 3.67827 12.2183 3.8703 10.961 4.25776C10.6257 3.59427 10.1385 3.01927 9.53912 2.57949C8.93972 2.13972 8.24502 1.84758 7.51147 1.72683C6.77791 1.60609 6.02622 1.66013 5.31749 1.88458C4.60876 2.10903 3.96299 2.49754 3.43268 3.01854C2.90236 3.53955 2.50246 4.17833 2.26549 4.88297C2.02852 5.58762 1.96117 6.33823 2.0689 7.07381C2.17663 7.80938 2.45641 8.50916 2.88549 9.11625C3.31458 9.72334 3.88086 10.2206 4.53831 10.5677C4.20667 11.6175 4.03963 12.7124 4.04311 13.8134C4.04311 16.3051 4.86273 18.6013 6.36587 20.3684C3.07964 22.0848 1.14205 24.8998 0.744557 28.5645C0.743714 28.573 0.74287 28.5814 0.742279 28.5898L0.677395 29.5164C0.675243 29.5469 0.675243 29.5774 0.677395 29.6079C0.731366 30.398 1.01532 31.1551 1.49427 31.7858C1.97322 32.4165 2.62624 32.8933 3.37284 33.1574C2.92749 34.0701 2.69754 35.0728 2.70071 36.0884C2.70071 39.4381 5.12311 42.1634 8.10071 42.1634C9.70383 42.1634 11.1452 41.3726 12.1351 40.1205C12.968 40.5752 13.9018 40.8134 14.8507 40.8134C15.7996 40.8134 16.7334 40.5752 17.5663 40.1205C18.5562 41.3726 19.9976 42.1634 21.6007 42.1634C23.7165 42.1634 25.5509 40.7867 26.4362 38.7884H41.8507C42.0297 38.7884 42.2014 38.7173 42.328 38.5907C42.4546 38.4641 42.5257 38.2924 42.5257 38.1134V28.6634C42.5257 28.4844 42.4546 28.3127 42.328 28.1861C42.2014 28.0595 42.0297 27.9884 41.8507 27.9884ZM32.4007 13.6404L35.8293 18.5384H28.9721L32.4007 13.6404ZM28.3507 19.8884H36.4507V27.9884H28.864C28.7576 27.2986 28.5857 26.6206 28.3507 25.9634V19.8884ZM26.3263 33.1527C26.9623 32.9243 27.5316 32.5414 27.9829 32.0384H29.0257V34.7384H26.8646C26.7542 34.1889 26.5732 33.6559 26.3263 33.1527ZM27.5981 28.6977L27.6588 29.5628C27.6103 30.1341 27.3814 30.6752 27.0053 31.1081C26.6292 31.5409 26.1253 31.8431 25.5663 31.9709C24.7201 30.9403 23.5616 30.2402 22.2614 30.0608C22.1385 27.3153 21.2131 24.7821 19.7011 23.0085C20.6544 22.6058 21.5384 22.0555 22.3207 21.378C25.4126 22.8592 27.2344 25.3805 27.5981 28.6972V28.6977ZM22.9431 3.0134C23.6848 3.01316 24.4058 3.25722 24.9949 3.70786C25.5839 4.15849 26.0081 4.79061 26.2019 5.50649C26.3957 6.22237 26.3483 6.98216 26.0671 7.6684C25.7858 8.35464 25.2863 8.92913 24.6458 9.30305C24.1746 8.31567 23.5351 7.41789 22.7558 6.64996C21.9517 5.86128 21.0172 5.21768 19.9936 4.74765C20.2867 4.22246 20.7145 3.78491 21.2329 3.48008C21.7514 3.17525 22.3417 3.01416 22.9431 3.0134ZM3.36811 6.3884C3.36791 5.64068 3.61602 4.91406 4.07349 4.32262C4.53095 3.73117 5.17188 3.30838 5.89564 3.12063C6.6194 2.93287 7.38503 2.99078 8.07232 3.28526C8.75961 3.57974 9.32965 4.09412 9.69295 4.74765C8.66936 5.21763 7.73484 5.86124 6.93076 6.64996C6.15148 7.41783 5.51192 8.31559 5.04076 9.30297C4.53219 9.005 4.1103 8.57931 3.81691 8.06808C3.52352 7.55686 3.36881 6.97784 3.36811 6.3884ZM7.87737 7.61251C9.58984 5.92856 11.9988 5.0384 14.8431 5.0384C17.6874 5.0384 20.0964 5.92856 21.8089 7.6126C23.4109 9.18788 24.2931 11.39 24.2931 13.8134C24.2931 16.2368 23.4109 18.4389 21.8089 20.0142C20.0964 21.6982 17.6877 22.5884 14.8431 22.5884C11.9986 22.5884 9.58984 21.6982 7.87737 20.0143C6.27534 18.4389 5.39311 16.2368 5.39311 13.8134C5.39311 11.39 6.27534 9.18788 7.87737 7.61251ZM2.02748 29.5626L2.08806 28.6974C2.4518 25.3805 4.27337 22.8591 7.36546 21.3778C8.15121 22.0582 9.03952 22.6103 9.99754 23.0135C8.49001 24.7876 7.56358 27.3283 7.43997 30.0605C6.13865 30.24 4.97883 30.9415 4.13264 31.9734C3.57091 31.8478 3.06389 31.5463 2.68529 31.1127C2.3067 30.6791 2.07626 30.1361 2.02748 29.5626ZM8.10071 40.8134C5.86747 40.8134 4.05071 38.6938 4.05071 36.0884C4.05071 33.483 5.86747 31.3634 8.10071 31.3634C10.3339 31.3634 12.1507 33.483 12.1507 36.0884C12.1507 38.6938 10.3339 40.8134 8.10071 40.8134ZM14.8507 39.4634C14.155 39.4611 13.47 39.2924 12.8527 38.9715C13.2824 38.0713 13.5039 37.0859 13.5007 36.0884C13.5007 33.0021 11.4439 30.4478 8.79157 30.0649C8.92134 27.4324 9.8671 25.026 11.3858 23.4941C12.5132 23.7959 13.676 23.9453 14.8431 23.9384C16.0142 23.9455 17.1809 23.795 18.3119 23.4912C19.8353 25.0227 20.7811 27.4195 20.9101 30.065C18.2577 30.4477 16.2007 33.002 16.2007 36.0884C16.1975 37.0859 16.419 38.0713 16.8487 38.9715C16.2315 39.2924 15.5464 39.4611 14.8507 39.4634ZM21.6007 40.8134C19.3675 40.8134 17.5507 38.6938 17.5507 36.0884C17.5507 33.483 19.3675 31.3634 21.6007 31.3634C23.8339 31.3634 25.6507 33.483 25.6507 36.0884C25.6507 38.6938 23.8339 40.8134 21.6007 40.8134ZM27.0007 36.0884H29.7007C29.8797 36.0884 30.0514 36.0173 30.178 35.8907C30.3046 35.7641 30.3757 35.5924 30.3757 35.4134V31.3634C30.3757 31.1844 30.3046 31.0127 30.178 30.8861C30.0514 30.7595 29.8797 30.6884 29.7007 30.6884H28.7858C28.9096 30.3402 28.9847 29.9766 29.0091 29.6079C29.0112 29.5774 29.0112 29.5469 29.0091 29.5164L28.9966 29.3384H31.7257V37.4384H26.8646C26.9549 36.9941 27.0005 36.5418 27.0007 36.0884ZM41.1757 37.4384H33.0757V29.3384H41.1757V37.4384Z" fill="#F2A000"/>
<path d="M35.1008 36.0884H39.1508C39.2658 36.0884 39.379 36.059 39.4795 36.003C39.58 35.9469 39.6645 35.8662 39.7249 35.7683C39.7854 35.6704 39.8199 35.5587 39.8251 35.4437C39.8302 35.3288 39.8059 35.2144 39.7545 35.1115L37.7295 31.0615C37.6734 30.9494 37.5872 30.8552 37.4806 30.7893C37.374 30.7234 37.2511 30.6885 37.1258 30.6885C37.0004 30.6885 36.8776 30.7234 36.7709 30.7893C36.6643 30.8552 36.5781 30.9494 36.5221 31.0615L34.4971 35.1115C34.4456 35.2144 34.4213 35.3288 34.4265 35.4437C34.4316 35.5587 34.4661 35.6704 34.5266 35.7683C34.5871 35.8662 34.6716 35.9469 34.7721 36.003C34.8726 36.059 34.9857 36.0884 35.1008 36.0884ZM37.1258 32.8728L38.0586 34.7384H36.1929L37.1258 32.8728Z" fill="#F2A000"/>
</svg>
